<svg width="265" height="268" viewBox="0 0 265 268" fill="none" xmlns="http://www.w3.org/2000/svg">
<rect width="265" height="268" rx="10" fill="#FEF6F0"/>
<path d="M32.84 94C32.712 94 32.592 93.952 32.48 93.856C32.384 93.76 32.336 93.64 32.336 93.496C32.336 93.432 32.352 93.36 32.384 93.28L38.168 77.8C38.216 77.64 38.304 77.504 38.432 77.392C38.576 77.264 38.768 77.2 39.008 77.2H41.624C41.864 77.2 42.048 77.264 42.176 77.392C42.304 77.504 42.4 77.64 42.464 77.8L48.248 93.28C48.264 93.36 48.272 93.432 48.272 93.496C48.272 93.64 48.224 93.76 48.128 93.856C48.032 93.952 47.92 94 47.792 94H45.704C45.48 94 45.312 93.952 45.2 93.856C45.104 93.744 45.04 93.64 45.008 93.544L43.88 90.616H36.752L35.624 93.544C35.592 93.64 35.52 93.744 35.408 93.856C35.312 93.952 35.152 94 34.928 94H32.84ZM37.592 87.856H43.04L40.304 80.44L37.592 87.856ZM54.716 94.24C53.74 94.24 52.892 94.024 52.172 93.592C51.468 93.144 50.924 92.52 50.54 91.72C50.156 90.904 49.964 89.944 49.964 88.84V82.096C49.964 81.936 50.02 81.8 50.132 81.688C50.244 81.576 50.38 81.52 50.54 81.52H52.652C52.828 81.52 52.964 81.576 53.06 81.688C53.172 81.8 53.228 81.936 53.228 82.096V88.696C53.228 90.68 54.1 91.672 55.844 91.672C56.676 91.672 57.332 91.408 57.812 90.88C58.308 90.352 58.556 89.624 58.556 88.696V82.096C58.556 81.936 58.612 81.8 58.724 81.688C58.836 81.576 58.972 81.52 59.132 81.52H61.244C61.404 81.52 61.54 81.576 61.652 81.688C61.764 81.8 61.82 81.936 61.82 82.096V93.424C61.82 93.584 61.764 93.72 61.652 93.832C61.54 93.944 61.404 94 61.244 94H59.3C59.124 94 58.98 93.944 58.868 93.832C58.772 93.72 58.724 93.584 58.724 93.424V92.44C58.292 93 57.756 93.44 57.116 93.76C56.476 94.08 55.676 94.24 54.716 94.24ZM69.6223 94.24C68.7903 94.24 68.0543 94.104 67.4143 93.832C66.7903 93.544 66.2703 93.144 65.8543 92.632C65.4383 92.12 65.1183 91.52 64.8943 90.832C64.6703 90.128 64.5423 89.36 64.5103 88.528C64.4943 88.24 64.4863 87.984 64.4863 87.76C64.4863 87.52 64.4943 87.256 64.5103 86.968C64.5423 86.168 64.6623 85.424 64.8703 84.736C65.0943 84.048 65.4143 83.448 65.8303 82.936C66.2623 82.408 66.7903 82 67.4143 81.712C68.0543 81.424 68.7903 81.28 69.6223 81.28C70.4863 81.28 71.2143 81.432 71.8063 81.736C72.4143 82.024 72.9183 82.4 73.3183 82.864V77.536C73.3183 77.376 73.3663 77.24 73.4623 77.128C73.5743 77.016 73.7183 76.96 73.8943 76.96H75.9343C76.0943 76.96 76.2303 77.016 76.3423 77.128C76.4543 77.24 76.5103 77.376 76.5103 77.536V93.424C76.5103 93.584 76.4543 93.72 76.3423 93.832C76.2303 93.944 76.0943 94 75.9343 94H74.0383C73.8623 94 73.7183 93.944 73.6063 93.832C73.5103 93.72 73.4623 93.584 73.4623 93.424V92.536C73.0623 93.032 72.5503 93.44 71.9263 93.76C71.3183 94.08 70.5503 94.24 69.6223 94.24ZM70.5103 91.672C71.1823 91.672 71.7183 91.52 72.1183 91.216C72.5183 90.912 72.8143 90.528 73.0063 90.064C73.1983 89.584 73.3023 89.096 73.3183 88.6C73.3343 88.312 73.3423 88.008 73.3423 87.688C73.3423 87.352 73.3343 87.04 73.3183 86.752C73.3023 86.272 73.1903 85.816 72.9823 85.384C72.7743 84.936 72.4703 84.568 72.0703 84.28C71.6703 83.992 71.1503 83.848 70.5103 83.848C69.8383 83.848 69.3023 84 68.9023 84.304C68.5183 84.592 68.2383 84.976 68.0623 85.456C67.8863 85.936 67.7823 86.464 67.7503 87.04C67.7343 87.52 67.7343 88 67.7503 88.48C67.7823 89.056 67.8863 89.584 68.0623 90.064C68.2383 90.544 68.5183 90.936 68.9023 91.24C69.3023 91.528 69.8383 91.672 70.5103 91.672ZM80.285 94C80.125 94 79.989 93.944 79.877 93.832C79.765 93.72 79.709 93.584 79.709 93.424V82.096C79.709 81.936 79.765 81.8 79.877 81.688C79.989 81.576 80.125 81.52 80.285 81.52H82.277C82.453 81.52 82.589 81.576 82.685 81.688C82.797 81.8 82.853 81.936 82.853 82.096V93.424C82.853 93.584 82.797 93.72 82.685 93.832C82.589 93.944 82.453 94 82.277 94H80.285ZM80.189 79.456C80.013 79.456 79.869 79.408 79.757 79.312C79.661 79.2 79.613 79.056 79.613 78.88V77.152C79.613 76.992 79.661 76.856 79.757 76.744C79.869 76.632 80.013 76.576 80.189 76.576H82.373C82.549 76.576 82.693 76.632 82.805 76.744C82.917 76.856 82.973 76.992 82.973 77.152V78.88C82.973 79.056 82.917 79.2 82.805 79.312C82.693 79.408 82.549 79.456 82.373 79.456H80.189ZM91.6274 94.24C90.3474 94.24 89.2674 94.016 88.3874 93.568C87.5234 93.12 86.8594 92.488 86.3954 91.672C85.9474 90.856 85.6914 89.904 85.6274 88.816C85.6114 88.528 85.6034 88.176 85.6034 87.76C85.6034 87.344 85.6114 86.992 85.6274 86.704C85.6914 85.6 85.9554 84.648 86.4194 83.848C86.8994 83.032 87.5714 82.4 88.4354 81.952C89.3154 81.504 90.3794 81.28 91.6274 81.28C92.8754 81.28 93.9314 81.504 94.7954 81.952C95.6754 82.4 96.3474 83.032 96.8114 83.848C97.2914 84.648 97.5634 85.6 97.6274 86.704C97.6434 86.992 97.6514 87.344 97.6514 87.76C97.6514 88.176 97.6434 88.528 97.6274 88.816C97.5634 89.904 97.2994 90.856 96.8354 91.672C96.3874 92.488 95.7234 93.12 94.8434 93.568C93.9794 94.016 92.9074 94.24 91.6274 94.24ZM91.6274 91.864C92.4754 91.864 93.1314 91.6 93.5954 91.072C94.0594 90.528 94.3154 89.736 94.3634 88.696C94.3794 88.456 94.3874 88.144 94.3874 87.76C94.3874 87.376 94.3794 87.064 94.3634 86.824C94.3154 85.8 94.0594 85.016 93.5954 84.472C93.1314 83.928 92.4754 83.656 91.6274 83.656C90.7794 83.656 90.1234 83.928 89.6594 84.472C89.1954 85.016 88.9394 85.8 88.8914 86.824C88.8754 87.064 88.8674 87.376 88.8674 87.76C88.8674 88.144 88.8754 88.456 88.8914 88.696C88.9394 89.736 89.1954 90.528 89.6594 91.072C90.1234 91.6 90.7794 91.864 91.6274 91.864ZM34.448 122C34.288 122 34.152 121.944 34.04 121.832C33.928 121.72 33.872 121.584 33.872 121.424V105.776C33.872 105.616 33.928 105.48 34.04 105.368C34.152 105.256 34.288 105.2 34.448 105.2H36.704C36.88 105.2 37.016 105.256 37.112 105.368C37.224 105.48 37.28 105.616 37.28 105.776V121.424C37.28 121.584 37.224 121.72 37.112 121.832C37.016 121.944 36.88 122 36.704 122H34.448ZM41.3319 122C41.1719 122 41.0359 121.944 40.9239 121.832C40.8119 121.72 40.7559 121.584 40.7559 121.424V110.096C40.7559 109.936 40.8119 109.8 40.9239 109.688C41.0359 109.576 41.1719 109.52 41.3319 109.52H43.2999C43.4599 109.52 43.5959 109.576 43.7079 109.688C43.8199 109.8 43.8759 109.936 43.8759 110.096V111.08C44.2919 110.568 44.8199 110.144 45.4599 109.808C46.1159 109.456 46.9239 109.28 47.8839 109.28C48.8599 109.28 49.7079 109.504 50.4279 109.952C51.1479 110.384 51.6999 111 52.0839 111.8C52.4839 112.6 52.6839 113.56 52.6839 114.68V121.424C52.6839 121.584 52.6279 121.72 52.5159 121.832C52.4039 121.944 52.2679 122 52.1079 122H49.9959C49.8359 122 49.6999 121.944 49.5879 121.832C49.4759 121.72 49.4199 121.584 49.4199 121.424V114.824C49.4199 113.896 49.1879 113.168 48.7239 112.64C48.2759 112.112 47.6199 111.848 46.7559 111.848C45.9239 111.848 45.2599 112.112 44.7639 112.64C44.2679 113.168 44.0199 113.896 44.0199 114.824V121.424C44.0199 121.584 43.9639 121.72 43.8519 121.832C43.7399 121.944 43.6039 122 43.4439 122H41.3319ZM61.2318 122C60.2718 122 59.4638 121.832 58.8078 121.496C58.1518 121.16 57.6638 120.664 57.3438 120.008C57.0238 119.336 56.8638 118.504 56.8638 117.512V112.064H54.9678C54.8078 112.064 54.6718 112.008 54.5598 111.896C54.4478 111.784 54.3918 111.648 54.3918 111.488V110.096C54.3918 109.936 54.4478 109.8 54.5598 109.688C54.6718 109.576 54.8078 109.52 54.9678 109.52H56.8638V105.536C56.8638 105.376 56.9118 105.24 57.0078 105.128C57.1198 105.016 57.2638 104.96 57.4398 104.96H59.3838C59.5438 104.96 59.6798 105.016 59.7918 105.128C59.9038 105.24 59.9598 105.376 59.9598 105.536V109.52H62.9598C63.1198 109.52 63.2558 109.576 63.3678 109.688C63.4798 109.8 63.5358 109.936 63.5358 110.096V111.488C63.5358 111.648 63.4798 111.784 63.3678 111.896C63.2558 112.008 63.1198 112.064 62.9598 112.064H59.9598V117.272C59.9598 117.928 60.0718 118.44 60.2958 118.808C60.5358 119.176 60.9438 119.36 61.5198 119.36H63.1758C63.3358 119.36 63.4718 119.416 63.5838 119.528C63.6958 119.64 63.7518 119.776 63.7518 119.936V121.424C63.7518 121.584 63.6958 121.72 63.5838 121.832C63.4718 121.944 63.3358 122 63.1758 122H61.2318ZM71.2569 122.24C69.4809 122.24 68.0729 121.728 67.0329 120.704C65.9929 119.68 65.4329 118.224 65.3529 116.336C65.3369 116.176 65.3289 115.976 65.3289 115.736C65.3289 115.48 65.3369 115.28 65.3529 115.136C65.4169 113.936 65.6889 112.896 66.1689 112.016C66.6649 111.136 67.3449 110.464 68.2089 110C69.0729 109.52 70.0889 109.28 71.2569 109.28C72.5529 109.28 73.6409 109.552 74.5209 110.096C75.4009 110.624 76.0649 111.368 76.5129 112.328C76.9609 113.272 77.1849 114.368 77.1849 115.616V116.12C77.1849 116.28 77.1289 116.416 77.0169 116.528C76.9049 116.64 76.7609 116.696 76.5849 116.696H68.6169C68.6169 116.696 68.6169 116.72 68.6169 116.768C68.6169 116.816 68.6169 116.856 68.6169 116.888C68.6329 117.448 68.7369 117.968 68.9289 118.448C69.1369 118.912 69.4329 119.288 69.8169 119.576C70.2169 119.864 70.6889 120.008 71.2329 120.008C71.6809 120.008 72.0569 119.944 72.3609 119.816C72.6649 119.672 72.9129 119.512 73.1049 119.336C73.2969 119.16 73.4329 119.016 73.5129 118.904C73.6569 118.712 73.7689 118.6 73.8489 118.568C73.9449 118.52 74.0809 118.496 74.2569 118.496H76.3209C76.4809 118.496 76.6089 118.544 76.7049 118.64C76.8169 118.736 76.8649 118.856 76.8489 119C76.8329 119.256 76.6969 119.568 76.4409 119.936C76.2009 120.304 75.8489 120.664 75.3849 121.016C74.9209 121.368 74.3369 121.664 73.6329 121.904C72.9449 122.128 72.1529 122.24 71.2569 122.24ZM68.6169 114.68H73.9209V114.608C73.9209 113.984 73.8169 113.44 73.6089 112.976C73.4009 112.512 73.0969 112.144 72.6969 111.872C72.2969 111.6 71.8169 111.464 71.2569 111.464C70.6969 111.464 70.2169 111.6 69.8169 111.872C69.4169 112.144 69.1129 112.512 68.9049 112.976C68.7129 113.44 68.6169 113.984 68.6169 114.608V114.68ZM80.3084 122C80.1484 122 80.0124 121.944 79.9004 121.832C79.7884 121.72 79.7324 121.584 79.7324 121.424V110.12C79.7324 109.944 79.7884 109.8 79.9004 109.688C80.0124 109.576 80.1484 109.52 80.3084 109.52H82.2524C82.4124 109.52 82.5484 109.576 82.6604 109.688C82.7884 109.8 82.8524 109.944 82.8524 110.12V111.104C83.2204 110.592 83.6924 110.2 84.2684 109.928C84.8604 109.656 85.5404 109.52 86.3084 109.52H87.2924C87.4684 109.52 87.6044 109.576 87.7004 109.688C87.8124 109.8 87.8684 109.936 87.8684 110.096V111.824C87.8684 111.984 87.8124 112.12 87.7004 112.232C87.6044 112.344 87.4684 112.4 87.2924 112.4H85.4204C84.6524 112.4 84.0524 112.616 83.6204 113.048C83.2044 113.48 82.9964 114.072 82.9964 114.824V121.424C82.9964 121.584 82.9404 121.72 82.8284 121.832C82.7164 121.944 82.5724 122 82.3964 122H80.3084ZM90.3403 126.56C90.1803 126.56 90.0443 126.504 89.9323 126.392C89.8203 126.28 89.7643 126.144 89.7643 125.984V110.096C89.7643 109.936 89.8203 109.8 89.9323 109.688C90.0443 109.576 90.1803 109.52 90.3403 109.52H92.2363C92.4123 109.52 92.5483 109.576 92.6443 109.688C92.7563 109.8 92.8123 109.936 92.8123 110.096V111.056C93.1963 110.544 93.7003 110.12 94.3242 109.784C94.9483 109.448 95.7243 109.28 96.6523 109.28C97.5003 109.28 98.2363 109.416 98.8603 109.688C99.4843 109.96 100.004 110.352 100.42 110.864C100.836 111.36 101.156 111.952 101.38 112.64C101.604 113.328 101.732 114.088 101.764 114.92C101.78 115.192 101.788 115.472 101.788 115.76C101.788 116.048 101.78 116.336 101.764 116.624C101.748 117.424 101.628 118.168 101.404 118.856C101.18 119.528 100.852 120.12 100.42 120.632C100.004 121.128 99.4843 121.52 98.8603 121.808C98.2363 122.096 97.5003 122.24 96.6523 122.24C95.7883 122.24 95.0523 122.088 94.4443 121.784C93.8363 121.464 93.3403 121.048 92.9563 120.536V125.984C92.9563 126.144 92.9003 126.28 92.7883 126.392C92.6923 126.504 92.5563 126.56 92.3803 126.56H90.3403ZM95.7643 119.672C96.4523 119.672 96.9883 119.528 97.3723 119.24C97.7563 118.936 98.0283 118.544 98.1883 118.064C98.3643 117.584 98.4683 117.056 98.5003 116.48C98.5323 116 98.5323 115.52 98.5003 115.04C98.4683 114.464 98.3643 113.936 98.1883 113.456C98.0283 112.976 97.7563 112.592 97.3723 112.304C96.9883 112 96.4523 111.848 95.7643 111.848C95.1083 111.848 94.5723 112 94.1562 112.304C93.7563 112.608 93.4603 113 93.2683 113.48C93.0923 113.944 92.9883 114.424 92.9563 114.92C92.9403 115.208 92.9323 115.512 92.9323 115.832C92.9323 116.152 92.9403 116.464 92.9563 116.768C92.9723 117.248 93.0843 117.712 93.2923 118.16C93.5003 118.592 93.8043 118.952 94.2043 119.24C94.6043 119.528 95.1243 119.672 95.7643 119.672ZM105.058 122C104.898 122 104.762 121.944 104.65 121.832C104.538 121.72 104.482 121.584 104.482 121.424V110.12C104.482 109.944 104.538 109.8 104.65 109.688C104.762 109.576 104.898 109.52 105.058 109.52H107.002C107.162 109.52 107.298 109.576 107.41 109.688C107.538 109.8 107.602 109.944 107.602 110.12V111.104C107.97 110.592 108.442 110.2 109.018 109.928C109.61 109.656 110.29 109.52 111.058 109.52H112.042C112.218 109.52 112.354 109.576 112.45 109.688C112.562 109.8 112.618 109.936 112.618 110.096V111.824C112.618 111.984 112.562 112.12 112.45 112.232C112.354 112.344 112.218 112.4 112.042 112.4H110.17C109.402 112.4 108.802 112.616 108.37 113.048C107.954 113.48 107.746 114.072 107.746 114.824V121.424C107.746 121.584 107.69 121.72 107.578 121.832C107.466 121.944 107.322 122 107.146 122H105.058ZM119.702 122.24C117.926 122.24 116.518 121.728 115.478 120.704C114.438 119.68 113.878 118.224 113.798 116.336C113.782 116.176 113.774 115.976 113.774 115.736C113.774 115.48 113.782 115.28 113.798 115.136C113.862 113.936 114.134 112.896 114.614 112.016C115.11 111.136 115.79 110.464 116.654 110C117.518 109.52 118.534 109.28 119.702 109.28C120.998 109.28 122.086 109.552 122.966 110.096C123.846 110.624 124.51 111.368 124.958 112.328C125.406 113.272 125.63 114.368 125.63 115.616V116.12C125.63 116.28 125.574 116.416 125.462 116.528C125.35 116.64 125.206 116.696 125.03 116.696H117.062C117.062 116.696 117.062 116.72 117.062 116.768C117.062 116.816 117.062 116.856 117.062 116.888C117.078 117.448 117.182 117.968 117.374 118.448C117.582 118.912 117.878 119.288 118.262 119.576C118.662 119.864 119.134 120.008 119.678 120.008C120.126 120.008 120.502 119.944 120.806 119.816C121.11 119.672 121.358 119.512 121.55 119.336C121.742 119.16 121.878 119.016 121.958 118.904C122.102 118.712 122.214 118.6 122.294 118.568C122.39 118.52 122.526 118.496 122.702 118.496H124.766C124.926 118.496 125.054 118.544 125.15 118.64C125.262 118.736 125.31 118.856 125.294 119C125.278 119.256 125.142 119.568 124.886 119.936C124.646 120.304 124.294 120.664 123.83 121.016C123.366 121.368 122.782 121.664 122.078 121.904C121.39 122.128 120.598 122.24 119.702 122.24ZM117.062 114.68H122.366V114.608C122.366 113.984 122.262 113.44 122.054 112.976C121.846 112.512 121.542 112.144 121.142 111.872C120.742 111.6 120.262 111.464 119.702 111.464C119.142 111.464 118.662 111.6 118.262 111.872C117.862 112.144 117.558 112.512 117.35 112.976C117.158 113.44 117.062 113.984 117.062 114.608V114.68ZM133.771 122C132.811 122 132.003 121.832 131.347 121.496C130.691 121.16 130.203 120.664 129.883 120.008C129.563 119.336 129.403 118.504 129.403 117.512V112.064H127.507C127.347 112.064 127.211 112.008 127.099 111.896C126.987 111.784 126.931 111.648 126.931 111.488V110.096C126.931 109.936 126.987 109.8 127.099 109.688C127.211 109.576 127.347 109.52 127.507 109.52H129.403V105.536C129.403 105.376 129.451 105.24 129.547 105.128C129.659 105.016 129.803 104.96 129.979 104.96H131.923C132.083 104.96 132.219 105.016 132.331 105.128C132.443 105.24 132.499 105.376 132.499 105.536V109.52H135.499C135.659 109.52 135.795 109.576 135.907 109.688C136.019 109.8 136.075 109.936 136.075 110.096V111.488C136.075 111.648 136.019 111.784 135.907 111.896C135.795 112.008 135.659 112.064 135.499 112.064H132.499V117.272C132.499 117.928 132.611 118.44 132.835 118.808C133.075 119.176 133.483 119.36 134.059 119.36H135.715C135.875 119.36 136.011 119.416 136.123 119.528C136.235 119.64 136.291 119.776 136.291 119.936V121.424C136.291 121.584 136.235 121.72 136.123 121.832C136.011 121.944 135.875 122 135.715 122H133.771ZM142.044 122.24C141.212 122.24 140.46 122.08 139.788 121.76C139.116 121.424 138.58 120.984 138.18 120.44C137.796 119.88 137.604 119.256 137.604 118.568C137.604 117.448 138.052 116.56 138.948 115.904C139.86 115.232 141.06 114.784 142.548 114.56L145.836 114.08V113.576C145.836 112.904 145.668 112.384 145.332 112.016C144.996 111.648 144.42 111.464 143.604 111.464C143.028 111.464 142.556 111.584 142.188 111.824C141.836 112.048 141.572 112.352 141.396 112.736C141.268 112.944 141.084 113.048 140.844 113.048H138.948C138.772 113.048 138.636 113 138.54 112.904C138.46 112.808 138.42 112.68 138.42 112.52C138.436 112.264 138.54 111.952 138.732 111.584C138.924 111.216 139.228 110.864 139.644 110.528C140.06 110.176 140.596 109.88 141.252 109.64C141.908 109.4 142.7 109.28 143.628 109.28C144.636 109.28 145.484 109.408 146.172 109.664C146.876 109.904 147.436 110.232 147.852 110.648C148.268 111.064 148.572 111.552 148.764 112.112C148.956 112.672 149.052 113.264 149.052 113.888V121.424C149.052 121.584 148.996 121.72 148.884 121.832C148.772 121.944 148.636 122 148.476 122H146.532C146.356 122 146.212 121.944 146.1 121.832C146.004 121.72 145.956 121.584 145.956 121.424V120.488C145.748 120.792 145.468 121.08 145.116 121.352C144.764 121.608 144.332 121.824 143.82 122C143.324 122.16 142.732 122.24 142.044 122.24ZM142.86 119.96C143.42 119.96 143.924 119.84 144.372 119.6C144.836 119.36 145.196 118.992 145.452 118.496C145.724 117.984 145.86 117.344 145.86 116.576V116.072L143.46 116.456C142.516 116.6 141.812 116.832 141.348 117.152C140.884 117.472 140.652 117.864 140.652 118.328C140.652 118.68 140.756 118.984 140.964 119.24C141.188 119.48 141.468 119.664 141.804 119.792C142.14 119.904 142.492 119.96 142.86 119.96ZM157.654 122C156.694 122 155.886 121.832 155.23 121.496C154.574 121.16 154.086 120.664 153.766 120.008C153.446 119.336 153.286 118.504 153.286 117.512V112.064H151.39C151.23 112.064 151.094 112.008 150.982 111.896C150.87 111.784 150.814 111.648 150.814 111.488V110.096C150.814 109.936 150.87 109.8 150.982 109.688C151.094 109.576 151.23 109.52 151.39 109.52H153.286V105.536C153.286 105.376 153.334 105.24 153.43 105.128C153.542 105.016 153.686 104.96 153.862 104.96H155.806C155.966 104.96 156.102 105.016 156.214 105.128C156.326 105.24 156.382 105.376 156.382 105.536V109.52H159.382C159.542 109.52 159.678 109.576 159.79 109.688C159.902 109.8 159.958 109.936 159.958 110.096V111.488C159.958 111.648 159.902 111.784 159.79 111.896C159.678 112.008 159.542 112.064 159.382 112.064H156.382V117.272C156.382 117.928 156.494 118.44 156.718 118.808C156.958 119.176 157.366 119.36 157.942 119.36H159.598C159.758 119.36 159.894 119.416 160.006 119.528C160.118 119.64 160.174 119.776 160.174 119.936V121.424C160.174 121.584 160.118 121.72 160.006 121.832C159.894 121.944 159.758 122 159.598 122H157.654ZM162.879 122C162.719 122 162.583 121.944 162.471 121.832C162.359 121.72 162.303 121.584 162.303 121.424V110.096C162.303 109.936 162.359 109.8 162.471 109.688C162.583 109.576 162.719 109.52 162.879 109.52H164.871C165.047 109.52 165.183 109.576 165.279 109.688C165.391 109.8 165.447 109.936 165.447 110.096V121.424C165.447 121.584 165.391 121.72 165.279 121.832C165.183 121.944 165.047 122 164.871 122H162.879ZM162.783 107.456C162.607 107.456 162.463 107.408 162.351 107.312C162.255 107.2 162.207 107.056 162.207 106.88V105.152C162.207 104.992 162.255 104.856 162.351 104.744C162.463 104.632 162.607 104.576 162.783 104.576H164.967C165.143 104.576 165.287 104.632 165.399 104.744C165.511 104.856 165.567 104.992 165.567 105.152V106.88C165.567 107.056 165.511 107.2 165.399 107.312C165.287 107.408 165.143 107.456 164.967 107.456H162.783ZM174.221 122.24C172.941 122.24 171.861 122.016 170.981 121.568C170.117 121.12 169.453 120.488 168.989 119.672C168.541 118.856 168.285 117.904 168.221 116.816C168.205 116.528 168.197 116.176 168.197 115.76C168.197 115.344 168.205 114.992 168.221 114.704C168.285 113.6 168.549 112.648 169.013 111.848C169.493 111.032 170.165 110.4 171.029 109.952C171.909 109.504 172.973 109.28 174.221 109.28C175.469 109.28 176.525 109.504 177.389 109.952C178.269 110.4 178.941 111.032 179.405 111.848C179.885 112.648 180.157 113.6 180.221 114.704C180.237 114.992 180.245 115.344 180.245 115.76C180.245 116.176 180.237 116.528 180.221 116.816C180.157 117.904 179.893 118.856 179.429 119.672C178.981 120.488 178.317 121.12 177.437 121.568C176.573 122.016 175.501 122.24 174.221 122.24ZM174.221 119.864C175.069 119.864 175.725 119.6 176.189 119.072C176.653 118.528 176.909 117.736 176.957 116.696C176.973 116.456 176.981 116.144 176.981 115.76C176.981 115.376 176.973 115.064 176.957 114.824C176.909 113.8 176.653 113.016 176.189 112.472C175.725 111.928 175.069 111.656 174.221 111.656C173.373 111.656 172.717 111.928 172.253 112.472C171.789 113.016 171.533 113.8 171.485 114.824C171.469 115.064 171.461 115.376 171.461 115.76C171.461 116.144 171.469 116.456 171.485 116.696C171.533 117.736 171.789 118.528 172.253 119.072C172.717 119.6 173.373 119.864 174.221 119.864ZM183.48 122C183.32 122 183.184 121.944 183.072 121.832C182.96 121.72 182.904 121.584 182.904 121.424V110.096C182.904 109.936 182.96 109.8 183.072 109.688C183.184 109.576 183.32 109.52 183.48 109.52H185.448C185.608 109.52 185.744 109.576 185.856 109.688C185.968 109.8 186.024 109.936 186.024 110.096V111.08C186.44 110.568 186.968 110.144 187.608 109.808C188.264 109.456 189.072 109.28 190.032 109.28C191.008 109.28 191.856 109.504 192.576 109.952C193.296 110.384 193.848 111 194.232 111.8C194.632 112.6 194.832 113.56 194.832 114.68V121.424C194.832 121.584 194.776 121.72 194.664 121.832C194.552 121.944 194.416 122 194.256 122H192.144C191.984 122 191.848 121.944 191.736 121.832C191.624 121.72 191.568 121.584 191.568 121.424V114.824C191.568 113.896 191.336 113.168 190.872 112.64C190.424 112.112 189.768 111.848 188.904 111.848C188.072 111.848 187.408 112.112 186.912 112.64C186.416 113.168 186.168 113.896 186.168 114.824V121.424C186.168 121.584 186.112 121.72 186 121.832C185.888 121.944 185.752 122 185.592 122H183.48Z" fill="#5E4E41"/>
<path d="M37.424 156.16C36.4427 156.16 35.6267 155.979 34.976 155.616C34.336 155.253 33.8507 154.747 33.52 154.096C33.1893 153.445 33.008 152.688 32.976 151.824C32.9653 151.387 32.96 150.917 32.96 150.416C32.96 149.915 32.9653 149.435 32.976 148.976C33.008 148.112 33.1893 147.355 33.52 146.704C33.8507 146.053 34.336 145.547 34.976 145.184C35.6267 144.821 36.4427 144.64 37.424 144.64C38.16 144.64 38.8053 144.741 39.36 144.944C39.9147 145.147 40.3733 145.419 40.736 145.76C41.1093 146.101 41.392 146.485 41.584 146.912C41.776 147.328 41.8827 147.76 41.904 148.208C41.9147 148.304 41.8827 148.384 41.808 148.448C41.744 148.512 41.664 148.544 41.568 148.544H40.688C40.592 148.544 40.5067 148.517 40.432 148.464C40.368 148.411 40.32 148.315 40.288 148.176C40.1067 147.344 39.7653 146.773 39.264 146.464C38.7733 146.155 38.1547 146 37.408 146C36.5547 146 35.8773 146.245 35.376 146.736C34.8747 147.216 34.6027 147.989 34.56 149.056C34.528 149.931 34.528 150.827 34.56 151.744C34.6027 152.811 34.8747 153.589 35.376 154.08C35.8773 154.56 36.5547 154.8 37.408 154.8C38.1547 154.8 38.7733 154.645 39.264 154.336C39.7653 154.027 40.1067 153.456 40.288 152.624C40.32 152.485 40.368 152.389 40.432 152.336C40.5067 152.283 40.592 152.256 40.688 152.256H41.568C41.664 152.256 41.744 152.288 41.808 152.352C41.8827 152.416 41.9147 152.496 41.904 152.592C41.8827 153.04 41.776 153.477 41.584 153.904C41.392 154.32 41.1093 154.699 40.736 155.04C40.3733 155.381 39.9147 155.653 39.36 155.856C38.8053 156.059 38.16 156.16 37.424 156.16ZM46.1603 156.16C45.6269 156.16 45.1416 156.053 44.7043 155.84C44.2669 155.627 43.9149 155.339 43.6483 154.976C43.3816 154.613 43.2483 154.203 43.2483 153.744C43.2483 153.008 43.5469 152.421 44.1443 151.984C44.7416 151.547 45.5203 151.259 46.4803 151.12L48.8643 150.784V150.32C48.8643 149.808 48.7149 149.408 48.4163 149.12C48.1283 148.832 47.6536 148.688 46.9923 148.688C46.5123 148.688 46.1229 148.784 45.8243 148.976C45.5363 149.168 45.3336 149.413 45.2163 149.712C45.1523 149.872 45.0403 149.952 44.8803 149.952H44.1603C44.0429 149.952 43.9523 149.92 43.8883 149.856C43.8349 149.781 43.8083 149.696 43.8083 149.6C43.8083 149.44 43.8669 149.243 43.9843 149.008C44.1123 148.773 44.3043 148.544 44.5603 148.32C44.8163 148.096 45.1416 147.909 45.5363 147.76C45.9416 147.6 46.4323 147.52 47.0083 147.52C47.6483 147.52 48.1869 147.605 48.6243 147.776C49.0616 147.936 49.4029 148.155 49.6483 148.432C49.9043 148.709 50.0856 149.024 50.1923 149.376C50.3096 149.728 50.3683 150.085 50.3683 150.448V155.632C50.3683 155.739 50.3309 155.829 50.2563 155.904C50.1923 155.968 50.1069 156 50.0003 156H49.2643C49.1469 156 49.0563 155.968 48.9923 155.904C48.9283 155.829 48.8963 155.739 48.8963 155.632V154.944C48.7576 155.136 48.5709 155.328 48.3363 155.52C48.1016 155.701 47.8083 155.856 47.4563 155.984C47.1043 156.101 46.6723 156.16 46.1603 156.16ZM46.4963 154.96C46.9336 154.96 47.3336 154.869 47.6963 154.688C48.0589 154.496 48.3416 154.203 48.5443 153.808C48.7576 153.413 48.8643 152.917 48.8643 152.32V151.872L47.0083 152.144C46.2509 152.251 45.6803 152.432 45.2963 152.688C44.9123 152.933 44.7203 153.248 44.7203 153.632C44.7203 153.931 44.8056 154.181 44.9763 154.384C45.1576 154.576 45.3816 154.72 45.6483 154.816C45.9256 154.912 46.2083 154.96 46.4963 154.96ZM53.0364 156C52.9297 156 52.839 155.968 52.7644 155.904C52.7004 155.829 52.6684 155.739 52.6684 155.632V148.048C52.6684 147.941 52.7004 147.856 52.7644 147.792C52.839 147.717 52.9297 147.68 53.0364 147.68H53.7884C53.895 147.68 53.9804 147.717 54.0444 147.792C54.119 147.856 54.1564 147.941 54.1564 148.048V148.752C54.4337 148.389 54.7804 148.096 55.1964 147.872C55.623 147.637 56.167 147.52 56.8284 147.52C57.5217 147.52 58.1084 147.675 58.5884 147.984C59.079 148.283 59.447 148.704 59.6924 149.248C59.9377 149.781 60.0604 150.405 60.0604 151.12V155.632C60.0604 155.739 60.0284 155.829 59.9644 155.904C59.9004 155.968 59.815 156 59.7084 156H58.9084C58.8017 156 58.711 155.968 58.6364 155.904C58.5724 155.829 58.5404 155.739 58.5404 155.632V151.2C58.5404 150.453 58.359 149.872 57.9964 149.456C57.6337 149.029 57.1004 148.816 56.3964 148.816C55.735 148.816 55.2017 149.029 54.7964 149.456C54.4017 149.872 54.2044 150.453 54.2044 151.2V155.632C54.2044 155.739 54.167 155.829 54.0924 155.904C54.0284 155.968 53.943 156 53.8364 156H53.0364ZM66.6774 156C66.5707 156 66.48 155.968 66.4054 155.904C66.3414 155.829 66.3094 155.739 66.3094 155.632V145.008C66.3094 144.901 66.3414 144.816 66.4054 144.752C66.48 144.677 66.5707 144.64 66.6774 144.64H67.4294C67.5467 144.64 67.6374 144.677 67.7014 144.752C67.7654 144.816 67.7974 144.901 67.7974 145.008V155.632C67.7974 155.739 67.7654 155.829 67.7014 155.904C67.6374 155.968 67.5467 156 67.4294 156H66.6774ZM70.7083 156C70.6016 156 70.5109 155.968 70.4363 155.904C70.3723 155.829 70.3403 155.739 70.3403 155.632V148.048C70.3403 147.941 70.3723 147.856 70.4363 147.792C70.5109 147.717 70.6016 147.68 70.7083 147.68H71.4763C71.5829 147.68 71.6683 147.717 71.7323 147.792C71.7963 147.856 71.8283 147.941 71.8283 148.048V155.632C71.8283 155.739 71.7963 155.829 71.7323 155.904C71.6683 155.968 71.5829 156 71.4763 156H70.7083ZM70.5803 146.128C70.4736 146.128 70.3829 146.096 70.3083 146.032C70.2443 145.957 70.2122 145.867 70.2122 145.76V144.896C70.2122 144.789 70.2443 144.704 70.3083 144.64C70.3829 144.565 70.4736 144.528 70.5803 144.528H71.5883C71.6949 144.528 71.7803 144.565 71.8443 144.64C71.9189 144.704 71.9563 144.789 71.9563 144.896V145.76C71.9563 145.867 71.9189 145.957 71.8443 146.032C71.7803 146.096 71.6949 146.128 71.5883 146.128H70.5803ZM77.189 156.16C76.5917 156.16 76.0797 156.085 75.653 155.936C75.2263 155.787 74.8797 155.605 74.613 155.392C74.3463 155.179 74.1437 154.965 74.005 154.752C73.877 154.539 73.8077 154.368 73.797 154.24C73.7863 154.123 73.8237 154.032 73.909 153.968C73.9943 153.904 74.0797 153.872 74.165 153.872H74.869C74.933 153.872 74.981 153.883 75.013 153.904C75.0557 153.915 75.109 153.957 75.173 154.032C75.3117 154.181 75.4663 154.331 75.637 154.48C75.8077 154.629 76.0157 154.752 76.261 154.848C76.517 154.944 76.8317 154.992 77.205 154.992C77.749 154.992 78.197 154.891 78.549 154.688C78.901 154.475 79.077 154.165 79.077 153.76C79.077 153.493 79.0023 153.28 78.853 153.12C78.7143 152.96 78.4583 152.816 78.085 152.688C77.7223 152.56 77.221 152.427 76.581 152.288C75.941 152.139 75.4343 151.957 75.061 151.744C74.6877 151.52 74.421 151.259 74.261 150.96C74.101 150.651 74.021 150.304 74.021 149.92C74.021 149.525 74.1383 149.147 74.373 148.784C74.6077 148.411 74.949 148.107 75.397 147.872C75.8557 147.637 76.4263 147.52 77.109 147.52C77.6637 147.52 78.1383 147.589 78.533 147.728C78.9277 147.867 79.253 148.043 79.509 148.256C79.765 148.459 79.957 148.661 80.085 148.864C80.213 149.067 80.2823 149.237 80.293 149.376C80.3037 149.483 80.2717 149.573 80.197 149.648C80.1223 149.712 80.037 149.744 79.941 149.744H79.269C79.1943 149.744 79.1303 149.728 79.077 149.696C79.0343 149.664 78.9917 149.627 78.949 149.584C78.8423 149.445 78.7143 149.307 78.565 149.168C78.4263 149.029 78.2397 148.917 78.005 148.832C77.781 148.736 77.4823 148.688 77.109 148.688C76.5757 148.688 76.1757 148.8 75.909 149.024C75.6423 149.248 75.509 149.531 75.509 149.872C75.509 150.075 75.5677 150.256 75.685 150.416C75.8023 150.576 76.0263 150.72 76.357 150.848C76.6877 150.976 77.1783 151.115 77.829 151.264C78.533 151.403 79.0877 151.589 79.493 151.824C79.8983 152.059 80.1863 152.331 80.357 152.64C80.5277 152.949 80.613 153.307 80.613 153.712C80.613 154.16 80.4797 154.571 80.213 154.944C79.957 155.317 79.573 155.616 79.061 155.84C78.5597 156.053 77.9357 156.16 77.189 156.16ZM85.6976 156C85.1003 156 84.615 155.888 84.2416 155.664C83.8683 155.429 83.5963 155.104 83.4256 154.688C83.255 154.261 83.1696 153.76 83.1696 153.184V148.96H81.9216C81.815 148.96 81.7243 148.928 81.6496 148.864C81.5856 148.789 81.5536 148.699 81.5536 148.592V148.048C81.5536 147.941 81.5856 147.856 81.6496 147.792C81.7243 147.717 81.815 147.68 81.9216 147.68H83.1696V145.008C83.1696 144.901 83.2016 144.816 83.2656 144.752C83.3403 144.677 83.431 144.64 83.5376 144.64H84.2896C84.3963 144.64 84.4816 144.677 84.5456 144.752C84.6203 144.816 84.6576 144.901 84.6576 145.008V147.68H86.6416C86.7483 147.68 86.8336 147.717 86.8976 147.792C86.9723 147.856 87.0096 147.941 87.0096 148.048V148.592C87.0096 148.699 86.9723 148.789 86.8976 148.864C86.8336 148.928 86.7483 148.96 86.6416 148.96H84.6576V153.072C84.6576 153.573 84.743 153.968 84.9136 154.256C85.0843 154.544 85.3883 154.688 85.8256 154.688H86.8016C86.9083 154.688 86.9936 154.725 87.0576 154.8C87.1323 154.864 87.1696 154.949 87.1696 155.056V155.632C87.1696 155.739 87.1323 155.829 87.0576 155.904C86.9936 155.968 86.9083 156 86.8016 156H85.6976ZM92.0116 156.16C90.913 156.16 90.0383 155.824 89.3876 155.152C88.737 154.469 88.3796 153.541 88.3156 152.368C88.305 152.229 88.2996 152.053 88.2996 151.84C88.2996 151.616 88.305 151.435 88.3156 151.296C88.3583 150.539 88.5343 149.877 88.8436 149.312C89.153 148.736 89.5743 148.293 90.1076 147.984C90.6516 147.675 91.2863 147.52 92.0116 147.52C92.8223 147.52 93.4996 147.691 94.0436 148.032C94.5983 148.373 95.0196 148.859 95.3076 149.488C95.5956 150.117 95.7396 150.853 95.7396 151.696V151.968C95.7396 152.085 95.7023 152.176 95.6276 152.24C95.5636 152.304 95.4783 152.336 95.3716 152.336H89.8356C89.8356 152.347 89.8356 152.368 89.8356 152.4C89.8356 152.432 89.8356 152.459 89.8356 152.48C89.857 152.917 89.953 153.328 90.1236 153.712C90.2943 154.085 90.5396 154.389 90.8596 154.624C91.1796 154.859 91.5636 154.976 92.0116 154.976C92.3956 154.976 92.7156 154.917 92.9716 154.8C93.2276 154.683 93.4356 154.555 93.5956 154.416C93.7556 154.267 93.8623 154.155 93.9156 154.08C94.0116 153.941 94.0863 153.861 94.1396 153.84C94.193 153.808 94.2783 153.792 94.3956 153.792H95.1636C95.2703 153.792 95.3556 153.824 95.4196 153.888C95.4943 153.941 95.5263 154.021 95.5156 154.128C95.505 154.288 95.4196 154.485 95.2596 154.72C95.0996 154.944 94.8703 155.168 94.5716 155.392C94.273 155.616 93.9103 155.803 93.4836 155.952C93.057 156.091 92.5663 156.16 92.0116 156.16ZM89.8356 151.232H94.2196V151.184C94.2196 150.704 94.129 150.277 93.9476 149.904C93.777 149.531 93.5263 149.237 93.1956 149.024C92.865 148.8 92.4703 148.688 92.0116 148.688C91.553 148.688 91.1583 148.8 90.8276 149.024C90.5076 149.237 90.2623 149.531 90.0916 149.904C89.921 150.277 89.8356 150.704 89.8356 151.184V151.232ZM98.0208 156C97.9141 156 97.8234 155.968 97.7488 155.904C97.6848 155.829 97.6528 155.739 97.6528 155.632V148.048C97.6528 147.941 97.6848 147.856 97.7488 147.792C97.8234 147.717 97.9141 147.68 98.0208 147.68H98.7728C98.8794 147.68 98.9648 147.717 99.0288 147.792C99.1034 147.856 99.1408 147.941 99.1408 148.048V148.752C99.4181 148.389 99.7648 148.096 100.181 147.872C100.607 147.637 101.151 147.52 101.813 147.52C102.506 147.52 103.093 147.675 103.573 147.984C104.063 148.283 104.431 148.704 104.677 149.248C104.922 149.781 105.045 150.405 105.045 151.12V155.632C105.045 155.739 105.013 155.829 104.949 155.904C104.885 155.968 104.799 156 104.693 156H103.893C103.786 156 103.695 155.968 103.621 155.904C103.557 155.829 103.525 155.739 103.525 155.632V151.2C103.525 150.453 103.343 149.872 102.981 149.456C102.618 149.029 102.085 148.816 101.381 148.816C100.719 148.816 100.186 149.029 99.7808 149.456C99.3861 149.872 99.1888 150.453 99.1888 151.2V155.632C99.1888 155.739 99.1514 155.829 99.0768 155.904C99.0128 155.968 98.9274 156 98.8207 156H98.0208ZM114.182 156C113.585 156 113.099 155.888 112.726 155.664C112.353 155.429 112.081 155.104 111.91 154.688C111.739 154.261 111.654 153.76 111.654 153.184V148.96H110.406C110.299 148.96 110.209 148.928 110.134 148.864C110.07 148.789 110.038 148.699 110.038 148.592V148.048C110.038 147.941 110.07 147.856 110.134 147.792C110.209 147.717 110.299 147.68 110.406 147.68H111.654V145.008C111.654 144.901 111.686 144.816 111.75 144.752C111.825 144.677 111.915 144.64 112.022 144.64H112.774C112.881 144.64 112.966 144.677 113.03 144.752C113.105 144.816 113.142 144.901 113.142 145.008V147.68H115.126C115.233 147.68 115.318 147.717 115.382 147.792C115.457 147.856 115.494 147.941 115.494 148.048V148.592C115.494 148.699 115.457 148.789 115.382 148.864C115.318 148.928 115.233 148.96 115.126 148.96H113.142V153.072C113.142 153.573 113.227 153.968 113.398 154.256C113.569 154.544 113.873 154.688 114.31 154.688H115.286C115.393 154.688 115.478 154.725 115.542 154.8C115.617 154.864 115.654 154.949 115.654 155.056V155.632C115.654 155.739 115.617 155.829 115.542 155.904C115.478 155.968 115.393 156 115.286 156H114.182ZM120.592 156.16C119.781 156.16 119.104 156.005 118.56 155.696C118.016 155.387 117.6 154.96 117.312 154.416C117.024 153.861 116.864 153.232 116.832 152.528C116.821 152.347 116.816 152.117 116.816 151.84C116.816 151.552 116.821 151.323 116.832 151.152C116.864 150.437 117.024 149.808 117.312 149.264C117.611 148.72 118.032 148.293 118.576 147.984C119.12 147.675 119.792 147.52 120.592 147.52C121.392 147.52 122.064 147.675 122.608 147.984C123.152 148.293 123.568 148.72 123.856 149.264C124.155 149.808 124.32 150.437 124.352 151.152C124.363 151.323 124.368 151.552 124.368 151.84C124.368 152.117 124.363 152.347 124.352 152.528C124.32 153.232 124.16 153.861 123.872 154.416C123.584 154.96 123.168 155.387 122.624 155.696C122.08 156.005 121.403 156.16 120.592 156.16ZM120.592 154.928C121.253 154.928 121.781 154.72 122.176 154.304C122.571 153.877 122.784 153.259 122.816 152.448C122.827 152.288 122.832 152.085 122.832 151.84C122.832 151.595 122.827 151.392 122.816 151.232C122.784 150.421 122.571 149.808 122.176 149.392C121.781 148.965 121.253 148.752 120.592 148.752C119.931 148.752 119.397 148.965 118.992 149.392C118.597 149.808 118.389 150.421 118.368 151.232C118.357 151.392 118.352 151.595 118.352 151.84C118.352 152.085 118.357 152.288 118.368 152.448C118.389 153.259 118.597 153.877 118.992 154.304C119.397 154.72 119.931 154.928 120.592 154.928ZM133.198 156C132.6 156 132.115 155.888 131.742 155.664C131.368 155.429 131.096 155.104 130.926 154.688C130.755 154.261 130.67 153.76 130.67 153.184V148.96H129.422C129.315 148.96 129.224 148.928 129.15 148.864C129.086 148.789 129.054 148.699 129.054 148.592V148.048C129.054 147.941 129.086 147.856 129.15 147.792C129.224 147.717 129.315 147.68 129.422 147.68H130.67V145.008C130.67 144.901 130.702 144.816 130.766 144.752C130.84 144.677 130.931 144.64 131.038 144.64H131.79C131.896 144.64 131.982 144.677 132.046 144.752C132.12 144.816 132.158 144.901 132.158 145.008V147.68H134.142C134.248 147.68 134.334 147.717 134.398 147.792C134.472 147.856 134.51 147.941 134.51 148.048V148.592C134.51 148.699 134.472 148.789 134.398 148.864C134.334 148.928 134.248 148.96 134.142 148.96H132.158V153.072C132.158 153.573 132.243 153.968 132.414 154.256C132.584 154.544 132.888 154.688 133.326 154.688H134.302C134.408 154.688 134.494 154.725 134.558 154.8C134.632 154.864 134.67 154.949 134.67 155.056V155.632C134.67 155.739 134.632 155.829 134.558 155.904C134.494 155.968 134.408 156 134.302 156H133.198ZM136.584 156C136.477 156 136.386 155.968 136.312 155.904C136.248 155.829 136.216 155.739 136.216 155.632V145.008C136.216 144.901 136.248 144.816 136.312 144.752C136.386 144.677 136.477 144.64 136.584 144.64H137.384C137.501 144.64 137.592 144.677 137.656 144.752C137.72 144.816 137.752 144.901 137.752 145.008V148.736C138.04 148.373 138.392 148.08 138.808 147.856C139.224 147.632 139.752 147.52 140.392 147.52C141.085 147.52 141.672 147.675 142.152 147.984C142.642 148.283 143.01 148.704 143.256 149.248C143.512 149.781 143.64 150.405 143.64 151.12V155.632C143.64 155.739 143.608 155.829 143.544 155.904C143.48 155.968 143.389 156 143.272 156H142.472C142.365 156 142.274 155.968 142.2 155.904C142.136 155.829 142.104 155.739 142.104 155.632V151.2C142.104 150.453 141.922 149.872 141.56 149.456C141.197 149.029 140.664 148.816 139.96 148.816C139.298 148.816 138.765 149.029 138.36 149.456C137.954 149.872 137.752 150.453 137.752 151.2V155.632C137.752 155.739 137.72 155.829 137.656 155.904C137.592 155.968 137.501 156 137.384 156H136.584ZM149.262 156.16C148.163 156.16 147.288 155.824 146.638 155.152C145.987 154.469 145.63 153.541 145.566 152.368C145.555 152.229 145.55 152.053 145.55 151.84C145.55 151.616 145.555 151.435 145.566 151.296C145.608 150.539 145.784 149.877 146.094 149.312C146.403 148.736 146.824 148.293 147.358 147.984C147.902 147.675 148.536 147.52 149.262 147.52C150.072 147.52 150.75 147.691 151.294 148.032C151.848 148.373 152.27 148.859 152.558 149.488C152.846 150.117 152.99 150.853 152.99 151.696V151.968C152.99 152.085 152.952 152.176 152.878 152.24C152.814 152.304 152.728 152.336 152.622 152.336H147.086C147.086 152.347 147.086 152.368 147.086 152.4C147.086 152.432 147.086 152.459 147.086 152.48C147.107 152.917 147.203 153.328 147.374 153.712C147.544 154.085 147.79 154.389 148.11 154.624C148.43 154.859 148.814 154.976 149.262 154.976C149.646 154.976 149.966 154.917 150.222 154.8C150.478 154.683 150.686 154.555 150.846 154.416C151.006 154.267 151.112 154.155 151.166 154.08C151.262 153.941 151.336 153.861 151.39 153.84C151.443 153.808 151.528 153.792 151.646 153.792H152.414C152.52 153.792 152.606 153.824 152.67 153.888C152.744 153.941 152.776 154.021 152.766 154.128C152.755 154.288 152.67 154.485 152.51 154.72C152.35 154.944 152.12 155.168 151.822 155.392C151.523 155.616 151.16 155.803 150.734 155.952C150.307 156.091 149.816 156.16 149.262 156.16ZM147.086 151.232H151.47V151.184C151.47 150.704 151.379 150.277 151.198 149.904C151.027 149.531 150.776 149.237 150.446 149.024C150.115 148.8 149.72 148.688 149.262 148.688C148.803 148.688 148.408 148.8 148.078 149.024C147.758 149.237 147.512 149.531 147.342 149.904C147.171 150.277 147.086 150.704 147.086 151.184V151.232ZM161.705 156.16C161.107 156.16 160.595 156.085 160.169 155.936C159.742 155.787 159.395 155.605 159.129 155.392C158.862 155.179 158.659 154.965 158.521 154.752C158.393 154.539 158.323 154.368 158.313 154.24C158.302 154.123 158.339 154.032 158.425 153.968C158.51 153.904 158.595 153.872 158.681 153.872H159.385C159.449 153.872 159.497 153.883 159.529 153.904C159.571 153.915 159.625 153.957 159.689 154.032C159.827 154.181 159.982 154.331 160.153 154.48C160.323 154.629 160.531 154.752 160.777 154.848C161.033 154.944 161.347 154.992 161.721 154.992C162.265 154.992 162.713 154.891 163.065 154.688C163.417 154.475 163.593 154.165 163.593 153.76C163.593 153.493 163.518 153.28 163.369 153.12C163.23 152.96 162.974 152.816 162.601 152.688C162.238 152.56 161.737 152.427 161.097 152.288C160.457 152.139 159.95 151.957 159.577 151.744C159.203 151.52 158.937 151.259 158.777 150.96C158.617 150.651 158.537 150.304 158.537 149.92C158.537 149.525 158.654 149.147 158.889 148.784C159.123 148.411 159.465 148.107 159.913 147.872C160.371 147.637 160.942 147.52 161.625 147.52C162.179 147.52 162.654 147.589 163.049 147.728C163.443 147.867 163.769 148.043 164.025 148.256C164.281 148.459 164.473 148.661 164.601 148.864C164.729 149.067 164.798 149.237 164.809 149.376C164.819 149.483 164.787 149.573 164.713 149.648C164.638 149.712 164.553 149.744 164.457 149.744H163.785C163.71 149.744 163.646 149.728 163.593 149.696C163.55 149.664 163.507 149.627 163.465 149.584C163.358 149.445 163.23 149.307 163.081 149.168C162.942 149.029 162.755 148.917 162.521 148.832C162.297 148.736 161.998 148.688 161.625 148.688C161.091 148.688 160.691 148.8 160.425 149.024C160.158 149.248 160.025 149.531 160.025 149.872C160.025 150.075 160.083 150.256 160.201 150.416C160.318 150.576 160.542 150.72 160.873 150.848C161.203 150.976 161.694 151.115 162.345 151.264C163.049 151.403 163.603 151.589 164.009 151.824C164.414 152.059 164.702 152.331 164.873 152.64C165.043 152.949 165.129 153.307 165.129 153.712C165.129 154.16 164.995 154.571 164.729 154.944C164.473 155.317 164.089 155.616 163.577 155.84C163.075 156.053 162.451 156.16 161.705 156.16ZM170.389 156.16C169.578 156.16 168.901 156.005 168.357 155.696C167.813 155.387 167.397 154.96 167.109 154.416C166.821 153.861 166.661 153.232 166.629 152.528C166.618 152.347 166.613 152.117 166.613 151.84C166.613 151.552 166.618 151.323 166.629 151.152C166.661 150.437 166.821 149.808 167.109 149.264C167.408 148.72 167.829 148.293 168.373 147.984C168.917 147.675 169.589 147.52 170.389 147.52C171.189 147.52 171.861 147.675 172.405 147.984C172.949 148.293 173.365 148.72 173.653 149.264C173.952 149.808 174.117 150.437 174.149 151.152C174.16 151.323 174.165 151.552 174.165 151.84C174.165 152.117 174.16 152.347 174.149 152.528C174.117 153.232 173.957 153.861 173.669 154.416C173.381 154.96 172.965 155.387 172.421 155.696C171.877 156.005 171.2 156.16 170.389 156.16ZM170.389 154.928C171.05 154.928 171.578 154.72 171.973 154.304C172.368 153.877 172.581 153.259 172.613 152.448C172.624 152.288 172.629 152.085 172.629 151.84C172.629 151.595 172.624 151.392 172.613 151.232C172.581 150.421 172.368 149.808 171.973 149.392C171.578 148.965 171.05 148.752 170.389 148.752C169.728 148.752 169.194 148.965 168.789 149.392C168.394 149.808 168.186 150.421 168.165 151.232C168.154 151.392 168.149 151.595 168.149 151.84C168.149 152.085 168.154 152.288 168.165 152.448C168.186 153.259 168.394 153.877 168.789 154.304C169.194 154.72 169.728 154.928 170.389 154.928ZM179.272 156.16C178.59 156.16 178.008 156.011 177.528 155.712C177.059 155.403 176.702 154.976 176.456 154.432C176.211 153.888 176.088 153.264 176.088 152.56V148.048C176.088 147.941 176.12 147.856 176.184 147.792C176.259 147.717 176.35 147.68 176.456 147.68H177.256C177.363 147.68 177.448 147.717 177.512 147.792C177.587 147.856 177.624 147.941 177.624 148.048V152.48C177.624 154.069 178.318 154.864 179.704 154.864C180.366 154.864 180.894 154.656 181.288 154.24C181.694 153.813 181.896 153.227 181.896 152.48V148.048C181.896 147.941 181.928 147.856 181.992 147.792C182.067 147.717 182.158 147.68 182.264 147.68H183.048C183.166 147.68 183.256 147.717 183.32 147.792C183.384 147.856 183.416 147.941 183.416 148.048V155.632C183.416 155.739 183.384 155.829 183.32 155.904C183.256 155.968 183.166 156 183.048 156H182.312C182.206 156 182.115 155.968 182.04 155.904C181.976 155.829 181.944 155.739 181.944 155.632V154.928C181.656 155.301 181.304 155.6 180.888 155.824C180.483 156.048 179.944 156.16 179.272 156.16ZM186.161 156C186.055 156 185.964 155.968 185.889 155.904C185.825 155.829 185.793 155.739 185.793 155.632V148.048C185.793 147.941 185.825 147.856 185.889 147.792C185.964 147.717 186.055 147.68 186.161 147.68H186.913C187.02 147.68 187.105 147.717 187.169 147.792C187.244 147.856 187.281 147.941 187.281 148.048V148.752C187.559 148.389 187.905 148.096 188.321 147.872C188.748 147.637 189.292 147.52 189.953 147.52C190.647 147.52 191.233 147.675 191.713 147.984C192.204 148.283 192.572 148.704 192.817 149.248C193.063 149.781 193.185 150.405 193.185 151.12V155.632C193.185 155.739 193.153 155.829 193.089 155.904C193.025 155.968 192.94 156 192.833 156H192.033C191.927 156 191.836 155.968 191.761 155.904C191.697 155.829 191.665 155.739 191.665 155.632V151.2C191.665 150.453 191.484 149.872 191.121 149.456C190.759 149.029 190.225 148.816 189.521 148.816C188.86 148.816 188.327 149.029 187.921 149.456C187.527 149.872 187.329 150.453 187.329 151.2V155.632C187.329 155.739 187.292 155.829 187.217 155.904C187.153 155.968 187.068 156 186.961 156H186.161ZM198.536 156.16C197.95 156.16 197.443 156.059 197.017 155.856C196.59 155.643 196.238 155.36 195.961 155.008C195.694 154.645 195.491 154.235 195.353 153.776C195.225 153.317 195.15 152.832 195.129 152.32C195.118 152.149 195.113 151.989 195.113 151.84C195.113 151.691 195.118 151.531 195.129 151.36C195.15 150.859 195.225 150.379 195.353 149.92C195.491 149.461 195.694 149.051 195.961 148.688C196.238 148.325 196.59 148.043 197.017 147.84C197.443 147.627 197.95 147.52 198.536 147.52C199.166 147.52 199.689 147.632 200.105 147.856C200.521 148.08 200.862 148.357 201.129 148.688V145.008C201.129 144.901 201.161 144.816 201.225 144.752C201.299 144.677 201.39 144.64 201.497 144.64H202.265C202.371 144.64 202.457 144.677 202.521 144.752C202.595 144.816 202.633 144.901 202.633 145.008V155.632C202.633 155.739 202.595 155.829 202.521 155.904C202.457 155.968 202.371 156 202.265 156H201.545C201.427 156 201.337 155.968 201.273 155.904C201.209 155.829 201.177 155.739 201.177 155.632V154.96C200.91 155.301 200.563 155.589 200.137 155.824C199.71 156.048 199.177 156.16 198.536 156.16ZM198.873 154.864C199.406 154.864 199.833 154.741 200.153 154.496C200.473 154.251 200.713 153.941 200.873 153.568C201.033 153.184 201.118 152.795 201.129 152.4C201.139 152.229 201.145 152.027 201.145 151.792C201.145 151.547 201.139 151.339 201.129 151.168C201.118 150.795 201.027 150.427 200.857 150.064C200.697 149.701 200.451 149.403 200.121 149.168C199.801 148.933 199.385 148.816 198.873 148.816C198.329 148.816 197.897 148.939 197.577 149.184C197.257 149.419 197.027 149.733 196.889 150.128C196.75 150.512 196.67 150.928 196.649 151.376C196.638 151.685 196.638 151.995 196.649 152.304C196.67 152.752 196.75 153.173 196.889 153.568C197.027 153.952 197.257 154.267 197.577 154.512C197.897 154.747 198.329 154.864 198.873 154.864ZM207.892 156.16C207.295 156.16 206.783 156.085 206.356 155.936C205.929 155.787 205.583 155.605 205.316 155.392C205.049 155.179 204.847 154.965 204.708 154.752C204.58 154.539 204.511 154.368 204.5 154.24C204.489 154.123 204.527 154.032 204.612 153.968C204.697 153.904 204.783 153.872 204.868 153.872H205.572C205.636 153.872 205.684 153.883 205.716 153.904C205.759 153.915 205.812 153.957 205.876 154.032C206.015 154.181 206.169 154.331 206.34 154.48C206.511 154.629 206.719 154.752 206.964 154.848C207.22 154.944 207.535 154.992 207.908 154.992C208.452 154.992 208.9 154.891 209.252 154.688C209.604 154.475 209.78 154.165 209.78 153.76C209.78 153.493 209.705 153.28 209.556 153.12C209.417 152.96 209.161 152.816 208.788 152.688C208.425 152.56 207.924 152.427 207.284 152.288C206.644 152.139 206.137 151.957 205.764 151.744C205.391 151.52 205.124 151.259 204.964 150.96C204.804 150.651 204.724 150.304 204.724 149.92C204.724 149.525 204.841 149.147 205.076 148.784C205.311 148.411 205.652 148.107 206.1 147.872C206.559 147.637 207.129 147.52 207.812 147.52C208.367 147.52 208.841 147.589 209.236 147.728C209.631 147.867 209.956 148.043 210.212 148.256C210.468 148.459 210.66 148.661 210.788 148.864C210.916 149.067 210.985 149.237 210.996 149.376C211.007 149.483 210.975 149.573 210.9 149.648C210.825 149.712 210.74 149.744 210.644 149.744H209.972C209.897 149.744 209.833 149.728 209.78 149.696C209.737 149.664 209.695 149.627 209.652 149.584C209.545 149.445 209.417 149.307 209.268 149.168C209.129 149.029 208.943 148.917 208.708 148.832C208.484 148.736 208.185 148.688 207.812 148.688C207.279 148.688 206.879 148.8 206.612 149.024C206.345 149.248 206.212 149.531 206.212 149.872C206.212 150.075 206.271 150.256 206.388 150.416C206.505 150.576 206.729 150.72 207.06 150.848C207.391 150.976 207.881 151.115 208.532 151.264C209.236 151.403 209.791 151.589 210.196 151.824C210.601 152.059 210.889 152.331 211.06 152.64C211.231 152.949 211.316 153.307 211.316 153.712C211.316 154.16 211.183 154.571 210.916 154.944C210.66 155.317 210.276 155.616 209.764 155.84C209.263 156.053 208.639 156.16 207.892 156.16ZM34.64 178.04C34.5547 178.04 34.48 178.008 34.416 177.944C34.352 177.88 34.32 177.805 34.32 177.72C34.32 177.677 34.3253 177.635 34.336 177.592C34.3467 177.549 34.368 177.496 34.4 177.432L35.632 174.504L32.576 167.288C32.5227 167.16 32.496 167.069 32.496 167.016C32.496 166.92 32.528 166.84 32.592 166.776C32.656 166.712 32.736 166.68 32.832 166.68H33.616C33.7227 166.68 33.808 166.707 33.872 166.76C33.936 166.813 33.9787 166.877 34 166.952L36.432 172.776L38.928 166.952C38.96 166.877 39.0027 166.813 39.056 166.76C39.12 166.707 39.2107 166.68 39.328 166.68H40.08C40.176 166.68 40.256 166.712 40.32 166.776C40.384 166.84 40.416 166.915 40.416 167C40.416 167.053 40.3893 167.149 40.336 167.288L35.792 177.768C35.76 177.843 35.712 177.907 35.648 177.96C35.5947 178.013 35.5093 178.04 35.392 178.04H34.64ZM45.1233 175.16C44.3126 175.16 43.6353 175.005 43.0913 174.696C42.5473 174.387 42.1313 173.96 41.8433 173.416C41.5553 172.861 41.3953 172.232 41.3633 171.528C41.3526 171.347 41.3473 171.117 41.3473 170.84C41.3473 170.552 41.3526 170.323 41.3633 170.152C41.3953 169.437 41.5553 168.808 41.8433 168.264C42.1419 167.72 42.5633 167.293 43.1073 166.984C43.6513 166.675 44.3233 166.52 45.1233 166.52C45.9233 166.52 46.5953 166.675 47.1393 166.984C47.6833 167.293 48.0993 167.72 48.3873 168.264C48.6859 168.808 48.8513 169.437 48.8833 170.152C48.8939 170.323 48.8993 170.552 48.8993 170.84C48.8993 171.117 48.8939 171.347 48.8833 171.528C48.8513 172.232 48.6913 172.861 48.4033 173.416C48.1153 173.96 47.6993 174.387 47.1553 174.696C46.6113 175.005 45.9339 175.16 45.1233 175.16ZM45.1233 173.928C45.7846 173.928 46.3126 173.72 46.7073 173.304C47.1019 172.877 47.3153 172.259 47.3473 171.448C47.3579 171.288 47.3633 171.085 47.3633 170.84C47.3633 170.595 47.3579 170.392 47.3473 170.232C47.3153 169.421 47.1019 168.808 46.7073 168.392C46.3126 167.965 45.7846 167.752 45.1233 167.752C44.4619 167.752 43.9286 167.965 43.5233 168.392C43.1286 168.808 42.9206 169.421 42.8993 170.232C42.8886 170.392 42.8832 170.595 42.8832 170.84C42.8832 171.085 42.8886 171.288 42.8993 171.448C42.9206 172.259 43.1286 172.877 43.5233 173.304C43.9286 173.72 44.4619 173.928 45.1233 173.928ZM54.0068 175.16C53.3241 175.16 52.7428 175.011 52.2628 174.712C51.7934 174.403 51.4361 173.976 51.1908 173.432C50.9454 172.888 50.8228 172.264 50.8228 171.56V167.048C50.8228 166.941 50.8548 166.856 50.9188 166.792C50.9934 166.717 51.0841 166.68 51.1908 166.68H51.9908C52.0974 166.68 52.1828 166.717 52.2468 166.792C52.3214 166.856 52.3588 166.941 52.3588 167.048V171.48C52.3588 173.069 53.0521 173.864 54.4388 173.864C55.1001 173.864 55.6281 173.656 56.0228 173.24C56.4281 172.813 56.6308 172.227 56.6308 171.48V167.048C56.6308 166.941 56.6628 166.856 56.7268 166.792C56.8014 166.717 56.8921 166.68 56.9988 166.68H57.7828C57.9001 166.68 57.9908 166.717 58.0548 166.792C58.1188 166.856 58.1508 166.941 58.1508 167.048V174.632C58.1508 174.739 58.1188 174.829 58.0548 174.904C57.9908 174.968 57.9001 175 57.7828 175H57.0468C56.9401 175 56.8494 174.968 56.7748 174.904C56.7108 174.829 56.6788 174.739 56.6788 174.632V173.928C56.3908 174.301 56.0388 174.6 55.6228 174.824C55.2174 175.048 54.6788 175.16 54.0068 175.16ZM60.8958 175C60.7891 175 60.6984 174.968 60.6238 174.904C60.5598 174.829 60.5278 174.739 60.5278 174.632V167.064C60.5278 166.957 60.5598 166.867 60.6238 166.792C60.6984 166.717 60.7891 166.68 60.8958 166.68H61.6318C61.7384 166.68 61.8291 166.717 61.9038 166.792C61.9784 166.867 62.0158 166.957 62.0158 167.064V167.768C62.2291 167.405 62.5224 167.133 62.8958 166.952C63.2691 166.771 63.7171 166.68 64.2398 166.68H64.8798C64.9864 166.68 65.0718 166.717 65.1358 166.792C65.1998 166.856 65.2318 166.941 65.2318 167.048V167.704C65.2318 167.811 65.1998 167.896 65.1358 167.96C65.0718 168.024 64.9864 168.056 64.8798 168.056H63.9198C63.3438 168.056 62.8904 168.227 62.5598 168.568C62.2291 168.899 62.0638 169.352 62.0638 169.928V174.632C62.0638 174.739 62.0264 174.829 61.9518 174.904C61.8771 174.968 61.7864 175 61.6798 175H60.8958ZM70.5368 178.04C70.4301 178.04 70.3394 178.003 70.2648 177.928C70.2008 177.864 70.1688 177.779 70.1688 177.672V167.048C70.1688 166.941 70.2008 166.856 70.2648 166.792C70.3394 166.717 70.4301 166.68 70.5368 166.68H71.2728C71.3794 166.68 71.4648 166.717 71.5288 166.792C71.6034 166.856 71.6408 166.941 71.6408 167.048V167.752C71.8968 167.4 72.2381 167.107 72.6648 166.872C73.0914 166.637 73.6248 166.52 74.2648 166.52C74.8621 166.52 75.3688 166.621 75.7848 166.824C76.2114 167.027 76.5581 167.304 76.8248 167.656C77.1021 168.008 77.3101 168.408 77.4488 168.856C77.5874 169.304 77.6621 169.784 77.6728 170.296C77.6834 170.467 77.6888 170.648 77.6888 170.84C77.6888 171.032 77.6834 171.213 77.6728 171.384C77.6621 171.885 77.5874 172.365 77.4488 172.824C77.3101 173.272 77.1021 173.672 76.8248 174.024C76.5581 174.365 76.2114 174.643 75.7848 174.856C75.3688 175.059 74.8621 175.16 74.2648 175.16C73.6461 175.16 73.1234 175.048 72.6968 174.824C72.2808 174.589 71.9394 174.301 71.6728 173.96V177.672C71.6728 177.779 71.6408 177.864 71.5768 177.928C71.5128 178.003 71.4221 178.04 71.3048 178.04H70.5368ZM73.9288 173.864C74.4834 173.864 74.9154 173.747 75.2248 173.512C75.5448 173.267 75.7741 172.952 75.9128 172.568C76.0514 172.173 76.1314 171.752 76.1528 171.304C76.1634 170.995 76.1634 170.685 76.1528 170.376C76.1314 169.928 76.0514 169.512 75.9128 169.128C75.7741 168.733 75.5448 168.419 75.2248 168.184C74.9154 167.939 74.4834 167.816 73.9288 167.816C73.4061 167.816 72.9794 167.939 72.6488 168.184C72.3288 168.429 72.0888 168.744 71.9288 169.128C71.7794 169.501 71.6941 169.885 71.6728 170.28C71.6621 170.451 71.6568 170.653 71.6568 170.888C71.6568 171.123 71.6621 171.331 71.6728 171.512C71.6834 171.885 71.7688 172.253 71.9288 172.616C72.0994 172.979 72.3501 173.277 72.6808 173.512C73.0114 173.747 73.4274 173.864 73.9288 173.864ZM82.996 175.16C81.8973 175.16 81.0227 174.824 80.372 174.152C79.7213 173.469 79.364 172.541 79.3 171.368C79.2893 171.229 79.284 171.053 79.284 170.84C79.284 170.616 79.2893 170.435 79.3 170.296C79.3427 169.539 79.5187 168.877 79.828 168.312C80.1373 167.736 80.5587 167.293 81.092 166.984C81.636 166.675 82.2707 166.52 82.996 166.52C83.8067 166.52 84.484 166.691 85.028 167.032C85.5827 167.373 86.004 167.859 86.292 168.488C86.58 169.117 86.724 169.853 86.724 170.696V170.968C86.724 171.085 86.6867 171.176 86.612 171.24C86.548 171.304 86.4627 171.336 86.356 171.336H80.82C80.82 171.347 80.82 171.368 80.82 171.4C80.82 171.432 80.82 171.459 80.82 171.48C80.8413 171.917 80.9373 172.328 81.108 172.712C81.2787 173.085 81.524 173.389 81.844 173.624C82.164 173.859 82.548 173.976 82.996 173.976C83.38 173.976 83.7 173.917 83.956 173.8C84.212 173.683 84.42 173.555 84.58 173.416C84.74 173.267 84.8467 173.155 84.9 173.08C84.996 172.941 85.0707 172.861 85.124 172.84C85.1773 172.808 85.2627 172.792 85.38 172.792H86.148C86.2547 172.792 86.34 172.824 86.404 172.888C86.4787 172.941 86.5107 173.021 86.5 173.128C86.4893 173.288 86.404 173.485 86.244 173.72C86.084 173.944 85.8547 174.168 85.556 174.392C85.2573 174.616 84.8947 174.803 84.468 174.952C84.0413 175.091 83.5507 175.16 82.996 175.16ZM80.82 170.232H85.204V170.184C85.204 169.704 85.1133 169.277 84.932 168.904C84.7613 168.531 84.5107 168.237 84.18 168.024C83.8493 167.8 83.4547 167.688 82.996 167.688C82.5373 167.688 82.1427 167.8 81.812 168.024C81.492 168.237 81.2467 168.531 81.076 168.904C80.9053 169.277 80.82 169.704 80.82 170.184V170.232ZM91.8383 175C91.2409 175 90.7556 174.888 90.3823 174.664C90.0089 174.429 89.7369 174.104 89.5663 173.688C89.3956 173.261 89.3103 172.76 89.3103 172.184V167.96H88.0623C87.9556 167.96 87.8649 167.928 87.7903 167.864C87.7263 167.789 87.6943 167.699 87.6943 167.592V167.048C87.6943 166.941 87.7263 166.856 87.7903 166.792C87.8649 166.717 87.9556 166.68 88.0623 166.68H89.3103V164.008C89.3103 163.901 89.3423 163.816 89.4062 163.752C89.4809 163.677 89.5716 163.64 89.6783 163.64H90.4303C90.5369 163.64 90.6223 163.677 90.6863 163.752C90.7609 163.816 90.7983 163.901 90.7983 164.008V166.68H92.7823C92.8889 166.68 92.9743 166.717 93.0383 166.792C93.1129 166.856 93.1503 166.941 93.1503 167.048V167.592C93.1503 167.699 93.1129 167.789 93.0383 167.864C92.9743 167.928 92.8889 167.96 92.7823 167.96H90.7983V172.072C90.7983 172.573 90.8836 172.968 91.0543 173.256C91.2249 173.544 91.5289 173.688 91.9663 173.688H92.9423C93.0489 173.688 93.1343 173.725 93.1983 173.8C93.2729 173.864 93.3103 173.949 93.3103 174.056V174.632C93.3103 174.739 93.2729 174.829 93.1983 174.904C93.1343 174.968 93.0489 175 92.9423 175H91.8383ZM99.1301 175C99.0235 175 98.9328 174.968 98.8581 174.904C98.7941 174.829 98.7621 174.739 98.7621 174.632V167.048C98.7621 166.941 98.7941 166.856 98.8581 166.792C98.9328 166.717 99.0235 166.68 99.1301 166.68H99.8501C99.9568 166.68 100.042 166.717 100.106 166.792C100.181 166.856 100.218 166.941 100.218 167.048V167.608C100.463 167.277 100.773 167.016 101.146 166.824C101.519 166.621 101.967 166.52 102.49 166.52C103.695 166.509 104.549 167 105.05 167.992C105.295 167.544 105.653 167.187 106.122 166.92C106.591 166.653 107.125 166.52 107.722 166.52C108.277 166.52 108.778 166.648 109.226 166.904C109.685 167.16 110.042 167.549 110.298 168.072C110.565 168.584 110.698 169.229 110.698 170.008V174.632C110.698 174.739 110.661 174.829 110.586 174.904C110.522 174.968 110.437 175 110.33 175H109.578C109.471 175 109.381 174.968 109.306 174.904C109.242 174.829 109.21 174.739 109.21 174.632V170.152C109.21 169.555 109.125 169.085 108.954 168.744C108.783 168.403 108.554 168.163 108.266 168.024C107.978 167.885 107.663 167.816 107.322 167.816C107.045 167.816 106.762 167.885 106.474 168.024C106.186 168.163 105.946 168.403 105.754 168.744C105.573 169.085 105.482 169.555 105.482 170.152V174.632C105.482 174.739 105.445 174.829 105.37 174.904C105.306 174.968 105.221 175 105.114 175H104.362C104.255 175 104.165 174.968 104.09 174.904C104.026 174.829 103.994 174.739 103.994 174.632V170.152C103.994 169.555 103.903 169.085 103.722 168.744C103.541 168.403 103.306 168.163 103.018 168.024C102.73 167.885 102.426 167.816 102.106 167.816C101.829 167.816 101.546 167.885 101.258 168.024C100.97 168.163 100.73 168.403 100.538 168.744C100.357 169.085 100.266 169.549 100.266 170.136V174.632C100.266 174.739 100.229 174.829 100.154 174.904C100.09 174.968 100.005 175 99.8981 175H99.1301ZM115.301 175.16C114.768 175.16 114.282 175.053 113.845 174.84C113.408 174.627 113.056 174.339 112.789 173.976C112.522 173.613 112.389 173.203 112.389 172.744C112.389 172.008 112.688 171.421 113.285 170.984C113.882 170.547 114.661 170.259 115.621 170.12L118.005 169.784V169.32C118.005 168.808 117.856 168.408 117.557 168.12C117.269 167.832 116.794 167.688 116.133 167.688C115.653 167.688 115.264 167.784 114.965 167.976C114.677 168.168 114.474 168.413 114.357 168.712C114.293 168.872 114.181 168.952 114.021 168.952H113.301C113.184 168.952 113.093 168.92 113.029 168.856C112.976 168.781 112.949 168.696 112.949 168.6C112.949 168.44 113.008 168.243 113.125 168.008C113.253 167.773 113.445 167.544 113.701 167.32C113.957 167.096 114.282 166.909 114.677 166.76C115.082 166.6 115.573 166.52 116.149 166.52C116.789 166.52 117.328 166.605 117.765 166.776C118.202 166.936 118.544 167.155 118.789 167.432C119.045 167.709 119.226 168.024 119.333 168.376C119.45 168.728 119.509 169.085 119.509 169.448V174.632C119.509 174.739 119.472 174.829 119.397 174.904C119.333 174.968 119.248 175 119.141 175H118.405C118.288 175 118.197 174.968 118.133 174.904C118.069 174.829 118.037 174.739 118.037 174.632V173.944C117.898 174.136 117.712 174.328 117.477 174.52C117.242 174.701 116.949 174.856 116.597 174.984C116.245 175.101 115.813 175.16 115.301 175.16ZM115.637 173.96C116.074 173.96 116.474 173.869 116.837 173.688C117.2 173.496 117.482 173.203 117.685 172.808C117.898 172.413 118.005 171.917 118.005 171.32V170.872L116.149 171.144C115.392 171.251 114.821 171.432 114.437 171.688C114.053 171.933 113.861 172.248 113.861 172.632C113.861 172.931 113.946 173.181 114.117 173.384C114.298 173.576 114.522 173.72 114.789 173.816C115.066 173.912 115.349 173.96 115.637 173.96ZM122.193 175C122.086 175 121.996 174.968 121.921 174.904C121.857 174.829 121.825 174.739 121.825 174.632V164.008C121.825 163.901 121.857 163.816 121.921 163.752C121.996 163.677 122.086 163.64 122.193 163.64H122.945C123.052 163.64 123.137 163.677 123.201 163.752C123.276 163.816 123.313 163.901 123.313 164.008V169.576L126.465 166.952C126.593 166.845 126.689 166.776 126.753 166.744C126.828 166.701 126.945 166.68 127.105 166.68H127.953C128.049 166.68 128.129 166.712 128.193 166.776C128.257 166.84 128.289 166.92 128.289 167.016C128.289 167.059 128.273 167.107 128.241 167.16C128.22 167.213 128.172 167.267 128.097 167.32L124.401 170.392L128.497 174.376C128.625 174.483 128.689 174.579 128.689 174.664C128.689 174.76 128.657 174.84 128.593 174.904C128.529 174.968 128.449 175 128.353 175H127.521C127.361 175 127.244 174.984 127.169 174.952C127.094 174.909 126.998 174.835 126.881 174.728L123.313 171.32V174.632C123.313 174.739 123.276 174.829 123.201 174.904C123.137 174.968 123.052 175 122.945 175H122.193ZM132.98 175.16C131.882 175.16 131.007 174.824 130.356 174.152C129.706 173.469 129.348 172.541 129.284 171.368C129.274 171.229 129.268 171.053 129.268 170.84C129.268 170.616 129.274 170.435 129.284 170.296C129.327 169.539 129.503 168.877 129.812 168.312C130.122 167.736 130.543 167.293 131.076 166.984C131.62 166.675 132.255 166.52 132.98 166.52C133.791 166.52 134.468 166.691 135.012 167.032C135.567 167.373 135.988 167.859 136.276 168.488C136.564 169.117 136.708 169.853 136.708 170.696V170.968C136.708 171.085 136.671 171.176 136.596 171.24C136.532 171.304 136.447 171.336 136.34 171.336H130.804C130.804 171.347 130.804 171.368 130.804 171.4C130.804 171.432 130.804 171.459 130.804 171.48C130.826 171.917 130.922 172.328 131.092 172.712C131.263 173.085 131.508 173.389 131.828 173.624C132.148 173.859 132.532 173.976 132.98 173.976C133.364 173.976 133.684 173.917 133.94 173.8C134.196 173.683 134.404 173.555 134.564 173.416C134.724 173.267 134.831 173.155 134.884 173.08C134.98 172.941 135.055 172.861 135.108 172.84C135.162 172.808 135.247 172.792 135.364 172.792H136.132C136.239 172.792 136.324 172.824 136.388 172.888C136.463 172.941 136.495 173.021 136.484 173.128C136.474 173.288 136.388 173.485 136.228 173.72C136.068 173.944 135.839 174.168 135.54 174.392C135.242 174.616 134.879 174.803 134.452 174.952C134.026 175.091 133.535 175.16 132.98 175.16ZM130.804 170.232H135.188V170.184C135.188 169.704 135.098 169.277 134.916 168.904C134.746 168.531 134.495 168.237 134.164 168.024C133.834 167.8 133.439 167.688 132.98 167.688C132.522 167.688 132.127 167.8 131.796 168.024C131.476 168.237 131.231 168.531 131.06 168.904C130.89 169.277 130.804 169.704 130.804 170.184V170.232ZM141.502 175.16C140.904 175.16 140.392 175.085 139.966 174.936C139.539 174.787 139.192 174.605 138.926 174.392C138.659 174.179 138.456 173.965 138.318 173.752C138.19 173.539 138.12 173.368 138.11 173.24C138.099 173.123 138.136 173.032 138.222 172.968C138.307 172.904 138.392 172.872 138.478 172.872H139.182C139.246 172.872 139.294 172.883 139.326 172.904C139.368 172.915 139.422 172.957 139.486 173.032C139.624 173.181 139.779 173.331 139.95 173.48C140.12 173.629 140.328 173.752 140.574 173.848C140.83 173.944 141.144 173.992 141.518 173.992C142.062 173.992 142.51 173.891 142.862 173.688C143.214 173.475 143.39 173.165 143.39 172.76C143.39 172.493 143.315 172.28 143.166 172.12C143.027 171.96 142.771 171.816 142.398 171.688C142.035 171.56 141.534 171.427 140.894 171.288C140.254 171.139 139.747 170.957 139.374 170.744C139 170.52 138.734 170.259 138.574 169.96C138.414 169.651 138.334 169.304 138.334 168.92C138.334 168.525 138.451 168.147 138.686 167.784C138.92 167.411 139.262 167.107 139.71 166.872C140.168 166.637 140.739 166.52 141.422 166.52C141.976 166.52 142.451 166.589 142.846 166.728C143.24 166.867 143.566 167.043 143.822 167.256C144.078 167.459 144.27 167.661 144.398 167.864C144.526 168.067 144.595 168.237 144.606 168.376C144.616 168.483 144.584 168.573 144.51 168.648C144.435 168.712 144.35 168.744 144.254 168.744H143.582C143.507 168.744 143.443 168.728 143.39 168.696C143.347 168.664 143.304 168.627 143.262 168.584C143.155 168.445 143.027 168.307 142.878 168.168C142.739 168.029 142.552 167.917 142.318 167.832C142.094 167.736 141.795 167.688 141.422 167.688C140.888 167.688 140.488 167.8 140.222 168.024C139.955 168.248 139.822 168.531 139.822 168.872C139.822 169.075 139.88 169.256 139.998 169.416C140.115 169.576 140.339 169.72 140.67 169.848C141 169.976 141.491 170.115 142.141 170.264C142.846 170.403 143.4 170.589 143.806 170.824C144.211 171.059 144.499 171.331 144.67 171.64C144.84 171.949 144.926 172.307 144.926 172.712C144.926 173.16 144.792 173.571 144.526 173.944C144.27 174.317 143.886 174.616 143.374 174.84C142.872 175.053 142.248 175.16 141.502 175.16ZM153.02 175.16C152.486 175.16 152.001 175.053 151.564 174.84C151.126 174.627 150.774 174.339 150.508 173.976C150.241 173.613 150.108 173.203 150.108 172.744C150.108 172.008 150.406 171.421 151.004 170.984C151.601 170.547 152.38 170.259 153.34 170.12L155.724 169.784V169.32C155.724 168.808 155.574 168.408 155.276 168.12C154.988 167.832 154.513 167.688 153.852 167.688C153.372 167.688 152.982 167.784 152.684 167.976C152.396 168.168 152.193 168.413 152.076 168.712C152.012 168.872 151.9 168.952 151.74 168.952H151.02C150.902 168.952 150.812 168.92 150.748 168.856C150.694 168.781 150.668 168.696 150.668 168.6C150.668 168.44 150.726 168.243 150.844 168.008C150.972 167.773 151.164 167.544 151.42 167.32C151.676 167.096 152.001 166.909 152.396 166.76C152.801 166.6 153.292 166.52 153.868 166.52C154.508 166.52 155.046 166.605 155.484 166.776C155.921 166.936 156.262 167.155 156.508 167.432C156.764 167.709 156.945 168.024 157.052 168.376C157.169 168.728 157.228 169.085 157.228 169.448V174.632C157.228 174.739 157.19 174.829 157.116 174.904C157.052 174.968 156.966 175 156.86 175H156.124C156.006 175 155.916 174.968 155.852 174.904C155.788 174.829 155.756 174.739 155.756 174.632V173.944C155.617 174.136 155.43 174.328 155.196 174.52C154.961 174.701 154.668 174.856 154.316 174.984C153.964 175.101 153.532 175.16 153.02 175.16ZM153.356 173.96C153.793 173.96 154.193 173.869 154.556 173.688C154.918 173.496 155.201 173.203 155.404 172.808C155.617 172.413 155.724 171.917 155.724 171.32V170.872L153.868 171.144C153.11 171.251 152.54 171.432 152.156 171.688C151.772 171.933 151.58 172.248 151.58 172.632C151.58 172.931 151.665 173.181 151.836 173.384C152.017 173.576 152.241 173.72 152.508 173.816C152.785 173.912 153.068 173.96 153.356 173.96ZM159.896 175C159.789 175 159.698 174.968 159.624 174.904C159.56 174.829 159.528 174.739 159.528 174.632V167.048C159.528 166.941 159.56 166.856 159.624 166.792C159.698 166.717 159.789 166.68 159.896 166.68H160.648C160.754 166.68 160.84 166.717 160.904 166.792C160.978 166.856 161.016 166.941 161.016 167.048V167.752C161.293 167.389 161.64 167.096 162.056 166.872C162.482 166.637 163.026 166.52 163.688 166.52C164.381 166.52 164.968 166.675 165.448 166.984C165.938 167.283 166.306 167.704 166.552 168.248C166.797 168.781 166.92 169.405 166.92 170.12V174.632C166.92 174.739 166.888 174.829 166.824 174.904C166.76 174.968 166.674 175 166.568 175H165.768C165.661 175 165.57 174.968 165.496 174.904C165.432 174.829 165.4 174.739 165.4 174.632V170.2C165.4 169.453 165.218 168.872 164.856 168.456C164.493 168.029 163.96 167.816 163.256 167.816C162.594 167.816 162.061 168.029 161.656 168.456C161.261 168.872 161.064 169.453 161.064 170.2V174.632C161.064 174.739 161.026 174.829 160.952 174.904C160.888 174.968 160.802 175 160.696 175H159.896ZM172.271 175.16C171.684 175.16 171.178 175.059 170.751 174.856C170.324 174.643 169.972 174.36 169.695 174.008C169.428 173.645 169.226 173.235 169.087 172.776C168.959 172.317 168.884 171.832 168.863 171.32C168.852 171.149 168.847 170.989 168.847 170.84C168.847 170.691 168.852 170.531 168.863 170.36C168.884 169.859 168.959 169.379 169.087 168.92C169.226 168.461 169.428 168.051 169.695 167.688C169.972 167.325 170.324 167.043 170.751 166.84C171.178 166.627 171.684 166.52 172.271 166.52C172.9 166.52 173.423 166.632 173.839 166.856C174.255 167.08 174.596 167.357 174.863 167.688V164.008C174.863 163.901 174.895 163.816 174.959 163.752C175.034 163.677 175.124 163.64 175.231 163.64H175.999C176.106 163.64 176.191 163.677 176.255 163.752C176.33 163.816 176.367 163.901 176.367 164.008V174.632C176.367 174.739 176.33 174.829 176.255 174.904C176.191 174.968 176.106 175 175.999 175H175.279C175.162 175 175.071 174.968 175.007 174.904C174.943 174.829 174.911 174.739 174.911 174.632V173.96C174.644 174.301 174.298 174.589 173.871 174.824C173.444 175.048 172.911 175.16 172.271 175.16ZM172.607 173.864C173.14 173.864 173.567 173.741 173.887 173.496C174.207 173.251 174.447 172.941 174.607 172.568C174.767 172.184 174.852 171.795 174.863 171.4C174.874 171.229 174.879 171.027 174.879 170.792C174.879 170.547 174.874 170.339 174.863 170.168C174.852 169.795 174.762 169.427 174.591 169.064C174.431 168.701 174.186 168.403 173.855 168.168C173.535 167.933 173.119 167.816 172.607 167.816C172.063 167.816 171.631 167.939 171.311 168.184C170.991 168.419 170.762 168.733 170.623 169.128C170.484 169.512 170.404 169.928 170.383 170.376C170.372 170.685 170.372 170.995 170.383 171.304C170.404 171.752 170.484 172.173 170.623 172.568C170.762 172.952 170.991 173.267 171.311 173.512C171.631 173.747 172.063 173.864 172.607 173.864ZM33.552 194C33.4453 194 33.3547 193.968 33.28 193.904C33.216 193.829 33.184 193.739 33.184 193.632V186.048C33.184 185.941 33.216 185.856 33.28 185.792C33.3547 185.717 33.4453 185.68 33.552 185.68H34.32C34.4267 185.68 34.512 185.717 34.576 185.792C34.64 185.856 34.672 185.941 34.672 186.048V193.632C34.672 193.739 34.64 193.829 34.576 193.904C34.512 193.968 34.4267 194 34.32 194H33.552ZM33.424 184.128C33.3173 184.128 33.2267 184.096 33.152 184.032C33.088 183.957 33.056 183.867 33.056 183.76V182.896C33.056 182.789 33.088 182.704 33.152 182.64C33.2267 182.565 33.3173 182.528 33.424 182.528H34.432C34.5387 182.528 34.624 182.565 34.688 182.64C34.7627 182.704 34.8 182.789 34.8 182.896V183.76C34.8 183.867 34.7627 183.957 34.688 184.032C34.624 184.096 34.5387 184.128 34.432 184.128H33.424ZM37.5833 194C37.4766 194 37.3859 193.968 37.3113 193.904C37.2473 193.829 37.2153 193.739 37.2153 193.632V186.048C37.2153 185.941 37.2473 185.856 37.3113 185.792C37.3859 185.717 37.4766 185.68 37.5833 185.68H38.3353C38.4419 185.68 38.5273 185.717 38.5913 185.792C38.6659 185.856 38.7033 185.941 38.7033 186.048V186.752C38.9806 186.389 39.3273 186.096 39.7433 185.872C40.1699 185.637 40.7139 185.52 41.3753 185.52C42.0686 185.52 42.6553 185.675 43.1353 185.984C43.6259 186.283 43.9939 186.704 44.2393 187.248C44.4846 187.781 44.6073 188.405 44.6073 189.12V193.632C44.6073 193.739 44.5753 193.829 44.5113 193.904C44.4473 193.968 44.3619 194 44.2552 194H43.4553C43.3486 194 43.2579 193.968 43.1833 193.904C43.1193 193.829 43.0873 193.739 43.0873 193.632V189.2C43.0873 188.453 42.9059 187.872 42.5433 187.456C42.1806 187.029 41.6473 186.816 40.9433 186.816C40.2819 186.816 39.7486 187.029 39.3433 187.456C38.9486 187.872 38.7513 188.453 38.7513 189.2V193.632C38.7513 193.739 38.7139 193.829 38.6393 193.904C38.5753 193.968 38.4899 194 38.3832 194H37.5833ZM50.057 194C49.4597 194 48.9743 193.888 48.601 193.664C48.2277 193.429 47.9557 193.104 47.785 192.688C47.6143 192.261 47.529 191.76 47.529 191.184V186.96H46.281C46.1743 186.96 46.0837 186.928 46.009 186.864C45.945 186.789 45.913 186.699 45.913 186.592V186.048C45.913 185.941 45.945 185.856 46.009 185.792C46.0837 185.717 46.1743 185.68 46.281 185.68H47.529V183.008C47.529 182.901 47.561 182.816 47.625 182.752C47.6997 182.677 47.7903 182.64 47.897 182.64H48.649C48.7557 182.64 48.841 182.677 48.905 182.752C48.9797 182.816 49.017 182.901 49.017 183.008V185.68H51.001C51.1077 185.68 51.193 185.717 51.257 185.792C51.3317 185.856 51.369 185.941 51.369 186.048V186.592C51.369 186.699 51.3317 186.789 51.257 186.864C51.193 186.928 51.1077 186.96 51.001 186.96H49.017V191.072C49.017 191.573 49.1023 191.968 49.273 192.256C49.4437 192.544 49.7477 192.688 50.185 192.688H51.161C51.2677 192.688 51.353 192.725 51.417 192.8C51.4917 192.864 51.529 192.949 51.529 193.056V193.632C51.529 193.739 51.4917 193.829 51.417 193.904C51.353 193.968 51.2677 194 51.161 194H50.057ZM56.371 194.16C55.2723 194.16 54.3977 193.824 53.747 193.152C53.0963 192.469 52.739 191.541 52.675 190.368C52.6643 190.229 52.659 190.053 52.659 189.84C52.659 189.616 52.6643 189.435 52.675 189.296C52.7177 188.539 52.8937 187.877 53.203 187.312C53.5123 186.736 53.9337 186.293 54.467 185.984C55.011 185.675 55.6457 185.52 56.371 185.52C57.1817 185.52 57.859 185.691 58.403 186.032C58.9577 186.373 59.379 186.859 59.667 187.488C59.955 188.117 60.099 188.853 60.099 189.696V189.968C60.099 190.085 60.0617 190.176 59.987 190.24C59.923 190.304 59.8377 190.336 59.731 190.336H54.195C54.195 190.347 54.195 190.368 54.195 190.4C54.195 190.432 54.195 190.459 54.195 190.48C54.2163 190.917 54.3123 191.328 54.483 191.712C54.6537 192.085 54.899 192.389 55.219 192.624C55.539 192.859 55.923 192.976 56.371 192.976C56.755 192.976 57.075 192.917 57.331 192.8C57.587 192.683 57.795 192.555 57.955 192.416C58.115 192.267 58.2217 192.155 58.275 192.08C58.371 191.941 58.4457 191.861 58.499 191.84C58.5523 191.808 58.6377 191.792 58.755 191.792H59.523C59.6297 191.792 59.715 191.824 59.779 191.888C59.8537 191.941 59.8857 192.021 59.875 192.128C59.8643 192.288 59.779 192.485 59.619 192.72C59.459 192.944 59.2297 193.168 58.931 193.392C58.6323 193.616 58.2697 193.803 57.843 193.952C57.4163 194.091 56.9257 194.16 56.371 194.16ZM54.195 189.232H58.579V189.184C58.579 188.704 58.4883 188.277 58.307 187.904C58.1363 187.531 57.8857 187.237 57.555 187.024C57.2243 186.8 56.8297 186.688 56.371 186.688C55.9123 186.688 55.5177 186.8 55.187 187.024C54.867 187.237 54.6217 187.531 54.451 187.904C54.2803 188.277 54.195 188.704 54.195 189.184V189.232ZM62.3801 194C62.2735 194 62.1828 193.968 62.1081 193.904C62.0441 193.829 62.0121 193.739 62.0121 193.632V186.064C62.0121 185.957 62.0441 185.867 62.1081 185.792C62.1828 185.717 62.2735 185.68 62.3801 185.68H63.1161C63.2228 185.68 63.3135 185.717 63.3881 185.792C63.4628 185.867 63.5001 185.957 63.5001 186.064V186.768C63.7135 186.405 64.0068 186.133 64.3801 185.952C64.7535 185.771 65.2015 185.68 65.7241 185.68H66.3641C66.4708 185.68 66.5561 185.717 66.6201 185.792C66.6841 185.856 66.7161 185.941 66.7161 186.048V186.704C66.7161 186.811 66.6841 186.896 66.6201 186.96C66.5561 187.024 66.4708 187.056 66.3641 187.056H65.4041C64.8281 187.056 64.3748 187.227 64.0441 187.568C63.7135 187.899 63.5481 188.352 63.5481 188.928V193.632C63.5481 193.739 63.5108 193.829 63.4361 193.904C63.3615 193.968 63.2708 194 63.1641 194H62.3801ZM68.4743 197.04C68.3676 197.04 68.2769 197.003 68.2023 196.928C68.1383 196.864 68.1063 196.779 68.1063 196.672V186.048C68.1063 185.941 68.1383 185.856 68.2023 185.792C68.2769 185.717 68.3676 185.68 68.4743 185.68H69.2103C69.3169 185.68 69.4023 185.717 69.4663 185.792C69.5409 185.856 69.5783 185.941 69.5783 186.048V186.752C69.8343 186.4 70.1756 186.107 70.6023 185.872C71.0289 185.637 71.5623 185.52 72.2023 185.52C72.7996 185.52 73.3063 185.621 73.7223 185.824C74.1489 186.027 74.4956 186.304 74.7623 186.656C75.0396 187.008 75.2476 187.408 75.3863 187.856C75.5249 188.304 75.5996 188.784 75.6103 189.296C75.6209 189.467 75.6263 189.648 75.6263 189.84C75.6263 190.032 75.6209 190.213 75.6103 190.384C75.5996 190.885 75.5249 191.365 75.3863 191.824C75.2476 192.272 75.0396 192.672 74.7623 193.024C74.4956 193.365 74.1489 193.643 73.7223 193.856C73.3063 194.059 72.7996 194.16 72.2023 194.16C71.5836 194.16 71.0609 194.048 70.6343 193.824C70.2183 193.589 69.8769 193.301 69.6103 192.96V196.672C69.6103 196.779 69.5783 196.864 69.5143 196.928C69.4503 197.003 69.3596 197.04 69.2423 197.04H68.4743ZM71.8663 192.864C72.4209 192.864 72.8529 192.747 73.1623 192.512C73.4823 192.267 73.7116 191.952 73.8503 191.568C73.9889 191.173 74.0689 190.752 74.0903 190.304C74.1009 189.995 74.1009 189.685 74.0903 189.376C74.0689 188.928 73.9889 188.512 73.8503 188.128C73.7116 187.733 73.4823 187.419 73.1623 187.184C72.8529 186.939 72.4209 186.816 71.8663 186.816C71.3436 186.816 70.9169 186.939 70.5863 187.184C70.2663 187.429 70.0263 187.744 69.8663 188.128C69.7169 188.501 69.6316 188.885 69.6103 189.28C69.5996 189.451 69.5943 189.653 69.5943 189.888C69.5943 190.123 69.5996 190.331 69.6103 190.512C69.6209 190.885 69.7063 191.253 69.8663 191.616C70.0369 191.979 70.2876 192.277 70.6183 192.512C70.9489 192.747 71.3649 192.864 71.8663 192.864ZM77.9895 194C77.8828 194 77.7922 193.968 77.7175 193.904C77.6535 193.829 77.6215 193.739 77.6215 193.632V186.064C77.6215 185.957 77.6535 185.867 77.7175 185.792C77.7922 185.717 77.8828 185.68 77.9895 185.68H78.7255C78.8322 185.68 78.9228 185.717 78.9975 185.792C79.0722 185.867 79.1095 185.957 79.1095 186.064V186.768C79.3228 186.405 79.6162 186.133 79.9895 185.952C80.3628 185.771 80.8108 185.68 81.3335 185.68H81.9735C82.0802 185.68 82.1655 185.717 82.2295 185.792C82.2935 185.856 82.3255 185.941 82.3255 186.048V186.704C82.3255 186.811 82.2935 186.896 82.2295 186.96C82.1655 187.024 82.0802 187.056 81.9735 187.056H81.0135C80.4375 187.056 79.9842 187.227 79.6535 187.568C79.3228 187.899 79.1575 188.352 79.1575 188.928V193.632C79.1575 193.739 79.1202 193.829 79.0455 193.904C78.9708 193.968 78.8802 194 78.7735 194H77.9895ZM86.8554 194.16C85.7567 194.16 84.882 193.824 84.2314 193.152C83.5807 192.469 83.2234 191.541 83.1594 190.368C83.1487 190.229 83.1434 190.053 83.1434 189.84C83.1434 189.616 83.1487 189.435 83.1594 189.296C83.202 188.539 83.378 187.877 83.6874 187.312C83.9967 186.736 84.418 186.293 84.9514 185.984C85.4954 185.675 86.13 185.52 86.8554 185.52C87.666 185.52 88.3434 185.691 88.8874 186.032C89.442 186.373 89.8634 186.859 90.1514 187.488C90.4394 188.117 90.5834 188.853 90.5834 189.696V189.968C90.5834 190.085 90.546 190.176 90.4714 190.24C90.4074 190.304 90.322 190.336 90.2154 190.336H84.6794C84.6794 190.347 84.6794 190.368 84.6794 190.4C84.6794 190.432 84.6794 190.459 84.6794 190.48C84.7007 190.917 84.7967 191.328 84.9674 191.712C85.138 192.085 85.3834 192.389 85.7034 192.624C86.0234 192.859 86.4074 192.976 86.8554 192.976C87.2394 192.976 87.5594 192.917 87.8154 192.8C88.0714 192.683 88.2794 192.555 88.4394 192.416C88.5994 192.267 88.706 192.155 88.7594 192.08C88.8554 191.941 88.93 191.861 88.9834 191.84C89.0367 191.808 89.122 191.792 89.2394 191.792H90.0074C90.114 191.792 90.1994 191.824 90.2634 191.888C90.338 191.941 90.37 192.021 90.3594 192.128C90.3487 192.288 90.2634 192.485 90.1034 192.72C89.9434 192.944 89.714 193.168 89.4154 193.392C89.1167 193.616 88.754 193.803 88.3274 193.952C87.9007 194.091 87.41 194.16 86.8554 194.16ZM84.6794 189.232H89.0634V189.184C89.0634 188.704 88.9727 188.277 88.7914 187.904C88.6207 187.531 88.37 187.237 88.0394 187.024C87.7087 186.8 87.314 186.688 86.8554 186.688C86.3967 186.688 86.002 186.8 85.6714 187.024C85.3514 187.237 85.106 187.531 84.9354 187.904C84.7647 188.277 84.6794 188.704 84.6794 189.184V189.232ZM95.6976 194C95.1003 194 94.615 193.888 94.2416 193.664C93.8683 193.429 93.5963 193.104 93.4256 192.688C93.255 192.261 93.1696 191.76 93.1696 191.184V186.96H91.9216C91.815 186.96 91.7243 186.928 91.6496 186.864C91.5856 186.789 91.5536 186.699 91.5536 186.592V186.048C91.5536 185.941 91.5856 185.856 91.6496 185.792C91.7243 185.717 91.815 185.68 91.9216 185.68H93.1696V183.008C93.1696 182.901 93.2016 182.816 93.2656 182.752C93.3403 182.677 93.431 182.64 93.5376 182.64H94.2896C94.3963 182.64 94.4816 182.677 94.5456 182.752C94.6203 182.816 94.6576 182.901 94.6576 183.008V185.68H96.6416C96.7483 185.68 96.8336 185.717 96.8976 185.792C96.9723 185.856 97.0096 185.941 97.0096 186.048V186.592C97.0096 186.699 96.9723 186.789 96.8976 186.864C96.8336 186.928 96.7483 186.96 96.6416 186.96H94.6576V191.072C94.6576 191.573 94.743 191.968 94.9136 192.256C95.0843 192.544 95.3883 192.688 95.8256 192.688H96.8016C96.9083 192.688 96.9936 192.725 97.0576 192.8C97.1323 192.864 97.1696 192.949 97.1696 193.056V193.632C97.1696 193.739 97.1323 193.829 97.0576 193.904C96.9936 193.968 96.9083 194 96.8016 194H95.6976ZM105.526 194C104.928 194 104.443 193.888 104.07 193.664C103.696 193.429 103.424 193.104 103.254 192.688C103.083 192.261 102.998 191.76 102.998 191.184V186.96H101.75C101.643 186.96 101.552 186.928 101.478 186.864C101.414 186.789 101.382 186.699 101.382 186.592V186.048C101.382 185.941 101.414 185.856 101.478 185.792C101.552 185.717 101.643 185.68 101.75 185.68H102.998V183.008C102.998 182.901 103.03 182.816 103.094 182.752C103.168 182.677 103.259 182.64 103.366 182.64H104.118C104.224 182.64 104.31 182.677 104.374 182.752C104.448 182.816 104.486 182.901 104.486 183.008V185.68H106.47C106.576 185.68 106.662 185.717 106.726 185.792C106.8 185.856 106.838 185.941 106.838 186.048V186.592C106.838 186.699 106.8 186.789 106.726 186.864C106.662 186.928 106.576 186.96 106.47 186.96H104.486V191.072C104.486 191.573 104.571 191.968 104.742 192.256C104.912 192.544 105.216 192.688 105.654 192.688H106.63C106.736 192.688 106.822 192.725 106.886 192.8C106.96 192.864 106.998 192.949 106.998 193.056V193.632C106.998 193.739 106.96 193.829 106.886 193.904C106.822 193.968 106.736 194 106.63 194H105.526ZM108.912 194C108.805 194 108.714 193.968 108.64 193.904C108.576 193.829 108.544 193.739 108.544 193.632V183.008C108.544 182.901 108.576 182.816 108.64 182.752C108.714 182.677 108.805 182.64 108.912 182.64H109.712C109.829 182.64 109.92 182.677 109.984 182.752C110.048 182.816 110.08 182.901 110.08 183.008V186.736C110.368 186.373 110.72 186.08 111.136 185.856C111.552 185.632 112.08 185.52 112.72 185.52C113.413 185.52 114 185.675 114.48 185.984C114.97 186.283 115.338 186.704 115.584 187.248C115.84 187.781 115.968 188.405 115.968 189.12V193.632C115.968 193.739 115.936 193.829 115.872 193.904C115.808 193.968 115.717 194 115.6 194H114.8C114.693 194 114.602 193.968 114.528 193.904C114.464 193.829 114.432 193.739 114.432 193.632V189.2C114.432 188.453 114.25 187.872 113.888 187.456C113.525 187.029 112.992 186.816 112.288 186.816C111.626 186.816 111.093 187.029 110.688 187.456C110.282 187.872 110.08 188.453 110.08 189.2V193.632C110.08 193.739 110.048 193.829 109.984 193.904C109.92 193.968 109.829 194 109.712 194H108.912ZM121.59 194.16C120.491 194.16 119.616 193.824 118.966 193.152C118.315 192.469 117.958 191.541 117.894 190.368C117.883 190.229 117.878 190.053 117.878 189.84C117.878 189.616 117.883 189.435 117.894 189.296C117.936 188.539 118.112 187.877 118.422 187.312C118.731 186.736 119.152 186.293 119.686 185.984C120.23 185.675 120.864 185.52 121.59 185.52C122.4 185.52 123.078 185.691 123.622 186.032C124.176 186.373 124.598 186.859 124.886 187.488C125.174 188.117 125.318 188.853 125.318 189.696V189.968C125.318 190.085 125.28 190.176 125.206 190.24C125.142 190.304 125.056 190.336 124.95 190.336H119.414C119.414 190.347 119.414 190.368 119.414 190.4C119.414 190.432 119.414 190.459 119.414 190.48C119.435 190.917 119.531 191.328 119.702 191.712C119.872 192.085 120.118 192.389 120.438 192.624C120.758 192.859 121.142 192.976 121.59 192.976C121.974 192.976 122.294 192.917 122.55 192.8C122.806 192.683 123.014 192.555 123.174 192.416C123.334 192.267 123.44 192.155 123.494 192.08C123.59 191.941 123.664 191.861 123.718 191.84C123.771 191.808 123.856 191.792 123.974 191.792H124.742C124.848 191.792 124.934 191.824 124.998 191.888C125.072 191.941 125.104 192.021 125.094 192.128C125.083 192.288 124.998 192.485 124.838 192.72C124.678 192.944 124.448 193.168 124.15 193.392C123.851 193.616 123.488 193.803 123.062 193.952C122.635 194.091 122.144 194.16 121.59 194.16ZM119.414 189.232H123.798V189.184C123.798 188.704 123.707 188.277 123.526 187.904C123.355 187.531 123.104 187.237 122.774 187.024C122.443 186.8 122.048 186.688 121.59 186.688C121.131 186.688 120.736 186.8 120.406 187.024C120.086 187.237 119.84 187.531 119.67 187.904C119.499 188.277 119.414 188.704 119.414 189.184V189.232ZM127.599 194C127.492 194 127.402 193.968 127.327 193.904C127.263 193.829 127.231 193.739 127.231 193.632V186.048C127.231 185.941 127.263 185.856 127.327 185.792C127.402 185.717 127.492 185.68 127.599 185.68H128.319C128.426 185.68 128.511 185.717 128.575 185.792C128.65 185.856 128.687 185.941 128.687 186.048V186.608C128.932 186.277 129.242 186.016 129.615 185.824C129.988 185.621 130.436 185.52 130.959 185.52C132.164 185.509 133.018 186 133.519 186.992C133.764 186.544 134.122 186.187 134.591 185.92C135.06 185.653 135.594 185.52 136.191 185.52C136.746 185.52 137.247 185.648 137.695 185.904C138.154 186.16 138.511 186.549 138.767 187.072C139.034 187.584 139.167 188.229 139.167 189.008V193.632C139.167 193.739 139.13 193.829 139.055 193.904C138.991 193.968 138.906 194 138.799 194H138.047C137.94 194 137.85 193.968 137.775 193.904C137.711 193.829 137.679 193.739 137.679 193.632V189.152C137.679 188.555 137.594 188.085 137.423 187.744C137.252 187.403 137.023 187.163 136.735 187.024C136.447 186.885 136.132 186.816 135.791 186.816C135.514 186.816 135.231 186.885 134.943 187.024C134.655 187.163 134.415 187.403 134.223 187.744C134.042 188.085 133.951 188.555 133.951 189.152V193.632C133.951 193.739 133.914 193.829 133.839 193.904C133.775 193.968 133.69 194 133.583 194H132.831C132.724 194 132.634 193.968 132.559 193.904C132.495 193.829 132.463 193.739 132.463 193.632V189.152C132.463 188.555 132.372 188.085 132.191 187.744C132.01 187.403 131.775 187.163 131.487 187.024C131.199 186.885 130.895 186.816 130.575 186.816C130.298 186.816 130.015 186.885 129.727 187.024C129.439 187.163 129.199 187.403 129.007 187.744C128.826 188.085 128.735 188.549 128.735 189.136V193.632C128.735 193.739 128.698 193.829 128.623 193.904C128.559 193.968 128.474 194 128.367 194H127.599ZM146.275 194C146.168 194 146.077 193.968 146.003 193.904C145.939 193.829 145.907 193.739 145.907 193.632V186.96H144.547C144.44 186.96 144.349 186.928 144.275 186.864C144.211 186.789 144.179 186.699 144.179 186.592V186.048C144.179 185.941 144.211 185.856 144.275 185.792C144.349 185.717 144.44 185.68 144.547 185.68H145.907V184.88C145.907 184.336 145.997 183.861 146.179 183.456C146.36 183.04 146.648 182.72 147.043 182.496C147.448 182.272 147.987 182.16 148.659 182.16H149.619C149.725 182.16 149.811 182.197 149.875 182.272C149.939 182.336 149.971 182.421 149.971 182.528V183.072C149.971 183.179 149.939 183.269 149.875 183.344C149.811 183.408 149.725 183.44 149.619 183.44H148.691C148.189 183.44 147.848 183.573 147.667 183.84C147.485 184.096 147.395 184.469 147.395 184.96V185.68H149.459C149.565 185.68 149.651 185.717 149.715 185.792C149.779 185.856 149.811 185.941 149.811 186.048V186.592C149.811 186.699 149.779 186.789 149.715 186.864C149.651 186.928 149.565 186.96 149.459 186.96H147.395V193.632C147.395 193.739 147.357 193.829 147.283 193.904C147.219 193.968 147.133 194 147.027 194H146.275ZM154.483 194.16C153.672 194.16 152.995 194.005 152.451 193.696C151.907 193.387 151.491 192.96 151.203 192.416C150.915 191.861 150.755 191.232 150.723 190.528C150.712 190.347 150.707 190.117 150.707 189.84C150.707 189.552 150.712 189.323 150.723 189.152C150.755 188.437 150.915 187.808 151.203 187.264C151.501 186.72 151.923 186.293 152.467 185.984C153.011 185.675 153.683 185.52 154.483 185.52C155.283 185.52 155.955 185.675 156.499 185.984C157.043 186.293 157.459 186.72 157.747 187.264C158.045 187.808 158.211 188.437 158.243 189.152C158.253 189.323 158.259 189.552 158.259 189.84C158.259 190.117 158.253 190.347 158.243 190.528C158.211 191.232 158.051 191.861 157.763 192.416C157.475 192.96 157.059 193.387 156.515 193.696C155.971 194.005 155.293 194.16 154.483 194.16ZM154.483 192.928C155.144 192.928 155.672 192.72 156.067 192.304C156.461 191.877 156.675 191.259 156.707 190.448C156.717 190.288 156.723 190.085 156.723 189.84C156.723 189.595 156.717 189.392 156.707 189.232C156.675 188.421 156.461 187.808 156.067 187.392C155.672 186.965 155.144 186.752 154.483 186.752C153.821 186.752 153.288 186.965 152.883 187.392C152.488 187.808 152.28 188.421 152.259 189.232C152.248 189.392 152.243 189.595 152.243 189.84C152.243 190.085 152.248 190.288 152.259 190.448C152.28 191.259 152.488 191.877 152.883 192.304C153.288 192.72 153.821 192.928 154.483 192.928ZM160.63 194C160.523 194 160.433 193.968 160.358 193.904C160.294 193.829 160.262 193.739 160.262 193.632V186.064C160.262 185.957 160.294 185.867 160.358 185.792C160.433 185.717 160.523 185.68 160.63 185.68H161.366C161.473 185.68 161.563 185.717 161.638 185.792C161.713 185.867 161.75 185.957 161.75 186.064V186.768C161.963 186.405 162.257 186.133 162.63 185.952C163.003 185.771 163.451 185.68 163.974 185.68H164.614C164.721 185.68 164.806 185.717 164.87 185.792C164.934 185.856 164.966 185.941 164.966 186.048V186.704C164.966 186.811 164.934 186.896 164.87 186.96C164.806 187.024 164.721 187.056 164.614 187.056H163.654C163.078 187.056 162.625 187.227 162.294 187.568C161.963 187.899 161.798 188.352 161.798 188.928V193.632C161.798 193.739 161.761 193.829 161.686 193.904C161.611 193.968 161.521 194 161.414 194H160.63ZM170.906 197.04C170.82 197.04 170.746 197.008 170.682 196.944C170.618 196.88 170.586 196.805 170.586 196.72C170.586 196.677 170.591 196.635 170.602 196.592C170.612 196.549 170.634 196.496 170.666 196.432L171.898 193.504L168.842 186.288C168.788 186.16 168.762 186.069 168.762 186.016C168.762 185.92 168.794 185.84 168.858 185.776C168.922 185.712 169.002 185.68 169.098 185.68H169.882C169.988 185.68 170.074 185.707 170.138 185.76C170.202 185.813 170.244 185.877 170.266 185.952L172.698 191.776L175.194 185.952C175.226 185.877 175.268 185.813 175.322 185.76C175.386 185.707 175.476 185.68 175.594 185.68H176.346C176.442 185.68 176.522 185.712 176.586 185.776C176.65 185.84 176.682 185.915 176.682 186C176.682 186.053 176.655 186.149 176.602 186.288L172.058 196.768C172.026 196.843 171.978 196.907 171.914 196.96C171.86 197.013 171.775 197.04 171.658 197.04H170.906ZM181.389 194.16C180.578 194.16 179.901 194.005 179.357 193.696C178.813 193.387 178.397 192.96 178.109 192.416C177.821 191.861 177.661 191.232 177.629 190.528C177.618 190.347 177.613 190.117 177.613 189.84C177.613 189.552 177.618 189.323 177.629 189.152C177.661 188.437 177.821 187.808 178.109 187.264C178.408 186.72 178.829 186.293 179.373 185.984C179.917 185.675 180.589 185.52 181.389 185.52C182.189 185.52 182.861 185.675 183.405 185.984C183.949 186.293 184.365 186.72 184.653 187.264C184.952 187.808 185.117 188.437 185.149 189.152C185.16 189.323 185.165 189.552 185.165 189.84C185.165 190.117 185.16 190.347 185.149 190.528C185.117 191.232 184.957 191.861 184.669 192.416C184.381 192.96 183.965 193.387 183.421 193.696C182.877 194.005 182.2 194.16 181.389 194.16ZM181.389 192.928C182.05 192.928 182.578 192.72 182.973 192.304C183.368 191.877 183.581 191.259 183.613 190.448C183.624 190.288 183.629 190.085 183.629 189.84C183.629 189.595 183.624 189.392 183.613 189.232C183.581 188.421 183.368 187.808 182.973 187.392C182.578 186.965 182.05 186.752 181.389 186.752C180.728 186.752 180.194 186.965 179.789 187.392C179.394 187.808 179.186 188.421 179.165 189.232C179.154 189.392 179.149 189.595 179.149 189.84C179.149 190.085 179.154 190.288 179.165 190.448C179.186 191.259 179.394 191.877 179.789 192.304C180.194 192.72 180.728 192.928 181.389 192.928ZM190.272 194.16C189.59 194.16 189.008 194.011 188.528 193.712C188.059 193.403 187.702 192.976 187.456 192.432C187.211 191.888 187.088 191.264 187.088 190.56V186.048C187.088 185.941 187.12 185.856 187.184 185.792C187.259 185.717 187.35 185.68 187.456 185.68H188.256C188.363 185.68 188.448 185.717 188.512 185.792C188.587 185.856 188.624 185.941 188.624 186.048V190.48C188.624 192.069 189.318 192.864 190.704 192.864C191.366 192.864 191.894 192.656 192.288 192.24C192.694 191.813 192.896 191.227 192.896 190.48V186.048C192.896 185.941 192.928 185.856 192.992 185.792C193.067 185.717 193.158 185.68 193.264 185.68H194.048C194.166 185.68 194.256 185.717 194.32 185.792C194.384 185.856 194.416 185.941 194.416 186.048V193.632C194.416 193.739 194.384 193.829 194.32 193.904C194.256 193.968 194.166 194 194.048 194H193.312C193.206 194 193.115 193.968 193.04 193.904C192.976 193.829 192.944 193.739 192.944 193.632V192.928C192.656 193.301 192.304 193.6 191.888 193.824C191.483 194.048 190.944 194.16 190.272 194.16Z" fill="#B1957E"/>
<g clip-path="url(#clip0_11_106)">
<path d="M35 52C35 53.1819 35.2328 54.3522 35.6851 55.4442C36.1374 56.5361 36.8003 57.5282 37.636 58.364C38.4718 59.1997 39.4639 59.8626 40.5558 60.3149C41.6478 60.7672 42.8181 61 44 61C45.1819 61 46.3522 60.7672 47.4442 60.3149C48.5361 59.8626 49.5282 59.1997 50.364 58.364C51.1997 57.5282 51.8626 56.5361 52.3149 55.4442C52.7672 54.3522 53 53.1819 53 52C53 50.8181 52.7672 49.6478 52.3149 48.5558C51.8626 47.4639 51.1997 46.4718 50.364 45.636C49.5282 44.8003 48.5361 44.1374 47.4442 43.6851C46.3522 43.2328 45.1819 43 44 43C42.8181 43 41.6478 43.2328 40.5558 43.6851C39.4639 44.1374 38.4718 44.8003 37.636 45.636C36.8003 46.4718 36.1374 47.4639 35.6851 48.5558C35.2328 49.6478 35 50.8181 35 52Z" stroke="#FFB72D" stroke-width="1.5" stroke-linecap="round" stroke-linejoin="round"/>
<path d="M41 52L43 54L47 50" stroke="#FFB72D" stroke-width="1.5" stroke-linecap="round" stroke-linejoin="round"/>
</g>
<defs>
<clipPath id="clip0_11_106">
<rect width="24" height="24" fill="white" transform="translate(32 40)"/>
</clipPath>
</defs>
</svg>
