<svg width="265" height="268" viewBox="0 0 265 268" fill="none" xmlns="http://www.w3.org/2000/svg">
<rect width="265" height="268" rx="10" fill="#FEF6F0"/>
<path d="M36.632 109C36.392 109 36.2 108.936 36.056 108.808C35.928 108.664 35.84 108.488 35.792 108.28L32.936 92.896C32.936 92.848 32.928 92.808 32.912 92.776C32.912 92.744 32.912 92.72 32.912 92.704C32.912 92.56 32.96 92.44 33.056 92.344C33.168 92.248 33.288 92.2 33.416 92.2H35.528C35.928 92.2 36.152 92.36 36.2 92.68L38.192 103.552L40.352 96.52C40.4 96.392 40.48 96.264 40.592 96.136C40.72 95.992 40.904 95.92 41.144 95.92H42.44C42.696 95.92 42.88 95.992 42.992 96.136C43.104 96.264 43.176 96.392 43.208 96.52L45.392 103.528L47.384 92.68C47.432 92.36 47.656 92.2 48.056 92.2H50.168C50.296 92.2 50.408 92.248 50.504 92.344C50.6 92.44 50.648 92.56 50.648 92.704C50.648 92.72 50.648 92.744 50.648 92.776C50.648 92.808 50.64 92.848 50.624 92.896L47.768 108.28C47.736 108.488 47.648 108.664 47.504 108.808C47.36 108.936 47.168 109 46.928 109H45.32C45.08 109 44.888 108.936 44.744 108.808C44.616 108.68 44.528 108.544 44.48 108.4L41.792 100.384L39.104 108.4C39.04 108.544 38.944 108.68 38.816 108.808C38.688 108.936 38.496 109 38.24 109H36.632ZM58.0616 109.24C56.2856 109.24 54.8776 108.728 53.8376 107.704C52.7976 106.68 52.2376 105.224 52.1576 103.336C52.1416 103.176 52.1336 102.976 52.1336 102.736C52.1336 102.48 52.1416 102.28 52.1576 102.136C52.2216 100.936 52.4936 99.896 52.9736 99.016C53.4696 98.136 54.1496 97.464 55.0136 97C55.8776 96.52 56.8936 96.28 58.0616 96.28C59.3576 96.28 60.4456 96.552 61.3256 97.096C62.2056 97.624 62.8696 98.368 63.3176 99.328C63.7656 100.272 63.9896 101.368 63.9896 102.616V103.12C63.9896 103.28 63.9336 103.416 63.8216 103.528C63.7096 103.64 63.5656 103.696 63.3896 103.696H55.4216C55.4216 103.696 55.4216 103.72 55.4216 103.768C55.4216 103.816 55.4216 103.856 55.4216 103.888C55.4376 104.448 55.5416 104.968 55.7336 105.448C55.9416 105.912 56.2376 106.288 56.6216 106.576C57.0216 106.864 57.4936 107.008 58.0376 107.008C58.4856 107.008 58.8616 106.944 59.1656 106.816C59.4696 106.672 59.7176 106.512 59.9096 106.336C60.1016 106.16 60.2376 106.016 60.3176 105.904C60.4616 105.712 60.5736 105.6 60.6536 105.568C60.7496 105.52 60.8856 105.496 61.0616 105.496H63.1256C63.2856 105.496 63.4136 105.544 63.5096 105.64C63.6216 105.736 63.6696 105.856 63.6536 106C63.6376 106.256 63.5016 106.568 63.2456 106.936C63.0056 107.304 62.6536 107.664 62.1896 108.016C61.7256 108.368 61.1416 108.664 60.4376 108.904C59.7496 109.128 58.9576 109.24 58.0616 109.24ZM55.4216 101.68H60.7256V101.608C60.7256 100.984 60.6216 100.44 60.4136 99.976C60.2056 99.512 59.9016 99.144 59.5016 98.872C59.1016 98.6 58.6216 98.464 58.0616 98.464C57.5016 98.464 57.0216 98.6 56.6216 98.872C56.2216 99.144 55.9176 99.512 55.7096 99.976C55.5176 100.44 55.4216 100.984 55.4216 101.608V101.68ZM73.4491 109.24C72.5211 109.24 71.7451 109.08 71.1211 108.76C70.5131 108.44 70.0091 108.032 69.6091 107.536V108.424C69.6091 108.584 69.5531 108.72 69.4411 108.832C69.3451 108.944 69.2091 109 69.0331 109H67.1371C66.9771 109 66.8411 108.944 66.7291 108.832C66.6171 108.72 66.5611 108.584 66.5611 108.424V92.536C66.5611 92.376 66.6171 92.24 66.7291 92.128C66.8411 92.016 66.9771 91.96 67.1371 91.96H69.1771C69.3531 91.96 69.4891 92.016 69.5851 92.128C69.6971 92.24 69.7531 92.376 69.7531 92.536V97.864C70.1531 97.4 70.6491 97.024 71.2411 96.736C71.8491 96.432 72.5851 96.28 73.4491 96.28C74.2971 96.28 75.0331 96.424 75.6571 96.712C76.2811 97 76.8011 97.408 77.2171 97.936C77.6491 98.448 77.9771 99.048 78.2011 99.736C78.4251 100.424 78.5451 101.168 78.5611 101.968C78.5771 102.256 78.5851 102.52 78.5851 102.76C78.5851 102.984 78.5771 103.24 78.5611 103.528C78.5291 104.36 78.4011 105.128 78.1771 105.832C77.9531 106.52 77.6331 107.12 77.2171 107.632C76.8011 108.144 76.2811 108.544 75.6571 108.832C75.0331 109.104 74.2971 109.24 73.4491 109.24ZM72.5611 106.672C73.2491 106.672 73.7851 106.528 74.1691 106.24C74.5531 105.936 74.8251 105.544 74.9851 105.064C75.1611 104.584 75.2651 104.056 75.2971 103.48C75.3291 103 75.3291 102.52 75.2971 102.04C75.2651 101.464 75.1611 100.936 74.9851 100.456C74.8251 99.976 74.5531 99.592 74.1691 99.304C73.7851 99 73.2491 98.848 72.5611 98.848C71.9211 98.848 71.4011 98.992 71.0011 99.28C70.6011 99.568 70.2971 99.936 70.0891 100.384C69.8811 100.816 69.7691 101.272 69.7531 101.752C69.7371 102.04 69.7291 102.352 69.7291 102.688C69.7291 103.008 69.7371 103.312 69.7531 103.6C69.7851 104.096 69.8891 104.584 70.0651 105.064C70.2571 105.528 70.5531 105.912 70.9531 106.216C71.3691 106.52 71.9051 106.672 72.5611 106.672ZM40.352 137.24C38.864 137.24 37.6 136.984 36.56 136.472C35.536 135.944 34.752 135.2 34.208 134.24C33.664 133.264 33.36 132.096 33.296 130.736C33.28 130.08 33.272 129.376 33.272 128.624C33.272 127.872 33.28 127.152 33.296 126.464C33.36 125.12 33.664 123.96 34.208 122.984C34.768 122.008 35.56 121.264 36.584 120.752C37.624 120.224 38.88 119.96 40.352 119.96C41.44 119.96 42.416 120.104 43.28 120.392C44.144 120.68 44.88 121.08 45.488 121.592C46.096 122.088 46.568 122.672 46.904 123.344C47.24 124.016 47.416 124.744 47.432 125.528C47.448 125.672 47.4 125.792 47.288 125.888C47.192 125.984 47.072 126.032 46.928 126.032H44.648C44.472 126.032 44.328 125.992 44.216 125.912C44.104 125.816 44.024 125.664 43.976 125.456C43.72 124.4 43.28 123.68 42.656 123.296C42.032 122.912 41.256 122.72 40.328 122.72C39.256 122.72 38.4 123.024 37.76 123.632C37.12 124.224 36.776 125.208 36.728 126.584C36.68 127.896 36.68 129.24 36.728 130.616C36.776 131.992 37.12 132.984 37.76 133.592C38.4 134.184 39.256 134.48 40.328 134.48C41.256 134.48 42.032 134.288 42.656 133.904C43.28 133.504 43.72 132.784 43.976 131.744C44.024 131.52 44.104 131.368 44.216 131.288C44.328 131.208 44.472 131.168 44.648 131.168H46.928C47.072 131.168 47.192 131.216 47.288 131.312C47.4 131.408 47.448 131.528 47.432 131.672C47.416 132.456 47.24 133.184 46.904 133.856C46.568 134.528 46.096 135.12 45.488 135.632C44.88 136.128 44.144 136.52 43.28 136.808C42.416 137.096 41.44 137.24 40.352 137.24ZM55.5103 137.24C54.2303 137.24 53.1503 137.016 52.2703 136.568C51.4063 136.12 50.7423 135.488 50.2783 134.672C49.8303 133.856 49.5743 132.904 49.5103 131.816C49.4943 131.528 49.4863 131.176 49.4863 130.76C49.4863 130.344 49.4943 129.992 49.5103 129.704C49.5743 128.6 49.8383 127.648 50.3023 126.848C50.7823 126.032 51.4543 125.4 52.3183 124.952C53.1983 124.504 54.2623 124.28 55.5103 124.28C56.7583 124.28 57.8143 124.504 58.6783 124.952C59.5583 125.4 60.2303 126.032 60.6943 126.848C61.1743 127.648 61.4463 128.6 61.5103 129.704C61.5263 129.992 61.5343 130.344 61.5343 130.76C61.5343 131.176 61.5263 131.528 61.5103 131.816C61.4463 132.904 61.1823 133.856 60.7183 134.672C60.2703 135.488 59.6063 136.12 58.7263 136.568C57.8623 137.016 56.7903 137.24 55.5103 137.24ZM55.5103 134.864C56.3583 134.864 57.0143 134.6 57.4783 134.072C57.9423 133.528 58.1983 132.736 58.2463 131.696C58.2623 131.456 58.2703 131.144 58.2703 130.76C58.2703 130.376 58.2623 130.064 58.2463 129.824C58.1983 128.8 57.9423 128.016 57.4783 127.472C57.0143 126.928 56.3583 126.656 55.5103 126.656C54.6623 126.656 54.0063 126.928 53.5423 127.472C53.0783 128.016 52.8223 128.8 52.7743 129.824C52.7583 130.064 52.7503 130.376 52.7503 130.76C52.7503 131.144 52.7583 131.456 52.7743 131.696C52.8223 132.736 53.0783 133.528 53.5423 134.072C54.0063 134.6 54.6623 134.864 55.5103 134.864ZM64.7694 137C64.6094 137 64.4734 136.944 64.3614 136.832C64.2494 136.72 64.1934 136.584 64.1934 136.424V125.096C64.1934 124.936 64.2494 124.8 64.3614 124.688C64.4734 124.576 64.6094 124.52 64.7694 124.52H66.6414C66.8014 124.52 66.9374 124.576 67.0494 124.688C67.1614 124.8 67.2174 124.936 67.2174 125.096V125.912C67.5534 125.464 68.0014 125.088 68.5614 124.784C69.1374 124.464 69.8174 124.296 70.6014 124.28C72.4254 124.248 73.6974 124.96 74.4174 126.416C74.7854 125.776 75.3134 125.264 76.0014 124.88C76.7054 124.48 77.4814 124.28 78.3294 124.28C79.1614 124.28 79.9134 124.472 80.5854 124.856C81.2734 125.24 81.8094 125.824 82.1934 126.608C82.5934 127.376 82.7934 128.352 82.7934 129.536V136.424C82.7934 136.584 82.7374 136.72 82.6254 136.832C82.5134 136.944 82.3774 137 82.2174 137H80.2494C80.0894 137 79.9534 136.944 79.8414 136.832C79.7294 136.72 79.6734 136.584 79.6734 136.424V129.728C79.6734 129.008 79.5694 128.44 79.3614 128.024C79.1534 127.592 78.8734 127.288 78.5214 127.112C78.1694 126.936 77.7774 126.848 77.3454 126.848C76.9934 126.848 76.6414 126.936 76.2894 127.112C75.9374 127.288 75.6494 127.592 75.4254 128.024C75.2014 128.44 75.0894 129.008 75.0894 129.728V136.424C75.0894 136.584 75.0334 136.72 74.9214 136.832C74.8094 136.944 74.6734 137 74.5134 137H72.5454C72.3694 137 72.2254 136.944 72.1134 136.832C72.0174 136.72 71.9694 136.584 71.9694 136.424V129.728C71.9694 129.008 71.8574 128.44 71.6334 128.024C71.4094 127.592 71.1214 127.288 70.7694 127.112C70.4174 126.936 70.0414 126.848 69.6414 126.848C69.2734 126.848 68.9134 126.944 68.5614 127.136C68.2094 127.312 67.9214 127.608 67.6974 128.024C67.4734 128.44 67.3614 129.008 67.3614 129.728V136.424C67.3614 136.584 67.3054 136.72 67.1934 136.832C67.0814 136.944 66.9454 137 66.7854 137H64.7694ZM86.4496 141.56C86.2896 141.56 86.1536 141.504 86.0416 141.392C85.9296 141.28 85.8736 141.144 85.8736 140.984V125.096C85.8736 124.936 85.9296 124.8 86.0416 124.688C86.1536 124.576 86.2896 124.52 86.4496 124.52H88.3456C88.5216 124.52 88.6576 124.576 88.7536 124.688C88.8656 124.8 88.9216 124.936 88.9216 125.096V126.056C89.3056 125.544 89.8096 125.12 90.4336 124.784C91.0576 124.448 91.8336 124.28 92.7616 124.28C93.6096 124.28 94.3456 124.416 94.9696 124.688C95.5936 124.96 96.1136 125.352 96.5296 125.864C96.9456 126.36 97.2656 126.952 97.4896 127.64C97.7136 128.328 97.8416 129.088 97.8736 129.92C97.8896 130.192 97.8976 130.472 97.8976 130.76C97.8976 131.048 97.8896 131.336 97.8736 131.624C97.8576 132.424 97.7376 133.168 97.5136 133.856C97.2896 134.528 96.9616 135.12 96.5296 135.632C96.1136 136.128 95.5936 136.52 94.9696 136.808C94.3456 137.096 93.6096 137.24 92.7616 137.24C91.8976 137.24 91.1616 137.088 90.5536 136.784C89.9456 136.464 89.4496 136.048 89.0656 135.536V140.984C89.0656 141.144 89.0096 141.28 88.8976 141.392C88.8016 141.504 88.6656 141.56 88.4896 141.56H86.4496ZM91.8736 134.672C92.5616 134.672 93.0976 134.528 93.4816 134.24C93.8656 133.936 94.1376 133.544 94.2976 133.064C94.4736 132.584 94.5776 132.056 94.6096 131.48C94.6416 131 94.6416 130.52 94.6096 130.04C94.5776 129.464 94.4736 128.936 94.2976 128.456C94.1376 127.976 93.8656 127.592 93.4816 127.304C93.0976 127 92.5616 126.848 91.8736 126.848C91.2176 126.848 90.6816 127 90.2656 127.304C89.8656 127.608 89.5696 128 89.3776 128.48C89.2016 128.944 89.0976 129.424 89.0656 129.92C89.0496 130.208 89.0416 130.512 89.0416 130.832C89.0416 131.152 89.0496 131.464 89.0656 131.768C89.0816 132.248 89.1936 132.712 89.4016 133.16C89.6096 133.592 89.9136 133.952 90.3136 134.24C90.7136 134.528 91.2336 134.672 91.8736 134.672ZM104.216 137.24C103.384 137.24 102.632 137.08 101.96 136.76C101.288 136.424 100.752 135.984 100.352 135.44C99.9678 134.88 99.7758 134.256 99.7758 133.568C99.7758 132.448 100.224 131.56 101.12 130.904C102.032 130.232 103.232 129.784 104.72 129.56L108.008 129.08V128.576C108.008 127.904 107.84 127.384 107.504 127.016C107.168 126.648 106.592 126.464 105.776 126.464C105.2 126.464 104.728 126.584 104.36 126.824C104.008 127.048 103.744 127.352 103.568 127.736C103.44 127.944 103.256 128.048 103.016 128.048H101.12C100.944 128.048 100.808 128 100.712 127.904C100.632 127.808 100.592 127.68 100.592 127.52C100.608 127.264 100.712 126.952 100.904 126.584C101.096 126.216 101.4 125.864 101.816 125.528C102.232 125.176 102.768 124.88 103.424 124.64C104.08 124.4 104.872 124.28 105.8 124.28C106.808 124.28 107.656 124.408 108.344 124.664C109.048 124.904 109.608 125.232 110.024 125.648C110.44 126.064 110.744 126.552 110.936 127.112C111.128 127.672 111.224 128.264 111.224 128.888V136.424C111.224 136.584 111.168 136.72 111.056 136.832C110.944 136.944 110.808 137 110.648 137H108.704C108.528 137 108.384 136.944 108.272 136.832C108.176 136.72 108.128 136.584 108.128 136.424V135.488C107.92 135.792 107.64 136.08 107.288 136.352C106.936 136.608 106.504 136.824 105.992 137C105.496 137.16 104.904 137.24 104.216 137.24ZM105.032 134.96C105.592 134.96 106.096 134.84 106.544 134.6C107.008 134.36 107.368 133.992 107.624 133.496C107.896 132.984 108.032 132.344 108.032 131.576V131.072L105.632 131.456C104.688 131.6 103.984 131.832 103.52 132.152C103.056 132.472 102.824 132.864 102.824 133.328C102.824 133.68 102.928 133.984 103.136 134.24C103.36 134.48 103.64 134.664 103.976 134.792C104.312 134.904 104.664 134.96 105.032 134.96ZM119.826 137C118.866 137 118.058 136.832 117.402 136.496C116.746 136.16 116.258 135.664 115.938 135.008C115.618 134.336 115.458 133.504 115.458 132.512V127.064H113.562C113.402 127.064 113.266 127.008 113.154 126.896C113.042 126.784 112.986 126.648 112.986 126.488V125.096C112.986 124.936 113.042 124.8 113.154 124.688C113.266 124.576 113.402 124.52 113.562 124.52H115.458V120.536C115.458 120.376 115.506 120.24 115.602 120.128C115.714 120.016 115.858 119.96 116.034 119.96H117.978C118.138 119.96 118.274 120.016 118.386 120.128C118.498 120.24 118.554 120.376 118.554 120.536V124.52H121.554C121.714 124.52 121.85 124.576 121.962 124.688C122.074 124.8 122.13 124.936 122.13 125.096V126.488C122.13 126.648 122.074 126.784 121.962 126.896C121.85 127.008 121.714 127.064 121.554 127.064H118.554V132.272C118.554 132.928 118.666 133.44 118.89 133.808C119.13 134.176 119.538 134.36 120.114 134.36H121.77C121.93 134.36 122.066 134.416 122.178 134.528C122.29 134.64 122.346 134.776 122.346 134.936V136.424C122.346 136.584 122.29 136.72 122.178 136.832C122.066 136.944 121.93 137 121.77 137H119.826ZM125.051 137C124.891 137 124.755 136.944 124.643 136.832C124.531 136.72 124.475 136.584 124.475 136.424V125.096C124.475 124.936 124.531 124.8 124.643 124.688C124.755 124.576 124.891 124.52 125.051 124.52H127.043C127.219 124.52 127.355 124.576 127.451 124.688C127.563 124.8 127.619 124.936 127.619 125.096V136.424C127.619 136.584 127.563 136.72 127.451 136.832C127.355 136.944 127.219 137 127.043 137H125.051ZM124.955 122.456C124.779 122.456 124.635 122.408 124.523 122.312C124.427 122.2 124.379 122.056 124.379 121.88V120.152C124.379 119.992 124.427 119.856 124.523 119.744C124.635 119.632 124.779 119.576 124.955 119.576H127.139C127.315 119.576 127.459 119.632 127.571 119.744C127.683 119.856 127.739 119.992 127.739 120.152V121.88C127.739 122.056 127.683 122.2 127.571 122.312C127.459 122.408 127.315 122.456 127.139 122.456H124.955ZM137.715 137.24C136.787 137.24 136.011 137.08 135.387 136.76C134.779 136.44 134.275 136.032 133.875 135.536V136.424C133.875 136.584 133.819 136.72 133.707 136.832C133.611 136.944 133.475 137 133.299 137H131.403C131.243 137 131.107 136.944 130.995 136.832C130.883 136.72 130.827 136.584 130.827 136.424V120.536C130.827 120.376 130.883 120.24 130.995 120.128C131.107 120.016 131.243 119.96 131.403 119.96H133.443C133.619 119.96 133.755 120.016 133.851 120.128C133.963 120.24 134.019 120.376 134.019 120.536V125.864C134.419 125.4 134.915 125.024 135.507 124.736C136.115 124.432 136.851 124.28 137.715 124.28C138.563 124.28 139.299 124.424 139.923 124.712C140.547 125 141.067 125.408 141.483 125.936C141.915 126.448 142.243 127.048 142.467 127.736C142.691 128.424 142.811 129.168 142.827 129.968C142.843 130.256 142.851 130.52 142.851 130.76C142.851 130.984 142.843 131.24 142.827 131.528C142.795 132.36 142.667 133.128 142.443 133.832C142.219 134.52 141.899 135.12 141.483 135.632C141.067 136.144 140.547 136.544 139.923 136.832C139.299 137.104 138.563 137.24 137.715 137.24ZM136.827 134.672C137.515 134.672 138.051 134.528 138.435 134.24C138.819 133.936 139.091 133.544 139.251 133.064C139.427 132.584 139.531 132.056 139.563 131.48C139.595 131 139.595 130.52 139.563 130.04C139.531 129.464 139.427 128.936 139.251 128.456C139.091 127.976 138.819 127.592 138.435 127.304C138.051 127 137.515 126.848 136.827 126.848C136.187 126.848 135.667 126.992 135.267 127.28C134.867 127.568 134.563 127.936 134.355 128.384C134.147 128.816 134.035 129.272 134.019 129.752C134.003 130.04 133.995 130.352 133.995 130.688C133.995 131.008 134.003 131.312 134.019 131.6C134.051 132.096 134.155 132.584 134.331 133.064C134.523 133.528 134.819 133.912 135.219 134.216C135.635 134.52 136.171 134.672 136.827 134.672ZM146.098 137C145.938 137 145.802 136.944 145.69 136.832C145.578 136.72 145.521 136.584 145.521 136.424V125.096C145.521 124.936 145.578 124.8 145.69 124.688C145.802 124.576 145.938 124.52 146.098 124.52H148.09C148.266 124.52 148.402 124.576 148.498 124.688C148.61 124.8 148.666 124.936 148.666 125.096V136.424C148.666 136.584 148.61 136.72 148.498 136.832C148.402 136.944 148.266 137 148.09 137H146.098ZM146.002 122.456C145.826 122.456 145.682 122.408 145.57 122.312C145.474 122.2 145.426 122.056 145.426 121.88V120.152C145.426 119.992 145.474 119.856 145.57 119.744C145.682 119.632 145.826 119.576 146.002 119.576H148.186C148.362 119.576 148.506 119.632 148.618 119.744C148.73 119.856 148.786 119.992 148.786 120.152V121.88C148.786 122.056 148.73 122.2 148.618 122.312C148.506 122.408 148.362 122.456 148.186 122.456H146.002ZM152.45 137C152.29 137 152.154 136.944 152.042 136.832C151.93 136.72 151.874 136.584 151.874 136.424V120.536C151.874 120.376 151.93 120.24 152.042 120.128C152.154 120.016 152.29 119.96 152.45 119.96H154.442C154.602 119.96 154.738 120.016 154.85 120.128C154.962 120.24 155.018 120.376 155.018 120.536V136.424C155.018 136.584 154.962 136.72 154.85 136.832C154.738 136.944 154.602 137 154.442 137H152.45ZM159.293 137C159.133 137 158.997 136.944 158.885 136.832C158.773 136.72 158.717 136.584 158.717 136.424V125.096C158.717 124.936 158.773 124.8 158.885 124.688C158.997 124.576 159.133 124.52 159.293 124.52H161.285C161.461 124.52 161.597 124.576 161.693 124.688C161.805 124.8 161.861 124.936 161.861 125.096V136.424C161.861 136.584 161.805 136.72 161.693 136.832C161.597 136.944 161.461 137 161.285 137H159.293ZM159.197 122.456C159.021 122.456 158.877 122.408 158.765 122.312C158.669 122.2 158.621 122.056 158.621 121.88V120.152C158.621 119.992 158.669 119.856 158.765 119.744C158.877 119.632 159.021 119.576 159.197 119.576H161.381C161.557 119.576 161.701 119.632 161.813 119.744C161.925 119.856 161.981 119.992 161.981 120.152V121.88C161.981 122.056 161.925 122.2 161.813 122.312C161.701 122.408 161.557 122.456 161.381 122.456H159.197ZM170.685 137C169.725 137 168.917 136.832 168.261 136.496C167.605 136.16 167.117 135.664 166.797 135.008C166.477 134.336 166.317 133.504 166.317 132.512V127.064H164.421C164.261 127.064 164.125 127.008 164.013 126.896C163.901 126.784 163.845 126.648 163.845 126.488V125.096C163.845 124.936 163.901 124.8 164.013 124.688C164.125 124.576 164.261 124.52 164.421 124.52H166.317V120.536C166.317 120.376 166.365 120.24 166.461 120.128C166.573 120.016 166.717 119.96 166.893 119.96H168.837C168.997 119.96 169.133 120.016 169.245 120.128C169.357 120.24 169.413 120.376 169.413 120.536V124.52H172.413C172.573 124.52 172.709 124.576 172.821 124.688C172.933 124.8 172.989 124.936 172.989 125.096V126.488C172.989 126.648 172.933 126.784 172.821 126.896C172.709 127.008 172.573 127.064 172.413 127.064H169.413V132.272C169.413 132.928 169.525 133.44 169.749 133.808C169.989 134.176 170.397 134.36 170.973 134.36H172.629C172.789 134.36 172.925 134.416 173.037 134.528C173.149 134.64 173.205 134.776 173.205 134.936V136.424C173.205 136.584 173.149 136.72 173.037 136.832C172.925 136.944 172.789 137 172.629 137H170.685ZM177.59 141.56C177.462 141.56 177.35 141.512 177.254 141.416C177.158 141.32 177.11 141.208 177.11 141.08C177.11 141.016 177.11 140.952 177.11 140.888C177.126 140.84 177.158 140.776 177.206 140.696L179.078 136.256L174.47 125.384C174.406 125.224 174.374 125.112 174.374 125.048C174.39 124.904 174.446 124.784 174.542 124.688C174.638 124.576 174.758 124.52 174.902 124.52H176.846C177.038 124.52 177.182 124.568 177.278 124.664C177.374 124.76 177.446 124.864 177.494 124.976L180.686 132.824L183.974 124.976C184.022 124.848 184.094 124.744 184.19 124.664C184.286 124.568 184.43 124.52 184.622 124.52H186.542C186.67 124.52 186.782 124.568 186.878 124.664C186.99 124.76 187.046 124.872 187.046 125C187.046 125.096 187.014 125.224 186.95 125.384L180.158 141.104C180.094 141.232 180.014 141.336 179.918 141.416C179.822 141.512 179.678 141.56 179.486 141.56H177.59Z" fill="#5E4E41"/>
<path d="M36.208 171C36.1013 171 36.0107 170.968 35.936 170.904C35.872 170.829 35.84 170.739 35.84 170.632V161.224H32.768C32.6613 161.224 32.5707 161.192 32.496 161.128C32.432 161.053 32.4 160.963 32.4 160.856V160.184C32.4 160.067 32.432 159.976 32.496 159.912C32.5707 159.837 32.6613 159.8 32.768 159.8H40.48C40.5973 159.8 40.688 159.837 40.752 159.912C40.8267 159.976 40.864 160.067 40.864 160.184V160.856C40.864 160.963 40.8267 161.053 40.752 161.128C40.688 161.192 40.5973 161.224 40.48 161.224H37.424V170.632C37.424 170.739 37.3867 170.829 37.312 170.904C37.248 170.968 37.1573 171 37.04 171H36.208ZM42.5055 171C42.3988 171 42.3082 170.968 42.2335 170.904C42.1695 170.829 42.1375 170.739 42.1375 170.632V160.008C42.1375 159.901 42.1695 159.816 42.2335 159.752C42.3082 159.677 42.3988 159.64 42.5055 159.64H43.3055C43.4228 159.64 43.5135 159.677 43.5775 159.752C43.6415 159.816 43.6735 159.901 43.6735 160.008V163.736C43.9615 163.373 44.3135 163.08 44.7295 162.856C45.1455 162.632 45.6735 162.52 46.3135 162.52C47.0068 162.52 47.5935 162.675 48.0735 162.984C48.5642 163.283 48.9322 163.704 49.1775 164.248C49.4335 164.781 49.5615 165.405 49.5615 166.12V170.632C49.5615 170.739 49.5295 170.829 49.4655 170.904C49.4015 170.968 49.3108 171 49.1935 171H48.3935C48.2868 171 48.1962 170.968 48.1215 170.904C48.0575 170.829 48.0255 170.739 48.0255 170.632V166.2C48.0255 165.453 47.8442 164.872 47.4815 164.456C47.1188 164.029 46.5855 163.816 45.8815 163.816C45.2202 163.816 44.6868 164.029 44.2815 164.456C43.8762 164.872 43.6735 165.453 43.6735 166.2V170.632C43.6735 170.739 43.6415 170.829 43.5775 170.904C43.5135 170.968 43.4228 171 43.3055 171H42.5055ZM52.2395 171C52.1328 171 52.0422 170.968 51.9675 170.904C51.9035 170.829 51.8715 170.739 51.8715 170.632V163.048C51.8715 162.941 51.9035 162.856 51.9675 162.792C52.0422 162.717 52.1328 162.68 52.2395 162.68H53.0075C53.1142 162.68 53.1995 162.717 53.2635 162.792C53.3275 162.856 53.3595 162.941 53.3595 163.048V170.632C53.3595 170.739 53.3275 170.829 53.2635 170.904C53.1995 170.968 53.1142 171 53.0075 171H52.2395ZM52.1115 161.128C52.0048 161.128 51.9142 161.096 51.8395 161.032C51.7755 160.957 51.7435 160.867 51.7435 160.76V159.896C51.7435 159.789 51.7755 159.704 51.8395 159.64C51.9142 159.565 52.0048 159.528 52.1115 159.528H53.1195C53.2262 159.528 53.3115 159.565 53.3755 159.64C53.4502 159.704 53.4875 159.789 53.4875 159.896V160.76C53.4875 160.867 53.4502 160.957 53.3755 161.032C53.3115 161.096 53.2262 161.128 53.1195 161.128H52.1115ZM58.7203 171.16C58.1229 171.16 57.6109 171.085 57.1843 170.936C56.7576 170.787 56.4109 170.605 56.1443 170.392C55.8776 170.179 55.6749 169.965 55.5363 169.752C55.4083 169.539 55.3389 169.368 55.3283 169.24C55.3176 169.123 55.3549 169.032 55.4403 168.968C55.5256 168.904 55.6109 168.872 55.6963 168.872H56.4003C56.4643 168.872 56.5123 168.883 56.5443 168.904C56.5869 168.915 56.6403 168.957 56.7043 169.032C56.8429 169.181 56.9976 169.331 57.1683 169.48C57.3389 169.629 57.5469 169.752 57.7923 169.848C58.0483 169.944 58.3629 169.992 58.7363 169.992C59.2803 169.992 59.7283 169.891 60.0803 169.688C60.4323 169.475 60.6083 169.165 60.6083 168.76C60.6083 168.493 60.5336 168.28 60.3843 168.12C60.2456 167.96 59.9896 167.816 59.6163 167.688C59.2536 167.56 58.7523 167.427 58.1123 167.288C57.4723 167.139 56.9656 166.957 56.5923 166.744C56.2189 166.52 55.9523 166.259 55.7923 165.96C55.6323 165.651 55.5523 165.304 55.5523 164.92C55.5523 164.525 55.6696 164.147 55.9043 163.784C56.1389 163.411 56.4803 163.107 56.9283 162.872C57.3869 162.637 57.9576 162.52 58.6403 162.52C59.1949 162.52 59.6696 162.589 60.0643 162.728C60.4589 162.867 60.7843 163.043 61.0403 163.256C61.2963 163.459 61.4883 163.661 61.6163 163.864C61.7443 164.067 61.8136 164.237 61.8243 164.376C61.8349 164.483 61.8029 164.573 61.7283 164.648C61.6536 164.712 61.5683 164.744 61.4723 164.744H60.8003C60.7256 164.744 60.6616 164.728 60.6083 164.696C60.5656 164.664 60.5229 164.627 60.4803 164.584C60.3736 164.445 60.2456 164.307 60.0963 164.168C59.9576 164.029 59.7709 163.917 59.5363 163.832C59.3123 163.736 59.0136 163.688 58.6403 163.688C58.1069 163.688 57.7069 163.8 57.4403 164.024C57.1736 164.248 57.0403 164.531 57.0403 164.872C57.0403 165.075 57.0989 165.256 57.2163 165.416C57.3336 165.576 57.5576 165.72 57.8883 165.848C58.2189 165.976 58.7096 166.115 59.3602 166.264C60.0643 166.403 60.6189 166.589 61.0243 166.824C61.4296 167.059 61.7176 167.331 61.8883 167.64C62.0589 167.949 62.1443 168.307 62.1443 168.712C62.1443 169.16 62.0109 169.571 61.7443 169.944C61.4883 170.317 61.1043 170.616 60.5923 170.84C60.0909 171.053 59.4669 171.16 58.7203 171.16ZM68.2864 171C68.1797 171 68.089 170.968 68.0144 170.904C67.9504 170.829 67.9184 170.739 67.9184 170.632V163.048C67.9184 162.941 67.9504 162.856 68.0144 162.792C68.089 162.717 68.1797 162.68 68.2864 162.68H69.0064C69.113 162.68 69.1984 162.717 69.2624 162.792C69.337 162.856 69.3744 162.941 69.3744 163.048V163.608C69.6197 163.277 69.929 163.016 70.3024 162.824C70.6757 162.621 71.1237 162.52 71.6464 162.52C72.8517 162.509 73.705 163 74.2064 163.992C74.4517 163.544 74.809 163.187 75.2784 162.92C75.7477 162.653 76.281 162.52 76.8784 162.52C77.433 162.52 77.9344 162.648 78.3824 162.904C78.841 163.16 79.1984 163.549 79.4544 164.072C79.721 164.584 79.8544 165.229 79.8544 166.008V170.632C79.8544 170.739 79.817 170.829 79.7424 170.904C79.6784 170.968 79.593 171 79.4864 171H78.7344C78.6277 171 78.537 170.968 78.4624 170.904C78.3984 170.829 78.3664 170.739 78.3664 170.632V166.152C78.3664 165.555 78.281 165.085 78.1104 164.744C77.9397 164.403 77.7104 164.163 77.4224 164.024C77.1344 163.885 76.8197 163.816 76.4784 163.816C76.201 163.816 75.9184 163.885 75.6304 164.024C75.3424 164.163 75.1024 164.403 74.9104 164.744C74.729 165.085 74.6384 165.555 74.6384 166.152V170.632C74.6384 170.739 74.601 170.829 74.5264 170.904C74.4624 170.968 74.377 171 74.2704 171H73.5184C73.4117 171 73.321 170.968 73.2464 170.904C73.1824 170.829 73.1504 170.739 73.1504 170.632V166.152C73.1504 165.555 73.0597 165.085 72.8784 164.744C72.697 164.403 72.4624 164.163 72.1744 164.024C71.8864 163.885 71.5824 163.816 71.2624 163.816C70.985 163.816 70.7024 163.885 70.4144 164.024C70.1264 164.163 69.8864 164.403 69.6944 164.744C69.513 165.085 69.4224 165.549 69.4224 166.136V170.632C69.4224 170.739 69.385 170.829 69.3104 170.904C69.2464 170.968 69.161 171 69.0544 171H68.2864ZM85.4491 171.16C84.3505 171.16 83.4758 170.824 82.8251 170.152C82.1745 169.469 81.8171 168.541 81.7531 167.368C81.7425 167.229 81.7371 167.053 81.7371 166.84C81.7371 166.616 81.7425 166.435 81.7531 166.296C81.7958 165.539 81.9718 164.877 82.2811 164.312C82.5905 163.736 83.0118 163.293 83.5451 162.984C84.0891 162.675 84.7238 162.52 85.4491 162.52C86.2598 162.52 86.9371 162.691 87.4811 163.032C88.0358 163.373 88.4571 163.859 88.7451 164.488C89.0331 165.117 89.1771 165.853 89.1771 166.696V166.968C89.1771 167.085 89.1398 167.176 89.0651 167.24C89.0011 167.304 88.9158 167.336 88.8091 167.336H83.2731C83.2731 167.347 83.2731 167.368 83.2731 167.4C83.2731 167.432 83.2731 167.459 83.2731 167.48C83.2945 167.917 83.3905 168.328 83.5611 168.712C83.7318 169.085 83.9771 169.389 84.2971 169.624C84.6171 169.859 85.0011 169.976 85.4491 169.976C85.8331 169.976 86.1531 169.917 86.4091 169.8C86.6651 169.683 86.8731 169.555 87.0331 169.416C87.1931 169.267 87.2998 169.155 87.3531 169.08C87.4491 168.941 87.5238 168.861 87.5771 168.84C87.6305 168.808 87.7158 168.792 87.8331 168.792H88.6011C88.7078 168.792 88.7931 168.824 88.8571 168.888C88.9318 168.941 88.9638 169.021 88.9531 169.128C88.9425 169.288 88.8571 169.485 88.6971 169.72C88.5371 169.944 88.3078 170.168 88.0091 170.392C87.7105 170.616 87.3478 170.803 86.9211 170.952C86.4945 171.091 86.0038 171.16 85.4491 171.16ZM83.2731 166.232H87.6571V166.184C87.6571 165.704 87.5665 165.277 87.3851 164.904C87.2145 164.531 86.9638 164.237 86.6331 164.024C86.3025 163.8 85.9078 163.688 85.4491 163.688C84.9905 163.688 84.5958 163.8 84.2651 164.024C83.9451 164.237 83.6998 164.531 83.5291 164.904C83.3585 165.277 83.2731 165.704 83.2731 166.184V166.232ZM93.4103 171.16C92.8769 171.16 92.3916 171.053 91.9543 170.84C91.5169 170.627 91.1649 170.339 90.8983 169.976C90.6316 169.613 90.4983 169.203 90.4983 168.744C90.4983 168.008 90.7969 167.421 91.3943 166.984C91.9916 166.547 92.7703 166.259 93.7303 166.12L96.1143 165.784V165.32C96.1143 164.808 95.9649 164.408 95.6663 164.12C95.3783 163.832 94.9036 163.688 94.2423 163.688C93.7623 163.688 93.3729 163.784 93.0743 163.976C92.7863 164.168 92.5836 164.413 92.4663 164.712C92.4023 164.872 92.2903 164.952 92.1303 164.952H91.4103C91.2929 164.952 91.2023 164.92 91.1383 164.856C91.0849 164.781 91.0583 164.696 91.0583 164.6C91.0583 164.44 91.1169 164.243 91.2343 164.008C91.3623 163.773 91.5543 163.544 91.8103 163.32C92.0663 163.096 92.3916 162.909 92.7863 162.76C93.1916 162.6 93.6823 162.52 94.2583 162.52C94.8983 162.52 95.4369 162.605 95.8743 162.776C96.3116 162.936 96.6529 163.155 96.8983 163.432C97.1543 163.709 97.3356 164.024 97.4423 164.376C97.5596 164.728 97.6183 165.085 97.6183 165.448V170.632C97.6183 170.739 97.5809 170.829 97.5063 170.904C97.4423 170.968 97.3569 171 97.2503 171H96.5143C96.3969 171 96.3063 170.968 96.2423 170.904C96.1783 170.829 96.1463 170.739 96.1463 170.632V169.944C96.0076 170.136 95.8209 170.328 95.5863 170.52C95.3516 170.701 95.0583 170.856 94.7063 170.984C94.3543 171.101 93.9223 171.16 93.4103 171.16ZM93.7463 169.96C94.1836 169.96 94.5836 169.869 94.9463 169.688C95.3089 169.496 95.5916 169.203 95.7943 168.808C96.0076 168.413 96.1143 167.917 96.1143 167.32V166.872L94.2583 167.144C93.5009 167.251 92.9303 167.432 92.5463 167.688C92.1623 167.933 91.9703 168.248 91.9703 168.632C91.9703 168.931 92.0556 169.181 92.2263 169.384C92.4076 169.576 92.6316 169.72 92.8983 169.816C93.1756 169.912 93.4583 169.96 93.7463 169.96ZM100.286 171C100.18 171 100.089 170.968 100.014 170.904C99.9504 170.829 99.9184 170.739 99.9184 170.632V163.048C99.9184 162.941 99.9504 162.856 100.014 162.792C100.089 162.717 100.18 162.68 100.286 162.68H101.038C101.145 162.68 101.23 162.717 101.294 162.792C101.369 162.856 101.406 162.941 101.406 163.048V163.752C101.684 163.389 102.03 163.096 102.446 162.872C102.873 162.637 103.417 162.52 104.078 162.52C104.772 162.52 105.358 162.675 105.838 162.984C106.329 163.283 106.697 163.704 106.942 164.248C107.188 164.781 107.31 165.405 107.31 166.12V170.632C107.31 170.739 107.278 170.829 107.214 170.904C107.15 170.968 107.065 171 106.958 171H106.158C106.052 171 105.961 170.968 105.886 170.904C105.822 170.829 105.79 170.739 105.79 170.632V166.2C105.79 165.453 105.609 164.872 105.246 164.456C104.884 164.029 104.35 163.816 103.646 163.816C102.985 163.816 102.452 164.029 102.046 164.456C101.652 164.872 101.454 165.453 101.454 166.2V170.632C101.454 170.739 101.417 170.829 101.342 170.904C101.278 170.968 101.193 171 101.086 171H100.286ZM112.502 171.16C111.904 171.16 111.392 171.085 110.966 170.936C110.539 170.787 110.192 170.605 109.926 170.392C109.659 170.179 109.456 169.965 109.318 169.752C109.19 169.539 109.12 169.368 109.11 169.24C109.099 169.123 109.136 169.032 109.222 168.968C109.307 168.904 109.392 168.872 109.478 168.872H110.182C110.246 168.872 110.294 168.883 110.326 168.904C110.368 168.915 110.422 168.957 110.486 169.032C110.624 169.181 110.779 169.331 110.95 169.48C111.12 169.629 111.328 169.752 111.574 169.848C111.83 169.944 112.144 169.992 112.518 169.992C113.062 169.992 113.51 169.891 113.862 169.688C114.214 169.475 114.39 169.165 114.39 168.76C114.39 168.493 114.315 168.28 114.166 168.12C114.027 167.96 113.771 167.816 113.398 167.688C113.035 167.56 112.534 167.427 111.894 167.288C111.254 167.139 110.747 166.957 110.374 166.744C110 166.52 109.734 166.259 109.574 165.96C109.414 165.651 109.334 165.304 109.334 164.92C109.334 164.525 109.451 164.147 109.686 163.784C109.92 163.411 110.262 163.107 110.71 162.872C111.168 162.637 111.739 162.52 112.422 162.52C112.976 162.52 113.451 162.589 113.846 162.728C114.24 162.867 114.566 163.043 114.822 163.256C115.078 163.459 115.27 163.661 115.398 163.864C115.526 164.067 115.595 164.237 115.606 164.376C115.616 164.483 115.584 164.573 115.51 164.648C115.435 164.712 115.35 164.744 115.254 164.744H114.582C114.507 164.744 114.443 164.728 114.39 164.696C114.347 164.664 114.304 164.627 114.262 164.584C114.155 164.445 114.027 164.307 113.878 164.168C113.739 164.029 113.552 163.917 113.318 163.832C113.094 163.736 112.795 163.688 112.422 163.688C111.888 163.688 111.488 163.8 111.222 164.024C110.955 164.248 110.822 164.531 110.822 164.872C110.822 165.075 110.88 165.256 110.998 165.416C111.115 165.576 111.339 165.72 111.67 165.848C112 165.976 112.491 166.115 113.141 166.264C113.846 166.403 114.4 166.589 114.806 166.824C115.211 167.059 115.499 167.331 115.67 167.64C115.84 167.949 115.926 168.307 115.926 168.712C115.926 169.16 115.792 169.571 115.526 169.944C115.27 170.317 114.886 170.616 114.374 170.84C113.872 171.053 113.248 171.16 112.502 171.16ZM122.718 174.04C122.633 174.04 122.558 174.008 122.494 173.944C122.43 173.88 122.398 173.805 122.398 173.72C122.398 173.677 122.403 173.635 122.414 173.592C122.425 173.549 122.446 173.496 122.478 173.432L123.71 170.504L120.654 163.288C120.601 163.16 120.574 163.069 120.574 163.016C120.574 162.92 120.606 162.84 120.67 162.776C120.734 162.712 120.814 162.68 120.91 162.68H121.694C121.801 162.68 121.886 162.707 121.95 162.76C122.014 162.813 122.057 162.877 122.078 162.952L124.51 168.776L127.006 162.952C127.038 162.877 127.081 162.813 127.134 162.76C127.198 162.707 127.289 162.68 127.406 162.68H128.158C128.254 162.68 128.334 162.712 128.398 162.776C128.462 162.84 128.494 162.915 128.494 163C128.494 163.053 128.467 163.149 128.414 163.288L123.87 173.768C123.838 173.843 123.79 173.907 123.726 173.96C123.673 174.013 123.587 174.04 123.47 174.04H122.718ZM133.201 171.16C132.391 171.16 131.713 171.005 131.169 170.696C130.625 170.387 130.209 169.96 129.921 169.416C129.633 168.861 129.473 168.232 129.441 167.528C129.431 167.347 129.425 167.117 129.425 166.84C129.425 166.552 129.431 166.323 129.441 166.152C129.473 165.437 129.633 164.808 129.921 164.264C130.22 163.72 130.641 163.293 131.185 162.984C131.729 162.675 132.401 162.52 133.201 162.52C134.001 162.52 134.673 162.675 135.217 162.984C135.761 163.293 136.177 163.72 136.465 164.264C136.764 164.808 136.929 165.437 136.961 166.152C136.972 166.323 136.977 166.552 136.977 166.84C136.977 167.117 136.972 167.347 136.961 167.528C136.929 168.232 136.769 168.861 136.481 169.416C136.193 169.96 135.777 170.387 135.233 170.696C134.689 171.005 134.012 171.16 133.201 171.16ZM133.201 169.928C133.863 169.928 134.391 169.72 134.785 169.304C135.18 168.877 135.393 168.259 135.425 167.448C135.436 167.288 135.441 167.085 135.441 166.84C135.441 166.595 135.436 166.392 135.425 166.232C135.393 165.421 135.18 164.808 134.785 164.392C134.391 163.965 133.863 163.752 133.201 163.752C132.54 163.752 132.007 163.965 131.601 164.392C131.207 164.808 130.999 165.421 130.977 166.232C130.967 166.392 130.961 166.595 130.961 166.84C130.961 167.085 130.967 167.288 130.977 167.448C130.999 168.259 131.207 168.877 131.601 169.304C132.007 169.72 132.54 169.928 133.201 169.928ZM142.085 171.16C141.402 171.16 140.821 171.011 140.341 170.712C139.872 170.403 139.514 169.976 139.269 169.432C139.024 168.888 138.901 168.264 138.901 167.56V163.048C138.901 162.941 138.933 162.856 138.997 162.792C139.072 162.717 139.162 162.68 139.269 162.68H140.069C140.176 162.68 140.261 162.717 140.325 162.792C140.4 162.856 140.437 162.941 140.437 163.048V167.48C140.437 169.069 141.13 169.864 142.517 169.864C143.178 169.864 143.706 169.656 144.101 169.24C144.506 168.813 144.709 168.227 144.709 167.48V163.048C144.709 162.941 144.741 162.856 144.805 162.792C144.88 162.717 144.97 162.68 145.077 162.68H145.861C145.978 162.68 146.069 162.717 146.133 162.792C146.197 162.856 146.229 162.941 146.229 163.048V170.632C146.229 170.739 146.197 170.829 146.133 170.904C146.069 170.968 145.978 171 145.861 171H145.125C145.018 171 144.928 170.968 144.853 170.904C144.789 170.829 144.757 170.739 144.757 170.632V169.928C144.469 170.301 144.117 170.6 143.701 170.824C143.296 171.048 142.757 171.16 142.085 171.16ZM155.888 171.16C155.13 171.16 154.474 171.016 153.92 170.728C153.376 170.429 152.954 170.008 152.656 169.464C152.357 168.909 152.197 168.248 152.176 167.48C152.165 167.32 152.16 167.107 152.16 166.84C152.16 166.573 152.165 166.36 152.176 166.2C152.197 165.432 152.357 164.776 152.656 164.232C152.954 163.677 153.376 163.256 153.92 162.968C154.474 162.669 155.13 162.52 155.888 162.52C156.506 162.52 157.034 162.605 157.472 162.776C157.92 162.947 158.288 163.165 158.576 163.432C158.864 163.699 159.077 163.987 159.216 164.296C159.365 164.605 159.445 164.899 159.456 165.176C159.466 165.283 159.434 165.368 159.36 165.432C159.285 165.496 159.194 165.528 159.088 165.528H158.32C158.213 165.528 158.133 165.507 158.08 165.464C158.026 165.411 157.973 165.325 157.92 165.208C157.728 164.685 157.466 164.317 157.136 164.104C156.805 163.891 156.394 163.784 155.904 163.784C155.264 163.784 154.741 163.981 154.336 164.376C153.941 164.771 153.728 165.405 153.696 166.28C153.685 166.664 153.685 167.037 153.696 167.4C153.728 168.285 153.941 168.925 154.336 169.32C154.741 169.704 155.264 169.896 155.904 169.896C156.394 169.896 156.805 169.789 157.136 169.576C157.466 169.363 157.728 168.995 157.92 168.472C157.973 168.355 158.026 168.275 158.08 168.232C158.133 168.179 158.213 168.152 158.32 168.152H159.088C159.194 168.152 159.285 168.184 159.36 168.248C159.434 168.312 159.466 168.397 159.456 168.504C159.445 168.728 159.397 168.957 159.312 169.192C159.226 169.427 159.088 169.667 158.896 169.912C158.714 170.147 158.485 170.36 158.208 170.552C157.93 170.733 157.594 170.883 157.2 171C156.816 171.107 156.378 171.16 155.888 171.16ZM163.676 171.16C163.143 171.16 162.657 171.053 162.22 170.84C161.783 170.627 161.431 170.339 161.164 169.976C160.897 169.613 160.764 169.203 160.764 168.744C160.764 168.008 161.063 167.421 161.66 166.984C162.257 166.547 163.036 166.259 163.996 166.12L166.38 165.784V165.32C166.38 164.808 166.231 164.408 165.932 164.12C165.644 163.832 165.169 163.688 164.508 163.688C164.028 163.688 163.639 163.784 163.34 163.976C163.052 164.168 162.849 164.413 162.732 164.712C162.668 164.872 162.556 164.952 162.396 164.952H161.676C161.559 164.952 161.468 164.92 161.404 164.856C161.351 164.781 161.324 164.696 161.324 164.6C161.324 164.44 161.383 164.243 161.5 164.008C161.628 163.773 161.82 163.544 162.076 163.32C162.332 163.096 162.657 162.909 163.052 162.76C163.457 162.6 163.948 162.52 164.524 162.52C165.164 162.52 165.703 162.605 166.14 162.776C166.577 162.936 166.919 163.155 167.164 163.432C167.42 163.709 167.601 164.024 167.708 164.376C167.825 164.728 167.884 165.085 167.884 165.448V170.632C167.884 170.739 167.847 170.829 167.772 170.904C167.708 170.968 167.623 171 167.516 171H166.78C166.663 171 166.572 170.968 166.508 170.904C166.444 170.829 166.412 170.739 166.412 170.632V169.944C166.273 170.136 166.087 170.328 165.852 170.52C165.617 170.701 165.324 170.856 164.972 170.984C164.62 171.101 164.188 171.16 163.676 171.16ZM164.012 169.96C164.449 169.96 164.849 169.869 165.212 169.688C165.575 169.496 165.857 169.203 166.06 168.808C166.273 168.413 166.38 167.917 166.38 167.32V166.872L164.524 167.144C163.767 167.251 163.196 167.432 162.812 167.688C162.428 167.933 162.236 168.248 162.236 168.632C162.236 168.931 162.321 169.181 162.492 169.384C162.673 169.576 162.897 169.72 163.164 169.816C163.441 169.912 163.724 169.96 164.012 169.96ZM170.552 171C170.445 171 170.355 170.968 170.28 170.904C170.216 170.829 170.184 170.739 170.184 170.632V163.048C170.184 162.941 170.216 162.856 170.28 162.792C170.355 162.717 170.445 162.68 170.552 162.68H171.304C171.411 162.68 171.496 162.717 171.56 162.792C171.635 162.856 171.672 162.941 171.672 163.048V163.752C171.949 163.389 172.296 163.096 172.712 162.872C173.139 162.637 173.683 162.52 174.344 162.52C175.037 162.52 175.624 162.675 176.104 162.984C176.595 163.283 176.963 163.704 177.208 164.248C177.453 164.781 177.576 165.405 177.576 166.12V170.632C177.576 170.739 177.544 170.829 177.48 170.904C177.416 170.968 177.331 171 177.224 171H176.424C176.317 171 176.227 170.968 176.152 170.904C176.088 170.829 176.056 170.739 176.056 170.632V166.2C176.056 165.453 175.875 164.872 175.512 164.456C175.149 164.029 174.616 163.816 173.912 163.816C173.251 163.816 172.717 164.029 172.312 164.456C171.917 164.872 171.72 165.453 171.72 166.2V170.632C171.72 170.739 171.683 170.829 171.608 170.904C171.544 170.968 171.459 171 171.352 171H170.552ZM186.913 171.16C186.23 171.16 185.649 171.011 185.169 170.712C184.7 170.403 184.342 169.976 184.097 169.432C183.852 168.888 183.729 168.264 183.729 167.56V163.048C183.729 162.941 183.761 162.856 183.825 162.792C183.9 162.717 183.99 162.68 184.097 162.68H184.897C185.004 162.68 185.089 162.717 185.153 162.792C185.228 162.856 185.265 162.941 185.265 163.048V167.48C185.265 169.069 185.958 169.864 187.345 169.864C188.006 169.864 188.534 169.656 188.929 169.24C189.334 168.813 189.537 168.227 189.537 167.48V163.048C189.537 162.941 189.569 162.856 189.633 162.792C189.708 162.717 189.798 162.68 189.905 162.68H190.689C190.806 162.68 190.897 162.717 190.961 162.792C191.025 162.856 191.057 162.941 191.057 163.048V170.632C191.057 170.739 191.025 170.829 190.961 170.904C190.897 170.968 190.806 171 190.689 171H189.953C189.846 171 189.756 170.968 189.681 170.904C189.617 170.829 189.585 170.739 189.585 170.632V169.928C189.297 170.301 188.945 170.6 188.529 170.824C188.124 171.048 187.585 171.16 186.913 171.16ZM196.314 171.16C195.717 171.16 195.205 171.085 194.778 170.936C194.351 170.787 194.005 170.605 193.738 170.392C193.471 170.179 193.269 169.965 193.13 169.752C193.002 169.539 192.933 169.368 192.922 169.24C192.911 169.123 192.949 169.032 193.034 168.968C193.119 168.904 193.205 168.872 193.29 168.872H193.994C194.058 168.872 194.106 168.883 194.138 168.904C194.181 168.915 194.234 168.957 194.298 169.032C194.437 169.181 194.591 169.331 194.762 169.48C194.933 169.629 195.141 169.752 195.386 169.848C195.642 169.944 195.957 169.992 196.33 169.992C196.874 169.992 197.322 169.891 197.674 169.688C198.026 169.475 198.202 169.165 198.202 168.76C198.202 168.493 198.127 168.28 197.978 168.12C197.839 167.96 197.583 167.816 197.21 167.688C196.847 167.56 196.346 167.427 195.706 167.288C195.066 167.139 194.559 166.957 194.186 166.744C193.813 166.52 193.546 166.259 193.386 165.96C193.226 165.651 193.146 165.304 193.146 164.92C193.146 164.525 193.263 164.147 193.498 163.784C193.733 163.411 194.074 163.107 194.522 162.872C194.981 162.637 195.551 162.52 196.234 162.52C196.789 162.52 197.263 162.589 197.658 162.728C198.053 162.867 198.378 163.043 198.634 163.256C198.89 163.459 199.082 163.661 199.21 163.864C199.338 164.067 199.407 164.237 199.418 164.376C199.429 164.483 199.397 164.573 199.322 164.648C199.247 164.712 199.162 164.744 199.066 164.744H198.394C198.319 164.744 198.255 164.728 198.202 164.696C198.159 164.664 198.117 164.627 198.074 164.584C197.967 164.445 197.839 164.307 197.69 164.168C197.551 164.029 197.365 163.917 197.13 163.832C196.906 163.736 196.607 163.688 196.234 163.688C195.701 163.688 195.301 163.8 195.034 164.024C194.767 164.248 194.634 164.531 194.634 164.872C194.634 165.075 194.693 165.256 194.81 165.416C194.927 165.576 195.151 165.72 195.482 165.848C195.813 165.976 196.303 166.115 196.954 166.264C197.658 166.403 198.213 166.589 198.618 166.824C199.023 167.059 199.311 167.331 199.482 167.64C199.653 167.949 199.738 168.307 199.738 168.712C199.738 169.16 199.605 169.571 199.338 169.944C199.082 170.317 198.698 170.616 198.186 170.84C197.685 171.053 197.061 171.16 196.314 171.16ZM204.902 171.16C203.804 171.16 202.929 170.824 202.278 170.152C201.628 169.469 201.27 168.541 201.206 167.368C201.196 167.229 201.19 167.053 201.19 166.84C201.19 166.616 201.196 166.435 201.206 166.296C201.249 165.539 201.425 164.877 201.734 164.312C202.044 163.736 202.465 163.293 202.998 162.984C203.542 162.675 204.177 162.52 204.902 162.52C205.713 162.52 206.39 162.691 206.934 163.032C207.489 163.373 207.91 163.859 208.198 164.488C208.486 165.117 208.63 165.853 208.63 166.696V166.968C208.63 167.085 208.593 167.176 208.518 167.24C208.454 167.304 208.369 167.336 208.262 167.336H202.726C202.726 167.347 202.726 167.368 202.726 167.4C202.726 167.432 202.726 167.459 202.726 167.48C202.748 167.917 202.844 168.328 203.014 168.712C203.185 169.085 203.43 169.389 203.75 169.624C204.07 169.859 204.454 169.976 204.902 169.976C205.286 169.976 205.606 169.917 205.862 169.8C206.118 169.683 206.326 169.555 206.486 169.416C206.646 169.267 206.753 169.155 206.806 169.08C206.902 168.941 206.977 168.861 207.03 168.84C207.084 168.808 207.169 168.792 207.286 168.792H208.054C208.161 168.792 208.246 168.824 208.31 168.888C208.385 168.941 208.417 169.021 208.406 169.128C208.396 169.288 208.31 169.485 208.15 169.72C207.99 169.944 207.761 170.168 207.462 170.392C207.164 170.616 206.801 170.803 206.374 170.952C205.948 171.091 205.457 171.16 204.902 171.16ZM202.726 166.232H207.11V166.184C207.11 165.704 207.02 165.277 206.838 164.904C206.668 164.531 206.417 164.237 206.086 164.024C205.756 163.8 205.361 163.688 204.902 163.688C204.444 163.688 204.049 163.8 203.718 164.024C203.398 164.237 203.153 164.531 202.982 164.904C202.812 165.277 202.726 165.704 202.726 166.184V166.232ZM214.833 171C214.727 171 214.636 170.968 214.561 170.904C214.497 170.829 214.465 170.739 214.465 170.632V163.048C214.465 162.941 214.497 162.856 214.561 162.792C214.636 162.717 214.727 162.68 214.833 162.68H215.601C215.708 162.68 215.793 162.717 215.857 162.792C215.921 162.856 215.953 162.941 215.953 163.048V170.632C215.953 170.739 215.921 170.829 215.857 170.904C215.793 170.968 215.708 171 215.601 171H214.833ZM214.705 161.128C214.599 161.128 214.508 161.096 214.433 161.032C214.369 160.957 214.337 160.867 214.337 160.76V159.896C214.337 159.789 214.369 159.704 214.433 159.64C214.508 159.565 214.599 159.528 214.705 159.528H215.713C215.82 159.528 215.905 159.565 215.969 159.64C216.044 159.704 216.081 159.789 216.081 159.896V160.76C216.081 160.867 216.044 160.957 215.969 161.032C215.905 161.096 215.82 161.128 215.713 161.128H214.705ZM221.588 171C220.991 171 220.506 170.888 220.132 170.664C219.759 170.429 219.487 170.104 219.316 169.688C219.146 169.261 219.06 168.76 219.06 168.184V163.96H217.812C217.706 163.96 217.615 163.928 217.54 163.864C217.476 163.789 217.444 163.699 217.444 163.592V163.048C217.444 162.941 217.476 162.856 217.54 162.792C217.615 162.717 217.706 162.68 217.812 162.68H219.06V160.008C219.06 159.901 219.092 159.816 219.156 159.752C219.231 159.677 219.322 159.64 219.428 159.64H220.18C220.287 159.64 220.372 159.677 220.436 159.752C220.511 159.816 220.548 159.901 220.548 160.008V162.68H222.532C222.639 162.68 222.724 162.717 222.788 162.792C222.863 162.856 222.9 162.941 222.9 163.048V163.592C222.9 163.699 222.863 163.789 222.788 163.864C222.724 163.928 222.639 163.96 222.532 163.96H220.548V168.072C220.548 168.573 220.634 168.968 220.804 169.256C220.975 169.544 221.279 169.688 221.716 169.688H222.692C222.799 169.688 222.884 169.725 222.948 169.8C223.023 169.864 223.06 169.949 223.06 170.056V170.632C223.06 170.739 223.023 170.829 222.948 170.904C222.884 170.968 222.799 171 222.692 171H221.588ZM36.592 190.16C35.7813 190.16 35.104 190.005 34.56 189.696C34.016 189.387 33.6 188.96 33.312 188.416C33.024 187.861 32.864 187.232 32.832 186.528C32.8213 186.347 32.816 186.117 32.816 185.84C32.816 185.552 32.8213 185.323 32.832 185.152C32.864 184.437 33.024 183.808 33.312 183.264C33.6107 182.72 34.032 182.293 34.576 181.984C35.12 181.675 35.792 181.52 36.592 181.52C37.392 181.52 38.064 181.675 38.608 181.984C39.152 182.293 39.568 182.72 39.856 183.264C40.1547 183.808 40.32 184.437 40.352 185.152C40.3627 185.323 40.368 185.552 40.368 185.84C40.368 186.117 40.3627 186.347 40.352 186.528C40.32 187.232 40.16 187.861 39.872 188.416C39.584 188.96 39.168 189.387 38.624 189.696C38.08 190.005 37.4027 190.16 36.592 190.16ZM36.592 188.928C37.2533 188.928 37.7813 188.72 38.176 188.304C38.5707 187.877 38.784 187.259 38.816 186.448C38.8267 186.288 38.832 186.085 38.832 185.84C38.832 185.595 38.8267 185.392 38.816 185.232C38.784 184.421 38.5707 183.808 38.176 183.392C37.7813 182.965 37.2533 182.752 36.592 182.752C35.9307 182.752 35.3973 182.965 34.992 183.392C34.5973 183.808 34.3893 184.421 34.368 185.232C34.3573 185.392 34.352 185.595 34.352 185.84C34.352 186.085 34.3573 186.288 34.368 186.448C34.3893 187.259 34.5973 187.877 34.992 188.304C35.3973 188.72 35.9307 188.928 36.592 188.928ZM42.7395 190C42.6328 190 42.5422 189.968 42.4675 189.904C42.4035 189.829 42.3715 189.739 42.3715 189.632V182.048C42.3715 181.941 42.4035 181.856 42.4675 181.792C42.5422 181.717 42.6328 181.68 42.7395 181.68H43.4915C43.5982 181.68 43.6835 181.717 43.7475 181.792C43.8222 181.856 43.8595 181.941 43.8595 182.048V182.752C44.1368 182.389 44.4835 182.096 44.8995 181.872C45.3262 181.637 45.8702 181.52 46.5315 181.52C47.2248 181.52 47.8115 181.675 48.2915 181.984C48.7822 182.283 49.1502 182.704 49.3955 183.248C49.6408 183.781 49.7635 184.405 49.7635 185.12V189.632C49.7635 189.739 49.7315 189.829 49.6675 189.904C49.6035 189.968 49.5182 190 49.4115 190H48.6115C48.5048 190 48.4142 189.968 48.3395 189.904C48.2755 189.829 48.2435 189.739 48.2435 189.632V185.2C48.2435 184.453 48.0622 183.872 47.6995 183.456C47.3368 183.029 46.8035 182.816 46.0995 182.816C45.4382 182.816 44.9048 183.029 44.4995 183.456C44.1048 183.872 43.9075 184.453 43.9075 185.2V189.632C43.9075 189.739 43.8702 189.829 43.7955 189.904C43.7315 189.968 43.6462 190 43.5395 190H42.7395ZM58.3165 190.16C57.7832 190.16 57.2978 190.053 56.8605 189.84C56.4232 189.627 56.0712 189.339 55.8045 188.976C55.5378 188.613 55.4045 188.203 55.4045 187.744C55.4045 187.008 55.7032 186.421 56.3005 185.984C56.8978 185.547 57.6765 185.259 58.6365 185.12L61.0205 184.784V184.32C61.0205 183.808 60.8712 183.408 60.5725 183.12C60.2845 182.832 59.8098 182.688 59.1485 182.688C58.6685 182.688 58.2792 182.784 57.9805 182.976C57.6925 183.168 57.4898 183.413 57.3725 183.712C57.3085 183.872 57.1965 183.952 57.0365 183.952H56.3165C56.1992 183.952 56.1085 183.92 56.0445 183.856C55.9912 183.781 55.9645 183.696 55.9645 183.6C55.9645 183.44 56.0232 183.243 56.1405 183.008C56.2685 182.773 56.4605 182.544 56.7165 182.32C56.9725 182.096 57.2978 181.909 57.6925 181.76C58.0978 181.6 58.5885 181.52 59.1645 181.52C59.8045 181.52 60.3432 181.605 60.7805 181.776C61.2178 181.936 61.5592 182.155 61.8045 182.432C62.0605 182.709 62.2418 183.024 62.3485 183.376C62.4658 183.728 62.5245 184.085 62.5245 184.448V189.632C62.5245 189.739 62.4872 189.829 62.4125 189.904C62.3485 189.968 62.2632 190 62.1565 190H61.4205C61.3032 190 61.2125 189.968 61.1485 189.904C61.0845 189.829 61.0525 189.739 61.0525 189.632V188.944C60.9138 189.136 60.7272 189.328 60.4925 189.52C60.2578 189.701 59.9645 189.856 59.6125 189.984C59.2605 190.101 58.8285 190.16 58.3165 190.16ZM58.6525 188.96C59.0898 188.96 59.4898 188.869 59.8525 188.688C60.2152 188.496 60.4978 188.203 60.7005 187.808C60.9138 187.413 61.0205 186.917 61.0205 186.32V185.872L59.1645 186.144C58.4072 186.251 57.8365 186.432 57.4525 186.688C57.0685 186.933 56.8765 187.248 56.8765 187.632C56.8765 187.931 56.9618 188.181 57.1325 188.384C57.3138 188.576 57.5378 188.72 57.8045 188.816C58.0818 188.912 58.3645 188.96 58.6525 188.96ZM65.1926 190C65.086 190 64.9953 189.968 64.9206 189.904C64.8566 189.829 64.8246 189.739 64.8246 189.632V182.048C64.8246 181.941 64.8566 181.856 64.9206 181.792C64.9953 181.717 65.086 181.68 65.1926 181.68H65.9446C66.0513 181.68 66.1366 181.717 66.2006 181.792C66.2753 181.856 66.3126 181.941 66.3126 182.048V182.752C66.59 182.389 66.9366 182.096 67.3526 181.872C67.7793 181.637 68.3233 181.52 68.9846 181.52C69.678 181.52 70.2646 181.675 70.7446 181.984C71.2353 182.283 71.6033 182.704 71.8486 183.248C72.094 183.781 72.2166 184.405 72.2166 185.12V189.632C72.2166 189.739 72.1846 189.829 72.1206 189.904C72.0566 189.968 71.9713 190 71.8646 190H71.0646C70.958 190 70.8673 189.968 70.7926 189.904C70.7286 189.829 70.6966 189.739 70.6966 189.632V185.2C70.6966 184.453 70.5153 183.872 70.1526 183.456C69.79 183.029 69.2566 182.816 68.5526 182.816C67.8913 182.816 67.358 183.029 66.9526 183.456C66.558 183.872 66.3606 184.453 66.3606 185.2V189.632C66.3606 189.739 66.3233 189.829 66.2486 189.904C66.1846 189.968 66.0993 190 65.9926 190H65.1926ZM75.7338 193.04C75.6484 193.04 75.5738 193.008 75.5098 192.944C75.4458 192.88 75.4138 192.805 75.4138 192.72C75.4138 192.677 75.4191 192.635 75.4298 192.592C75.4404 192.549 75.4618 192.496 75.4938 192.432L76.7258 189.504L73.6698 182.288C73.6164 182.16 73.5898 182.069 73.5898 182.016C73.5898 181.92 73.6218 181.84 73.6858 181.776C73.7498 181.712 73.8298 181.68 73.9258 181.68H74.7098C74.8164 181.68 74.9018 181.707 74.9658 181.76C75.0298 181.813 75.0724 181.877 75.0938 181.952L77.5258 187.776L80.0218 181.952C80.0538 181.877 80.0964 181.813 80.1498 181.76C80.2138 181.707 80.3044 181.68 80.4218 181.68H81.1737C81.2697 181.68 81.3498 181.712 81.4138 181.776C81.4778 181.84 81.5098 181.915 81.5098 182C81.5098 182.053 81.4831 182.149 81.4298 182.288L76.8858 192.768C76.8538 192.843 76.8058 192.907 76.7418 192.96C76.6884 193.013 76.6031 193.04 76.4858 193.04H75.7338ZM89.6302 190.16C89.0436 190.16 88.5369 190.059 88.1103 189.856C87.6836 189.643 87.3316 189.36 87.0543 189.008C86.7876 188.645 86.5849 188.235 86.4463 187.776C86.3183 187.317 86.2436 186.832 86.2223 186.32C86.2116 186.149 86.2063 185.989 86.2063 185.84C86.2063 185.691 86.2116 185.531 86.2223 185.36C86.2436 184.859 86.3183 184.379 86.4463 183.92C86.5849 183.461 86.7876 183.051 87.0543 182.688C87.3316 182.325 87.6836 182.043 88.1103 181.84C88.5369 181.627 89.0436 181.52 89.6302 181.52C90.2596 181.52 90.7823 181.632 91.1983 181.856C91.6143 182.08 91.9556 182.357 92.2223 182.688V179.008C92.2223 178.901 92.2543 178.816 92.3183 178.752C92.3929 178.677 92.4836 178.64 92.5903 178.64H93.3583C93.4649 178.64 93.5503 178.677 93.6143 178.752C93.6889 178.816 93.7263 178.901 93.7263 179.008V189.632C93.7263 189.739 93.6889 189.829 93.6143 189.904C93.5503 189.968 93.4649 190 93.3583 190H92.6383C92.5209 190 92.4303 189.968 92.3663 189.904C92.3023 189.829 92.2703 189.739 92.2703 189.632V188.96C92.0036 189.301 91.6569 189.589 91.2303 189.824C90.8036 190.048 90.2703 190.16 89.6302 190.16ZM89.9663 188.864C90.4996 188.864 90.9263 188.741 91.2463 188.496C91.5663 188.251 91.8063 187.941 91.9663 187.568C92.1263 187.184 92.2116 186.795 92.2223 186.4C92.2329 186.229 92.2383 186.027 92.2383 185.792C92.2383 185.547 92.2329 185.339 92.2223 185.168C92.2116 184.795 92.1209 184.427 91.9503 184.064C91.7903 183.701 91.5449 183.403 91.2143 183.168C90.8943 182.933 90.4783 182.816 89.9663 182.816C89.4223 182.816 88.9903 182.939 88.6703 183.184C88.3503 183.419 88.1209 183.733 87.9823 184.128C87.8436 184.512 87.7636 184.928 87.7423 185.376C87.7316 185.685 87.7316 185.995 87.7423 186.304C87.7636 186.752 87.8436 187.173 87.9823 187.568C88.1209 187.952 88.3503 188.267 88.6703 188.512C88.9903 188.747 89.4223 188.864 89.9663 188.864ZM99.4179 190.16C98.3192 190.16 97.4445 189.824 96.7939 189.152C96.1432 188.469 95.7859 187.541 95.7219 186.368C95.7112 186.229 95.7059 186.053 95.7059 185.84C95.7059 185.616 95.7112 185.435 95.7219 185.296C95.7645 184.539 95.9405 183.877 96.2499 183.312C96.5592 182.736 96.9805 182.293 97.5139 181.984C98.0579 181.675 98.6925 181.52 99.4179 181.52C100.229 181.52 100.906 181.691 101.45 182.032C102.005 182.373 102.426 182.859 102.714 183.488C103.002 184.117 103.146 184.853 103.146 185.696V185.968C103.146 186.085 103.109 186.176 103.034 186.24C102.97 186.304 102.885 186.336 102.778 186.336H97.2419C97.2419 186.347 97.2419 186.368 97.2419 186.4C97.2419 186.432 97.2419 186.459 97.2419 186.48C97.2632 186.917 97.3592 187.328 97.5299 187.712C97.7005 188.085 97.9459 188.389 98.2659 188.624C98.5859 188.859 98.9699 188.976 99.4179 188.976C99.8019 188.976 100.122 188.917 100.378 188.8C100.634 188.683 100.842 188.555 101.002 188.416C101.162 188.267 101.269 188.155 101.322 188.08C101.418 187.941 101.493 187.861 101.546 187.84C101.599 187.808 101.685 187.792 101.802 187.792H102.57C102.677 187.792 102.762 187.824 102.826 187.888C102.901 187.941 102.933 188.021 102.922 188.128C102.911 188.288 102.826 188.485 102.666 188.72C102.506 188.944 102.277 189.168 101.978 189.392C101.679 189.616 101.317 189.803 100.89 189.952C100.463 190.091 99.9725 190.16 99.4179 190.16ZM97.2419 185.232H101.626V185.184C101.626 184.704 101.535 184.277 101.354 183.904C101.183 183.531 100.933 183.237 100.602 183.024C100.271 182.8 99.8765 182.688 99.4179 182.688C98.9592 182.688 98.5645 182.8 98.2339 183.024C97.9139 183.237 97.6685 183.531 97.4979 183.904C97.3272 184.277 97.2419 184.704 97.2419 185.184V185.232ZM107.674 190C107.514 190 107.386 189.963 107.29 189.888C107.204 189.813 107.135 189.717 107.082 189.6L104.122 182.176C104.1 182.123 104.09 182.069 104.09 182.016C104.09 181.92 104.122 181.84 104.186 181.776C104.25 181.712 104.33 181.68 104.426 181.68H105.194C105.311 181.68 105.402 181.712 105.466 181.776C105.53 181.84 105.567 181.899 105.578 181.952L108.026 188.256L110.458 181.952C110.479 181.899 110.516 181.84 110.57 181.776C110.634 181.712 110.724 181.68 110.842 181.68H111.626C111.711 181.68 111.786 181.712 111.85 181.776C111.924 181.84 111.962 181.92 111.962 182.016C111.962 182.069 111.951 182.123 111.93 182.176L108.954 189.6C108.911 189.717 108.842 189.813 108.746 189.888C108.66 189.963 108.532 190 108.362 190H107.674ZM114.005 190C113.898 190 113.808 189.968 113.733 189.904C113.669 189.829 113.637 189.739 113.637 189.632V182.048C113.637 181.941 113.669 181.856 113.733 181.792C113.808 181.717 113.898 181.68 114.005 181.68H114.773C114.88 181.68 114.965 181.717 115.029 181.792C115.093 181.856 115.125 181.941 115.125 182.048V189.632C115.125 189.739 115.093 189.829 115.029 189.904C114.965 189.968 114.88 190 114.773 190H114.005ZM113.877 180.128C113.77 180.128 113.68 180.096 113.605 180.032C113.541 179.957 113.509 179.867 113.509 179.76V178.896C113.509 178.789 113.541 178.704 113.605 178.64C113.68 178.565 113.77 178.528 113.877 178.528H114.885C114.992 178.528 115.077 178.565 115.141 178.64C115.216 178.704 115.253 178.789 115.253 178.896V179.76C115.253 179.867 115.216 179.957 115.141 180.032C115.077 180.096 114.992 180.128 114.885 180.128H113.877ZM120.903 190.16C120.146 190.16 119.49 190.016 118.935 189.728C118.391 189.429 117.97 189.008 117.671 188.464C117.373 187.909 117.213 187.248 117.191 186.48C117.181 186.32 117.175 186.107 117.175 185.84C117.175 185.573 117.181 185.36 117.191 185.2C117.213 184.432 117.373 183.776 117.671 183.232C117.97 182.677 118.391 182.256 118.935 181.968C119.49 181.669 120.146 181.52 120.903 181.52C121.522 181.52 122.05 181.605 122.487 181.776C122.935 181.947 123.303 182.165 123.591 182.432C123.879 182.699 124.093 182.987 124.231 183.296C124.381 183.605 124.461 183.899 124.471 184.176C124.482 184.283 124.45 184.368 124.375 184.432C124.301 184.496 124.21 184.528 124.103 184.528H123.335C123.229 184.528 123.149 184.507 123.095 184.464C123.042 184.411 122.989 184.325 122.935 184.208C122.743 183.685 122.482 183.317 122.151 183.104C121.821 182.891 121.41 182.784 120.919 182.784C120.279 182.784 119.757 182.981 119.351 183.376C118.957 183.771 118.743 184.405 118.711 185.28C118.701 185.664 118.701 186.037 118.711 186.4C118.743 187.285 118.957 187.925 119.351 188.32C119.757 188.704 120.279 188.896 120.919 188.896C121.41 188.896 121.821 188.789 122.151 188.576C122.482 188.363 122.743 187.995 122.935 187.472C122.989 187.355 123.042 187.275 123.095 187.232C123.149 187.179 123.229 187.152 123.335 187.152H124.103C124.21 187.152 124.301 187.184 124.375 187.248C124.45 187.312 124.482 187.397 124.471 187.504C124.461 187.728 124.413 187.957 124.327 188.192C124.242 188.427 124.103 188.667 123.911 188.912C123.73 189.147 123.501 189.36 123.223 189.552C122.946 189.733 122.61 189.883 122.215 190C121.831 190.107 121.394 190.16 120.903 190.16ZM129.684 190.16C128.585 190.16 127.71 189.824 127.06 189.152C126.409 188.469 126.052 187.541 125.988 186.368C125.977 186.229 125.972 186.053 125.972 185.84C125.972 185.616 125.977 185.435 125.988 185.296C126.03 184.539 126.206 183.877 126.516 183.312C126.825 182.736 127.246 182.293 127.78 181.984C128.324 181.675 128.958 181.52 129.684 181.52C130.494 181.52 131.172 181.691 131.716 182.032C132.27 182.373 132.692 182.859 132.98 183.488C133.268 184.117 133.411 184.853 133.411 185.696V185.968C133.411 186.085 133.374 186.176 133.3 186.24C133.236 186.304 133.15 186.336 133.044 186.336H127.508C127.508 186.347 127.508 186.368 127.508 186.4C127.508 186.432 127.508 186.459 127.508 186.48C127.529 186.917 127.625 187.328 127.796 187.712C127.966 188.085 128.212 188.389 128.532 188.624C128.852 188.859 129.236 188.976 129.684 188.976C130.068 188.976 130.388 188.917 130.644 188.8C130.9 188.683 131.108 188.555 131.268 188.416C131.428 188.267 131.534 188.155 131.588 188.08C131.684 187.941 131.758 187.861 131.812 187.84C131.865 187.808 131.95 187.792 132.068 187.792H132.836C132.942 187.792 133.028 187.824 133.092 187.888C133.166 187.941 133.198 188.021 133.188 188.128C133.177 188.288 133.092 188.485 132.932 188.72C132.772 188.944 132.542 189.168 132.244 189.392C131.945 189.616 131.582 189.803 131.156 189.952C130.729 190.091 130.238 190.16 129.684 190.16ZM127.508 185.232H131.892V185.184C131.892 184.704 131.801 184.277 131.62 183.904C131.449 183.531 131.198 183.237 130.868 183.024C130.537 182.8 130.142 182.688 129.684 182.688C129.225 182.688 128.83 182.8 128.5 183.024C128.18 183.237 127.934 183.531 127.764 183.904C127.593 184.277 127.508 184.704 127.508 185.184V185.232ZM141.08 190C140.941 190 140.834 189.968 140.76 189.904C140.685 189.829 140.621 189.728 140.568 189.6L138.296 182.176C138.274 182.123 138.264 182.069 138.264 182.016C138.264 181.92 138.296 181.84 138.36 181.776C138.434 181.712 138.514 181.68 138.6 181.68H139.304C139.421 181.68 139.512 181.712 139.576 181.776C139.64 181.84 139.682 181.899 139.704 181.952L141.48 187.984L143.384 182.016C143.405 181.941 143.448 181.867 143.512 181.792C143.586 181.717 143.693 181.68 143.832 181.68H144.376C144.514 181.68 144.621 181.717 144.696 181.792C144.77 181.867 144.813 181.941 144.824 182.016L146.727 187.984L148.504 181.952C148.514 181.899 148.552 181.84 148.616 181.776C148.68 181.712 148.77 181.68 148.888 181.68H149.592C149.688 181.68 149.768 181.712 149.832 181.776C149.896 181.84 149.928 181.92 149.928 182.016C149.928 182.069 149.917 182.123 149.896 182.176L147.624 189.6C147.592 189.728 147.533 189.829 147.448 189.904C147.373 189.968 147.261 190 147.112 190H146.488C146.349 190 146.231 189.968 146.135 189.904C146.05 189.829 145.992 189.728 145.96 189.6L144.104 183.872L142.248 189.6C142.205 189.728 142.141 189.829 142.056 189.904C141.97 189.968 141.853 190 141.704 190H141.08ZM152.068 190C151.961 190 151.87 189.968 151.796 189.904C151.732 189.829 151.7 189.739 151.7 189.632V182.048C151.7 181.941 151.732 181.856 151.796 181.792C151.87 181.717 151.961 181.68 152.068 181.68H152.836C152.942 181.68 153.028 181.717 153.092 181.792C153.156 181.856 153.188 181.941 153.188 182.048V189.632C153.188 189.739 153.156 189.829 153.092 189.904C153.028 189.968 152.942 190 152.836 190H152.068ZM151.94 180.128C151.833 180.128 151.742 180.096 151.668 180.032C151.604 179.957 151.572 179.867 151.572 179.76V178.896C151.572 178.789 151.604 178.704 151.668 178.64C151.742 178.565 151.833 178.528 151.94 178.528H152.948C153.054 178.528 153.14 178.565 153.204 178.64C153.278 178.704 153.316 178.789 153.316 178.896V179.76C153.316 179.867 153.278 179.957 153.204 180.032C153.14 180.096 153.054 180.128 152.948 180.128H151.94ZM158.823 190C158.225 190 157.74 189.888 157.367 189.664C156.993 189.429 156.721 189.104 156.551 188.688C156.38 188.261 156.295 187.76 156.295 187.184V182.96H155.047C154.94 182.96 154.849 182.928 154.775 182.864C154.711 182.789 154.679 182.699 154.679 182.592V182.048C154.679 181.941 154.711 181.856 154.775 181.792C154.849 181.717 154.94 181.68 155.047 181.68H156.295V179.008C156.295 178.901 156.327 178.816 156.391 178.752C156.465 178.677 156.556 178.64 156.663 178.64H157.415C157.521 178.64 157.607 178.677 157.671 178.752C157.745 178.816 157.783 178.901 157.783 179.008V181.68H159.767C159.873 181.68 159.959 181.717 160.023 181.792C160.097 181.856 160.135 181.941 160.135 182.048V182.592C160.135 182.699 160.097 182.789 160.023 182.864C159.959 182.928 159.873 182.96 159.767 182.96H157.783V187.072C157.783 187.573 157.868 187.968 158.039 188.256C158.209 188.544 158.513 188.688 158.951 188.688H159.927C160.033 188.688 160.119 188.725 160.183 188.8C160.257 188.864 160.295 188.949 160.295 189.056V189.632C160.295 189.739 160.257 189.829 160.183 189.904C160.119 189.968 160.033 190 159.927 190H158.823ZM162.209 190C162.102 190 162.011 189.968 161.937 189.904C161.873 189.829 161.841 189.739 161.841 189.632V179.008C161.841 178.901 161.873 178.816 161.937 178.752C162.011 178.677 162.102 178.64 162.209 178.64H163.009C163.126 178.64 163.217 178.677 163.281 178.752C163.345 178.816 163.377 178.901 163.377 179.008V182.736C163.665 182.373 164.017 182.08 164.433 181.856C164.849 181.632 165.377 181.52 166.017 181.52C166.71 181.52 167.297 181.675 167.777 181.984C168.267 182.283 168.635 182.704 168.881 183.248C169.137 183.781 169.265 184.405 169.265 185.12V189.632C169.265 189.739 169.233 189.829 169.169 189.904C169.105 189.968 169.014 190 168.897 190H168.097C167.99 190 167.899 189.968 167.825 189.904C167.761 189.829 167.729 189.739 167.729 189.632V185.2C167.729 184.453 167.547 183.872 167.185 183.456C166.822 183.029 166.289 182.816 165.585 182.816C164.923 182.816 164.39 183.029 163.985 183.456C163.579 183.872 163.377 184.453 163.377 185.2V189.632C163.377 189.739 163.345 189.829 163.281 189.904C163.217 189.968 163.126 190 163.009 190H162.209ZM33.552 209C33.4453 209 33.3547 208.968 33.28 208.904C33.216 208.829 33.184 208.739 33.184 208.632V201.048C33.184 200.941 33.216 200.856 33.28 200.792C33.3547 200.717 33.4453 200.68 33.552 200.68H34.32C34.4267 200.68 34.512 200.717 34.576 200.792C34.64 200.856 34.672 200.941 34.672 201.048V208.632C34.672 208.739 34.64 208.829 34.576 208.904C34.512 208.968 34.4267 209 34.32 209H33.552ZM33.424 199.128C33.3173 199.128 33.2267 199.096 33.152 199.032C33.088 198.957 33.056 198.867 33.056 198.76V197.896C33.056 197.789 33.088 197.704 33.152 197.64C33.2267 197.565 33.3173 197.528 33.424 197.528H34.432C34.5387 197.528 34.624 197.565 34.688 197.64C34.7627 197.704 34.8 197.789 34.8 197.896V198.76C34.8 198.867 34.7627 198.957 34.688 199.032C34.624 199.096 34.5387 199.128 34.432 199.128H33.424ZM37.5833 209C37.4766 209 37.3859 208.968 37.3113 208.904C37.2473 208.829 37.2153 208.739 37.2153 208.632V201.048C37.2153 200.941 37.2473 200.856 37.3113 200.792C37.3859 200.717 37.4766 200.68 37.5833 200.68H38.3353C38.4419 200.68 38.5273 200.717 38.5913 200.792C38.6659 200.856 38.7033 200.941 38.7033 201.048V201.752C38.9806 201.389 39.3273 201.096 39.7433 200.872C40.1699 200.637 40.7139 200.52 41.3753 200.52C42.0686 200.52 42.6553 200.675 43.1353 200.984C43.6259 201.283 43.9939 201.704 44.2393 202.248C44.4846 202.781 44.6073 203.405 44.6073 204.12V208.632C44.6073 208.739 44.5753 208.829 44.5113 208.904C44.4473 208.968 44.3619 209 44.2552 209H43.4553C43.3486 209 43.2579 208.968 43.1833 208.904C43.1193 208.829 43.0873 208.739 43.0873 208.632V204.2C43.0873 203.453 42.9059 202.872 42.5433 202.456C42.1806 202.029 41.6473 201.816 40.9433 201.816C40.2819 201.816 39.7486 202.029 39.3433 202.456C38.9486 202.872 38.7513 203.453 38.7513 204.2V208.632C38.7513 208.739 38.7139 208.829 38.6393 208.904C38.5753 208.968 38.4899 209 38.3832 209H37.5833ZM50.057 209C49.4597 209 48.9743 208.888 48.601 208.664C48.2277 208.429 47.9557 208.104 47.785 207.688C47.6143 207.261 47.529 206.76 47.529 206.184V201.96H46.281C46.1743 201.96 46.0837 201.928 46.009 201.864C45.945 201.789 45.913 201.699 45.913 201.592V201.048C45.913 200.941 45.945 200.856 46.009 200.792C46.0837 200.717 46.1743 200.68 46.281 200.68H47.529V198.008C47.529 197.901 47.561 197.816 47.625 197.752C47.6997 197.677 47.7903 197.64 47.897 197.64H48.649C48.7557 197.64 48.841 197.677 48.905 197.752C48.9797 197.816 49.017 197.901 49.017 198.008V200.68H51.001C51.1077 200.68 51.193 200.717 51.257 200.792C51.3317 200.856 51.369 200.941 51.369 201.048V201.592C51.369 201.699 51.3317 201.789 51.257 201.864C51.193 201.928 51.1077 201.96 51.001 201.96H49.017V206.072C49.017 206.573 49.1023 206.968 49.273 207.256C49.4437 207.544 49.7477 207.688 50.185 207.688H51.161C51.2677 207.688 51.353 207.725 51.417 207.8C51.4917 207.864 51.529 207.949 51.529 208.056V208.632C51.529 208.739 51.4917 208.829 51.417 208.904C51.353 208.968 51.2677 209 51.161 209H50.057ZM56.371 209.16C55.2723 209.16 54.3977 208.824 53.747 208.152C53.0963 207.469 52.739 206.541 52.675 205.368C52.6643 205.229 52.659 205.053 52.659 204.84C52.659 204.616 52.6643 204.435 52.675 204.296C52.7177 203.539 52.8937 202.877 53.203 202.312C53.5123 201.736 53.9337 201.293 54.467 200.984C55.011 200.675 55.6457 200.52 56.371 200.52C57.1817 200.52 57.859 200.691 58.403 201.032C58.9577 201.373 59.379 201.859 59.667 202.488C59.955 203.117 60.099 203.853 60.099 204.696V204.968C60.099 205.085 60.0617 205.176 59.987 205.24C59.923 205.304 59.8377 205.336 59.731 205.336H54.195C54.195 205.347 54.195 205.368 54.195 205.4C54.195 205.432 54.195 205.459 54.195 205.48C54.2163 205.917 54.3123 206.328 54.483 206.712C54.6537 207.085 54.899 207.389 55.219 207.624C55.539 207.859 55.923 207.976 56.371 207.976C56.755 207.976 57.075 207.917 57.331 207.8C57.587 207.683 57.795 207.555 57.955 207.416C58.115 207.267 58.2217 207.155 58.275 207.08C58.371 206.941 58.4457 206.861 58.499 206.84C58.5523 206.808 58.6377 206.792 58.755 206.792H59.523C59.6297 206.792 59.715 206.824 59.779 206.888C59.8537 206.941 59.8857 207.021 59.875 207.128C59.8643 207.288 59.779 207.485 59.619 207.72C59.459 207.944 59.2297 208.168 58.931 208.392C58.6323 208.616 58.2697 208.803 57.843 208.952C57.4163 209.091 56.9257 209.16 56.371 209.16ZM54.195 204.232H58.579V204.184C58.579 203.704 58.4883 203.277 58.307 202.904C58.1363 202.531 57.8857 202.237 57.555 202.024C57.2243 201.8 56.8297 201.688 56.371 201.688C55.9123 201.688 55.5177 201.8 55.187 202.024C54.867 202.237 54.6217 202.531 54.451 202.904C54.2803 203.277 54.195 203.704 54.195 204.184V204.232ZM62.3801 209C62.2735 209 62.1828 208.968 62.1081 208.904C62.0441 208.829 62.0121 208.739 62.0121 208.632V201.064C62.0121 200.957 62.0441 200.867 62.1081 200.792C62.1828 200.717 62.2735 200.68 62.3801 200.68H63.1161C63.2228 200.68 63.3135 200.717 63.3881 200.792C63.4628 200.867 63.5001 200.957 63.5001 201.064V201.768C63.7135 201.405 64.0068 201.133 64.3801 200.952C64.7535 200.771 65.2015 200.68 65.7241 200.68H66.3641C66.4708 200.68 66.5561 200.717 66.6201 200.792C66.6841 200.856 66.7161 200.941 66.7161 201.048V201.704C66.7161 201.811 66.6841 201.896 66.6201 201.96C66.5561 202.024 66.4708 202.056 66.3641 202.056H65.4041C64.8281 202.056 64.3748 202.227 64.0441 202.568C63.7135 202.899 63.5481 203.352 63.5481 203.928V208.632C63.5481 208.739 63.5108 208.829 63.4361 208.904C63.3615 208.968 63.2708 209 63.1641 209H62.3801ZM68.4583 209C68.3516 209 68.2609 208.968 68.1863 208.904C68.1223 208.829 68.0903 208.739 68.0903 208.632V201.048C68.0903 200.941 68.1223 200.856 68.1863 200.792C68.2609 200.717 68.3516 200.68 68.4583 200.68H69.2103C69.3169 200.68 69.4023 200.717 69.4663 200.792C69.5409 200.856 69.5783 200.941 69.5783 201.048V201.752C69.8556 201.389 70.2023 201.096 70.6183 200.872C71.0449 200.637 71.5889 200.52 72.2503 200.52C72.9436 200.52 73.5303 200.675 74.0103 200.984C74.5009 201.283 74.8689 201.704 75.1143 202.248C75.3596 202.781 75.4823 203.405 75.4823 204.12V208.632C75.4823 208.739 75.4503 208.829 75.3863 208.904C75.3223 208.968 75.2369 209 75.1302 209H74.3303C74.2236 209 74.1329 208.968 74.0583 208.904C73.9943 208.829 73.9623 208.739 73.9623 208.632V204.2C73.9623 203.453 73.7809 202.872 73.4183 202.456C73.0556 202.029 72.5223 201.816 71.8183 201.816C71.1569 201.816 70.6236 202.029 70.2183 202.456C69.8236 202.872 69.6263 203.453 69.6263 204.2V208.632C69.6263 208.739 69.5889 208.829 69.5143 208.904C69.4503 208.968 69.3649 209 69.2582 209H68.4583ZM81.1054 209.16C80.0067 209.16 79.132 208.824 78.4814 208.152C77.8307 207.469 77.4734 206.541 77.4094 205.368C77.3987 205.229 77.3934 205.053 77.3934 204.84C77.3934 204.616 77.3987 204.435 77.4094 204.296C77.452 203.539 77.628 202.877 77.9374 202.312C78.2467 201.736 78.668 201.293 79.2014 200.984C79.7454 200.675 80.38 200.52 81.1054 200.52C81.916 200.52 82.5934 200.691 83.1374 201.032C83.692 201.373 84.1134 201.859 84.4014 202.488C84.6894 203.117 84.8334 203.853 84.8334 204.696V204.968C84.8334 205.085 84.796 205.176 84.7214 205.24C84.6574 205.304 84.572 205.336 84.4654 205.336H78.9294C78.9294 205.347 78.9294 205.368 78.9294 205.4C78.9294 205.432 78.9294 205.459 78.9294 205.48C78.9507 205.917 79.0467 206.328 79.2174 206.712C79.388 207.085 79.6334 207.389 79.9534 207.624C80.2734 207.859 80.6574 207.976 81.1054 207.976C81.4894 207.976 81.8094 207.917 82.0654 207.8C82.3214 207.683 82.5294 207.555 82.6894 207.416C82.8494 207.267 82.956 207.155 83.0094 207.08C83.1054 206.941 83.18 206.861 83.2334 206.84C83.2867 206.808 83.372 206.792 83.4894 206.792H84.2574C84.364 206.792 84.4494 206.824 84.5134 206.888C84.588 206.941 84.62 207.021 84.6094 207.128C84.5987 207.288 84.5134 207.485 84.3534 207.72C84.1934 207.944 83.964 208.168 83.6654 208.392C83.3667 208.616 83.004 208.803 82.5774 208.952C82.1507 209.091 81.66 209.16 81.1054 209.16ZM78.9294 204.232H83.3134V204.184C83.3134 203.704 83.2227 203.277 83.0414 202.904C82.8707 202.531 82.62 202.237 82.2894 202.024C81.9587 201.8 81.564 201.688 81.1054 201.688C80.6467 201.688 80.252 201.8 79.9214 202.024C79.6014 202.237 79.356 202.531 79.1854 202.904C79.0147 203.277 78.9294 203.704 78.9294 204.184V204.232ZM89.9476 209C89.3503 209 88.865 208.888 88.4916 208.664C88.1183 208.429 87.8463 208.104 87.6756 207.688C87.505 207.261 87.4196 206.76 87.4196 206.184V201.96H86.1716C86.065 201.96 85.9743 201.928 85.8996 201.864C85.8356 201.789 85.8036 201.699 85.8036 201.592V201.048C85.8036 200.941 85.8356 200.856 85.8996 200.792C85.9743 200.717 86.065 200.68 86.1716 200.68H87.4196V198.008C87.4196 197.901 87.4516 197.816 87.5156 197.752C87.5903 197.677 87.681 197.64 87.7876 197.64H88.5396C88.6463 197.64 88.7316 197.677 88.7956 197.752C88.8703 197.816 88.9076 197.901 88.9076 198.008V200.68H90.8916C90.9983 200.68 91.0836 200.717 91.1476 200.792C91.2223 200.856 91.2596 200.941 91.2596 201.048V201.592C91.2596 201.699 91.2223 201.789 91.1476 201.864C91.0836 201.928 90.9983 201.96 90.8916 201.96H88.9076V206.072C88.9076 206.573 88.993 206.968 89.1636 207.256C89.3343 207.544 89.6383 207.688 90.0756 207.688H91.0516C91.1583 207.688 91.2436 207.725 91.3076 207.8C91.3823 207.864 91.4196 207.949 91.4196 208.056V208.632C91.4196 208.739 91.3823 208.829 91.3076 208.904C91.2436 208.968 91.1583 209 91.0516 209H89.9476ZM99.1915 209.16C98.6582 209.16 98.1728 209.053 97.7355 208.84C97.2982 208.627 96.9462 208.339 96.6795 207.976C96.4128 207.613 96.2795 207.203 96.2795 206.744C96.2795 206.008 96.5782 205.421 97.1755 204.984C97.7728 204.547 98.5515 204.259 99.5115 204.12L101.896 203.784V203.32C101.896 202.808 101.746 202.408 101.448 202.12C101.16 201.832 100.685 201.688 100.024 201.688C99.5435 201.688 99.1542 201.784 98.8555 201.976C98.5675 202.168 98.3648 202.413 98.2475 202.712C98.1835 202.872 98.0715 202.952 97.9115 202.952H97.1915C97.0742 202.952 96.9835 202.92 96.9195 202.856C96.8662 202.781 96.8395 202.696 96.8395 202.6C96.8395 202.44 96.8982 202.243 97.0155 202.008C97.1435 201.773 97.3355 201.544 97.5915 201.32C97.8475 201.096 98.1728 200.909 98.5675 200.76C98.9728 200.6 99.4635 200.52 100.04 200.52C100.68 200.52 101.218 200.605 101.656 200.776C102.093 200.936 102.434 201.155 102.68 201.432C102.936 201.709 103.117 202.024 103.224 202.376C103.341 202.728 103.4 203.085 103.4 203.448V208.632C103.4 208.739 103.362 208.829 103.288 208.904C103.224 208.968 103.138 209 103.032 209H102.296C102.178 209 102.088 208.968 102.024 208.904C101.96 208.829 101.928 208.739 101.928 208.632V207.944C101.789 208.136 101.602 208.328 101.368 208.52C101.133 208.701 100.84 208.856 100.488 208.984C100.136 209.101 99.7035 209.16 99.1915 209.16ZM99.5275 207.96C99.9648 207.96 100.365 207.869 100.728 207.688C101.09 207.496 101.373 207.203 101.576 206.808C101.789 206.413 101.896 205.917 101.896 205.32V204.872L100.04 205.144C99.2822 205.251 98.7115 205.432 98.3275 205.688C97.9435 205.933 97.7515 206.248 97.7515 206.632C97.7515 206.931 97.8368 207.181 98.0075 207.384C98.1888 207.576 98.4128 207.72 98.6795 207.816C98.9568 207.912 99.2395 207.96 99.5275 207.96ZM109.06 209.16C108.302 209.16 107.646 209.016 107.092 208.728C106.548 208.429 106.126 208.008 105.828 207.464C105.529 206.909 105.369 206.248 105.348 205.48C105.337 205.32 105.332 205.107 105.332 204.84C105.332 204.573 105.337 204.36 105.348 204.2C105.369 203.432 105.529 202.776 105.828 202.232C106.126 201.677 106.548 201.256 107.092 200.968C107.646 200.669 108.302 200.52 109.06 200.52C109.678 200.52 110.206 200.605 110.644 200.776C111.092 200.947 111.46 201.165 111.748 201.432C112.036 201.699 112.249 201.987 112.388 202.296C112.537 202.605 112.617 202.899 112.628 203.176C112.638 203.283 112.606 203.368 112.532 203.432C112.457 203.496 112.366 203.528 112.26 203.528H111.492C111.385 203.528 111.305 203.507 111.252 203.464C111.198 203.411 111.145 203.325 111.092 203.208C110.9 202.685 110.638 202.317 110.308 202.104C109.977 201.891 109.566 201.784 109.076 201.784C108.436 201.784 107.913 201.981 107.508 202.376C107.113 202.771 106.9 203.405 106.868 204.28C106.857 204.664 106.857 205.037 106.868 205.4C106.9 206.285 107.113 206.925 107.508 207.32C107.913 207.704 108.436 207.896 109.076 207.896C109.566 207.896 109.977 207.789 110.308 207.576C110.638 207.363 110.9 206.995 111.092 206.472C111.145 206.355 111.198 206.275 111.252 206.232C111.305 206.179 111.385 206.152 111.492 206.152H112.26C112.366 206.152 112.457 206.184 112.532 206.248C112.606 206.312 112.638 206.397 112.628 206.504C112.617 206.728 112.569 206.957 112.484 207.192C112.398 207.427 112.26 207.667 112.068 207.912C111.886 208.147 111.657 208.36 111.38 208.552C111.102 208.733 110.766 208.883 110.372 209C109.988 209.107 109.55 209.16 109.06 209.16ZM117.888 209.16C117.13 209.16 116.474 209.016 115.92 208.728C115.376 208.429 114.954 208.008 114.656 207.464C114.357 206.909 114.197 206.248 114.176 205.48C114.165 205.32 114.16 205.107 114.16 204.84C114.16 204.573 114.165 204.36 114.176 204.2C114.197 203.432 114.357 202.776 114.656 202.232C114.954 201.677 115.376 201.256 115.92 200.968C116.474 200.669 117.13 200.52 117.888 200.52C118.506 200.52 119.034 200.605 119.472 200.776C119.92 200.947 120.288 201.165 120.576 201.432C120.864 201.699 121.077 201.987 121.216 202.296C121.365 202.605 121.445 202.899 121.456 203.176C121.466 203.283 121.434 203.368 121.36 203.432C121.285 203.496 121.194 203.528 121.088 203.528H120.32C120.213 203.528 120.133 203.507 120.08 203.464C120.026 203.411 119.973 203.325 119.92 203.208C119.728 202.685 119.466 202.317 119.136 202.104C118.805 201.891 118.394 201.784 117.904 201.784C117.264 201.784 116.741 201.981 116.336 202.376C115.941 202.771 115.728 203.405 115.696 204.28C115.685 204.664 115.685 205.037 115.696 205.4C115.728 206.285 115.941 206.925 116.336 207.32C116.741 207.704 117.264 207.896 117.904 207.896C118.394 207.896 118.805 207.789 119.136 207.576C119.466 207.363 119.728 206.995 119.92 206.472C119.973 206.355 120.026 206.275 120.08 206.232C120.133 206.179 120.213 206.152 120.32 206.152H121.088C121.194 206.152 121.285 206.184 121.36 206.248C121.434 206.312 121.466 206.397 121.456 206.504C121.445 206.728 121.397 206.957 121.312 207.192C121.226 207.427 121.088 207.667 120.896 207.912C120.714 208.147 120.485 208.36 120.208 208.552C119.93 208.733 119.594 208.883 119.2 209C118.816 209.107 118.378 209.16 117.888 209.16ZM126.668 209.16C125.569 209.16 124.695 208.824 124.044 208.152C123.393 207.469 123.036 206.541 122.972 205.368C122.961 205.229 122.956 205.053 122.956 204.84C122.956 204.616 122.961 204.435 122.972 204.296C123.015 203.539 123.191 202.877 123.5 202.312C123.809 201.736 124.231 201.293 124.764 200.984C125.308 200.675 125.943 200.52 126.668 200.52C127.479 200.52 128.156 200.691 128.7 201.032C129.255 201.373 129.676 201.859 129.964 202.488C130.252 203.117 130.396 203.853 130.396 204.696V204.968C130.396 205.085 130.359 205.176 130.284 205.24C130.22 205.304 130.135 205.336 130.028 205.336H124.492C124.492 205.347 124.492 205.368 124.492 205.4C124.492 205.432 124.492 205.459 124.492 205.48C124.513 205.917 124.609 206.328 124.78 206.712C124.951 207.085 125.196 207.389 125.516 207.624C125.836 207.859 126.22 207.976 126.668 207.976C127.052 207.976 127.372 207.917 127.628 207.8C127.884 207.683 128.092 207.555 128.252 207.416C128.412 207.267 128.519 207.155 128.572 207.08C128.668 206.941 128.743 206.861 128.796 206.84C128.849 206.808 128.935 206.792 129.052 206.792H129.82C129.927 206.792 130.012 206.824 130.076 206.888C130.151 206.941 130.183 207.021 130.172 207.128C130.161 207.288 130.076 207.485 129.916 207.72C129.756 207.944 129.527 208.168 129.228 208.392C128.929 208.616 128.567 208.803 128.14 208.952C127.713 209.091 127.223 209.16 126.668 209.16ZM124.492 204.232H128.876V204.184C128.876 203.704 128.785 203.277 128.604 202.904C128.433 202.531 128.183 202.237 127.852 202.024C127.521 201.8 127.127 201.688 126.668 201.688C126.209 201.688 125.815 201.8 125.484 202.024C125.164 202.237 124.919 202.531 124.748 202.904C124.577 203.277 124.492 203.704 124.492 204.184V204.232ZM135.189 209.16C134.592 209.16 134.08 209.085 133.653 208.936C133.226 208.787 132.88 208.605 132.613 208.392C132.346 208.179 132.144 207.965 132.005 207.752C131.877 207.539 131.808 207.368 131.797 207.24C131.786 207.123 131.824 207.032 131.909 206.968C131.994 206.904 132.08 206.872 132.165 206.872H132.869C132.933 206.872 132.981 206.883 133.013 206.904C133.056 206.915 133.109 206.957 133.173 207.032C133.312 207.181 133.466 207.331 133.637 207.48C133.808 207.629 134.016 207.752 134.261 207.848C134.517 207.944 134.832 207.992 135.205 207.992C135.749 207.992 136.197 207.891 136.549 207.688C136.901 207.475 137.077 207.165 137.077 206.76C137.077 206.493 137.002 206.28 136.853 206.12C136.714 205.96 136.458 205.816 136.085 205.688C135.722 205.56 135.221 205.427 134.581 205.288C133.941 205.139 133.434 204.957 133.061 204.744C132.688 204.52 132.421 204.259 132.261 203.96C132.101 203.651 132.021 203.304 132.021 202.92C132.021 202.525 132.138 202.147 132.373 201.784C132.608 201.411 132.949 201.107 133.397 200.872C133.856 200.637 134.426 200.52 135.109 200.52C135.664 200.52 136.138 200.589 136.533 200.728C136.928 200.867 137.253 201.043 137.509 201.256C137.765 201.459 137.957 201.661 138.085 201.864C138.213 202.067 138.282 202.237 138.293 202.376C138.304 202.483 138.272 202.573 138.197 202.648C138.122 202.712 138.037 202.744 137.941 202.744H137.269C137.194 202.744 137.13 202.728 137.077 202.696C137.034 202.664 136.992 202.627 136.949 202.584C136.842 202.445 136.714 202.307 136.565 202.168C136.426 202.029 136.24 201.917 136.005 201.832C135.781 201.736 135.482 201.688 135.109 201.688C134.576 201.688 134.176 201.8 133.909 202.024C133.642 202.248 133.509 202.531 133.509 202.872C133.509 203.075 133.568 203.256 133.685 203.416C133.802 203.576 134.026 203.72 134.357 203.848C134.688 203.976 135.178 204.115 135.829 204.264C136.533 204.403 137.088 204.589 137.493 204.824C137.898 205.059 138.186 205.331 138.357 205.64C138.528 205.949 138.613 206.307 138.613 206.712C138.613 207.16 138.48 207.571 138.213 207.944C137.957 208.317 137.573 208.616 137.061 208.84C136.56 209.053 135.936 209.16 135.189 209.16ZM143.345 209.16C142.748 209.16 142.236 209.085 141.809 208.936C141.383 208.787 141.036 208.605 140.769 208.392C140.503 208.179 140.3 207.965 140.161 207.752C140.033 207.539 139.964 207.368 139.953 207.24C139.943 207.123 139.98 207.032 140.065 206.968C140.151 206.904 140.236 206.872 140.321 206.872H141.025C141.089 206.872 141.137 206.883 141.169 206.904C141.212 206.915 141.265 206.957 141.329 207.032C141.468 207.181 141.623 207.331 141.793 207.48C141.964 207.629 142.172 207.752 142.417 207.848C142.673 207.944 142.988 207.992 143.361 207.992C143.905 207.992 144.353 207.891 144.705 207.688C145.057 207.475 145.233 207.165 145.233 206.76C145.233 206.493 145.159 206.28 145.009 206.12C144.871 205.96 144.615 205.816 144.241 205.688C143.879 205.56 143.377 205.427 142.737 205.288C142.097 205.139 141.591 204.957 141.217 204.744C140.844 204.52 140.577 204.259 140.417 203.96C140.257 203.651 140.177 203.304 140.177 202.92C140.177 202.525 140.295 202.147 140.529 201.784C140.764 201.411 141.105 201.107 141.553 200.872C142.012 200.637 142.583 200.52 143.265 200.52C143.82 200.52 144.295 200.589 144.689 200.728C145.084 200.867 145.409 201.043 145.665 201.256C145.921 201.459 146.113 201.661 146.241 201.864C146.369 202.067 146.439 202.237 146.449 202.376C146.46 202.483 146.428 202.573 146.353 202.648C146.279 202.712 146.193 202.744 146.097 202.744H145.425C145.351 202.744 145.287 202.728 145.233 202.696C145.191 202.664 145.148 202.627 145.105 202.584C144.999 202.445 144.871 202.307 144.721 202.168C144.583 202.029 144.396 201.917 144.161 201.832C143.937 201.736 143.639 201.688 143.265 201.688C142.732 201.688 142.332 201.8 142.065 202.024C141.799 202.248 141.665 202.531 141.665 202.872C141.665 203.075 141.724 203.256 141.841 203.416C141.959 203.576 142.183 203.72 142.513 203.848C142.844 203.976 143.335 204.115 143.985 204.264C144.689 204.403 145.244 204.589 145.649 204.824C146.055 205.059 146.343 205.331 146.513 205.64C146.684 205.949 146.769 206.307 146.769 206.712C146.769 207.16 146.636 207.571 146.369 207.944C146.113 208.317 145.729 208.616 145.217 208.84C144.716 209.053 144.092 209.16 143.345 209.16ZM148.878 209C148.771 209 148.68 208.968 148.606 208.904C148.542 208.829 148.51 208.739 148.51 208.632V207.48C148.51 207.373 148.542 207.288 148.606 207.224C148.68 207.149 148.771 207.112 148.878 207.112H150.03C150.136 207.112 150.222 207.149 150.286 207.224C150.36 207.288 150.398 207.373 150.398 207.48V208.632C150.398 208.739 150.36 208.829 150.286 208.904C150.222 208.968 150.136 209 150.03 209H148.878Z" fill="#B1957E"/>
<g clip-path="url(#clip0_11_104)">
<path d="M35 67C35 68.1819 35.2328 69.3522 35.6851 70.4442C36.1374 71.5361 36.8003 72.5282 37.636 73.364C38.4718 74.1997 39.4639 74.8626 40.5558 75.3149C41.6478 75.7672 42.8181 76 44 76C45.1819 76 46.3522 75.7672 47.4442 75.3149C48.5361 74.8626 49.5282 74.1997 50.364 73.364C51.1997 72.5282 51.8626 71.5361 52.3149 70.4442C52.7672 69.3522 53 68.1819 53 67C53 65.8181 52.7672 64.6478 52.3149 63.5558C51.8626 62.4639 51.1997 61.4718 50.364 60.636C49.5282 59.8003 48.5361 59.1374 47.4442 58.6851C46.3522 58.2328 45.1819 58 44 58C42.8181 58 41.6478 58.2328 40.5558 58.6851C39.4639 59.1374 38.4718 59.8003 37.636 60.636C36.8003 61.4718 36.1374 62.4639 35.6851 63.5558C35.2328 64.6478 35 65.8181 35 67Z" stroke="#FFB72D" stroke-width="1.5" stroke-linecap="round" stroke-linejoin="round"/>
<path d="M41 67L43 69L47 65" stroke="#FFB72D" stroke-width="1.5" stroke-linecap="round" stroke-linejoin="round"/>
</g>
<defs>
<clipPath id="clip0_11_104">
<rect width="24" height="24" fill="white" transform="translate(32 55)"/>
</clipPath>
</defs>
</svg>
